<svg width="30" height="24" viewBox="0 0 30 24" fill="none" xmlns="http://www.w3.org/2000/svg">
<g clip-path="url(#clip0_492_1510)">
<path d="M8.09981 5.85746C8.99199 5.85746 9.71524 5.13122 9.71524 4.23537C9.71524 3.33951 8.99199 2.61328 8.09981 2.61328C7.20763 2.61328 6.48438 3.33951 6.48438 4.23537C6.48438 5.13122 7.20763 5.85746 8.09981 5.85746Z" fill="#D0A2F7"/>
<path d="M12.1853 5.45287C12.855 5.45287 13.398 4.90771 13.398 4.23522C13.398 3.56274 12.855 3.01758 12.1853 3.01758C11.5156 3.01758 10.9727 3.56274 10.9727 4.23522C10.9727 4.90771 11.5156 5.45287 12.1853 5.45287Z" fill="#D0A2F7"/>
<path d="M1.03501 5.27387C1.60664 5.27387 2.07003 4.80857 2.07003 4.23459C2.07003 3.66061 1.60664 3.19531 1.03501 3.19531C0.463391 3.19531 0 3.66061 0 4.23459C0 4.80857 0.463391 5.27387 1.03501 5.27387Z" fill="#D0A2F7"/>
<path d="M28.1779 24C29.0701 24 29.7934 23.2738 29.7934 22.3779C29.7934 21.4821 29.0701 20.7559 28.1779 20.7559C27.2858 20.7559 26.5625 21.4821 26.5625 22.3779C26.5625 23.2738 27.2858 24 28.1779 24Z" fill="#D0A2F7"/>
<path d="M18.1404 7.08508C13.4887 7.08508 9.71774 10.8715 9.71774 15.5424C9.71774 15.5532 9.71774 15.564 9.71774 15.5748H9.70414V16.4093C9.68757 16.9639 9.45653 17.4902 9.06002 17.8766C8.6635 18.263 8.13269 18.4791 7.58015 18.4791C7.02761 18.4791 6.4968 18.263 6.10028 17.8766C5.70377 17.4902 5.47273 16.9639 5.45616 16.4093V0H2.99219V16.5371C2.99216 17.1253 3.10752 17.7078 3.33169 18.2513C3.55586 18.7948 3.88445 19.2886 4.2987 19.7045C4.71294 20.1205 5.20472 20.4504 5.74597 20.6755C6.28721 20.9006 6.8673 21.0165 7.45313 21.0164C8.69698 21.018 9.89076 20.5245 10.7731 19.6441C12.2106 22.242 14.9711 24 18.1406 24C22.7926 24 26.5633 20.2133 26.5633 15.5424C26.5633 10.8715 22.7926 7.08508 18.1404 7.08508ZM18.1404 21.5254C14.8496 21.5254 12.1822 18.8468 12.1822 15.5424C12.1822 12.2381 14.8496 9.55944 18.1404 9.55944C21.4312 9.55944 24.0991 12.2381 24.0991 15.5424C24.0991 18.8468 21.4317 21.5254 18.1404 21.5254Z" fill="#D0A2F7"/>
</g>
<defs>
<clipPath id="clip0_492_1510">
<rect width="29.7931" height="24" fill="white"/>
</clipPath>
</defs>
</svg>
