<svg width="44" height="43" viewBox="0 0 44 43" fill="none" xmlns="http://www.w3.org/2000/svg">
<g filter="url(#filter0_b_531_4866)">
<path fill-rule="evenodd" clip-rule="evenodd" d="M0.355469 21.3923C0.355469 9.57765 9.93312 0 21.7478 0C33.5624 0 43.14 9.57765 43.14 21.3923C43.14 33.2069 33.5624 42.7846 21.7478 42.7846C9.93312 42.7846 0.355469 33.2069 0.355469 21.3923Z" fill="#D4D4D4" fill-opacity="0.1"/>
<path d="M0.772202 21.3923C0.772202 9.80781 10.1633 0.416733 21.7478 0.416733C33.3322 0.416733 42.7233 9.80781 42.7233 21.3923C42.7233 32.9768 33.3322 42.3678 21.7478 42.3678C10.1633 42.3678 0.772202 32.9768 0.772202 21.3923Z" stroke="url(#paint0_linear_531_4866)" stroke-opacity="0.5" stroke-width="0.833466" stroke-linecap="round"/>
</g>
<g filter="url(#filter1_b_531_4866)">
<path d="M26.3175 23.8941C26.4064 23.1606 26.4731 22.4272 26.4731 21.6715C26.4731 20.9158 26.4064 20.1823 26.3175 19.4489H30.0736C30.2514 20.1601 30.3626 20.9047 30.3626 21.6715C30.3626 22.4383 30.2514 23.1828 30.0736 23.8941M24.3505 30.0728C25.0173 28.8393 25.5285 27.5057 25.8841 26.1166H29.1624C28.0857 27.9706 26.3776 29.3749 24.3505 30.0728ZM24.0727 23.8941H18.8718C18.7607 23.1606 18.694 22.4272 18.694 21.6715C18.694 20.9158 18.7607 20.1712 18.8718 19.4489H24.0727C24.1727 20.1712 24.2505 20.9158 24.2505 21.6715C24.2505 22.4272 24.1727 23.1606 24.0727 23.8941ZM21.4723 30.5173C20.5499 29.1838 19.8053 27.7058 19.3497 26.1166H23.5948C23.1392 27.7058 22.3946 29.1838 21.4723 30.5173ZM17.0271 17.2263H13.7821C14.8475 15.3672 16.5544 13.9605 18.5829 13.2701C17.9161 14.5037 17.4161 15.8372 17.0271 17.2263ZM13.7821 26.1166H17.0271C17.4161 27.5057 17.9161 28.8393 18.5829 30.0728C16.5584 29.3753 14.8537 27.9705 13.7821 26.1166ZM12.8709 23.8941C12.6931 23.1828 12.582 22.4383 12.582 21.6715C12.582 20.9047 12.6931 20.1601 12.8709 19.4489H16.627C16.5381 20.1823 16.4715 20.9158 16.4715 21.6715C16.4715 22.4272 16.5381 23.1606 16.627 23.8941M21.4723 12.8145C22.3946 14.1481 23.1392 15.6372 23.5948 17.2263H19.3497C19.8053 15.6372 20.5499 14.1481 21.4723 12.8145ZM29.1624 17.2263H25.8841C25.5357 15.8501 25.0207 14.5216 24.3505 13.2701C26.3953 13.9702 28.0955 15.3816 29.1624 17.2263ZM21.4723 10.5586C15.3268 10.5586 10.3594 15.5594 10.3594 21.6715C10.3594 24.6188 11.5302 27.4454 13.6143 29.5295C14.6462 30.5614 15.8713 31.38 17.2195 31.9384C18.5678 32.4969 20.0129 32.7844 21.4723 32.7844C24.4196 32.7844 27.2462 31.6135 29.3303 29.5295C31.4143 27.4454 32.5851 24.6188 32.5851 21.6715C32.5851 20.2121 32.2977 18.767 31.7392 17.4188C31.1807 16.0705 30.3622 14.8454 29.3303 13.8135C28.2983 12.7816 27.0732 11.963 25.725 11.4045C24.3767 10.846 22.9316 10.5586 21.4723 10.5586Z" fill="url(#paint1_linear_531_4866)"/>
</g>
<defs>
<filter id="filter0_b_531_4866" x="-19.0921" y="-19.4475" width="81.6802" height="81.6802" filterUnits="userSpaceOnUse" color-interpolation-filters="sRGB">
<feFlood flood-opacity="0" result="BackgroundImageFix"/>
<feGaussianBlur in="BackgroundImageFix" stdDeviation="9.72377"/>
<feComposite in2="SourceAlpha" operator="in" result="effect1_backgroundBlur_531_4866"/>
<feBlend mode="normal" in="SourceGraphic" in2="effect1_backgroundBlur_531_4866" result="shape"/>
</filter>
<filter id="filter1_b_531_4866" x="-9.89848" y="-9.69926" width="62.7423" height="62.7423" filterUnits="userSpaceOnUse" color-interpolation-filters="sRGB">
<feFlood flood-opacity="0" result="BackgroundImageFix"/>
<feGaussianBlur in="BackgroundImageFix" stdDeviation="10.1289"/>
<feComposite in2="SourceAlpha" operator="in" result="effect1_backgroundBlur_531_4866"/>
<feBlend mode="normal" in="SourceGraphic" in2="effect1_backgroundBlur_531_4866" result="shape"/>
</filter>
<linearGradient id="paint0_linear_531_4866" x1="0.221767" y1="0.133702" x2="21.6141" y2="21.526" gradientUnits="userSpaceOnUse">
<stop stop-color="white" stop-opacity="0.5"/>
<stop offset="1" stop-color="white" stop-opacity="0.1"/>
</linearGradient>
<linearGradient id="paint1_linear_531_4866" x1="10.2899" y1="10.628" x2="30.0494" y2="35.0457" gradientUnits="userSpaceOnUse">
<stop stop-color="#F5EDFD"/>
<stop offset="1" stop-color="#F5EDFD" stop-opacity="0.2"/>
</linearGradient>
</defs>
</svg>
