<svg width="20" height="21" viewBox="0 0 20 21" fill="none" xmlns="http://www.w3.org/2000/svg">
<g clip-path="url(#clip0_459_3065)">
<path d="M18.75 2.31201L13.7456 2.31203V1.06641C13.7456 0.721094 13.4659 0.441406 13.1206 0.441406C12.7753 0.441406 12.4956 0.721094 12.4956 1.06641V2.31172H7.49563V1.06641C7.49563 0.721094 7.21594 0.441406 6.87063 0.441406C6.52531 0.441406 6.24563 0.721094 6.24563 1.06641V2.31172H1.25C0.559687 2.31172 0 2.87141 0 3.56172V19.1867C0 19.877 0.559687 20.4367 1.25 20.4367H18.75C19.4403 20.4367 20 19.877 20 19.1867V3.56172C20 2.8717 19.4403 2.31201 18.75 2.31201ZM18.75 19.1867H1.25V3.56172H6.24563V4.19141C6.24563 4.5367 6.52531 4.81641 6.87063 4.81641C7.21594 4.81641 7.49563 4.5367 7.49563 4.19141V3.56203H12.4956V4.19172C12.4956 4.53703 12.7753 4.81672 13.1206 4.81672C13.4659 4.81672 13.7456 4.53703 13.7456 4.19172V3.56203H18.75V19.1867ZM14.375 10.437H15.625C15.97 10.437 16.25 10.157 16.25 9.81201V8.56201C16.25 8.21701 15.97 7.93701 15.625 7.93701H14.375C14.03 7.93701 13.75 8.21701 13.75 8.56201V9.81201C13.75 10.157 14.03 10.437 14.375 10.437ZM14.375 15.4367H15.625C15.97 15.4367 16.25 15.157 16.25 14.8117V13.5617C16.25 13.2167 15.97 12.9367 15.625 12.9367H14.375C14.03 12.9367 13.75 13.2167 13.75 13.5617V14.8117C13.75 15.1573 14.03 15.4367 14.375 15.4367ZM10.625 12.9367H9.375C9.03 12.9367 8.75 13.2167 8.75 13.5617V14.8117C8.75 15.157 9.03 15.4367 9.375 15.4367H10.625C10.97 15.4367 11.25 15.157 11.25 14.8117V13.5617C11.25 13.217 10.97 12.9367 10.625 12.9367ZM10.625 7.93701H9.375C9.03 7.93701 8.75 8.21701 8.75 8.56201V9.81201C8.75 10.157 9.03 10.437 9.375 10.437H10.625C10.97 10.437 11.25 10.157 11.25 9.81201V8.56201C11.25 8.2167 10.97 7.93701 10.625 7.93701ZM5.625 7.93701H4.375C4.03 7.93701 3.75 8.21701 3.75 8.56201V9.81201C3.75 10.157 4.03 10.437 4.375 10.437H5.625C5.97 10.437 6.25 10.157 6.25 9.81201V8.56201C6.25 8.2167 5.97 7.93701 5.625 7.93701ZM5.625 12.9367H4.375C4.03 12.9367 3.75 13.2167 3.75 13.5617V14.8117C3.75 15.157 4.03 15.4367 4.375 15.4367H5.625C5.97 15.4367 6.25 15.157 6.25 14.8117V13.5617C6.25 13.217 5.97 12.9367 5.625 12.9367Z" fill="#D0A2F7"/>
</g>
<defs>
<clipPath id="clip0_459_3065">
<rect width="20" height="20" fill="white" transform="translate(0 0.439453)"/>
</clipPath>
</defs>
</svg>
