<svg width="16" height="16" viewBox="0 0 16 16" fill="none" xmlns="http://www.w3.org/2000/svg">
<path fill-rule="evenodd" clip-rule="evenodd" d="M2.17057 0.503906C1.72855 0.503906 1.30462 0.679501 0.992062 0.992062C0.679501 1.30462 0.503906 1.72855 0.503906 2.17057V13.8372C0.503906 14.2793 0.679501 14.7032 0.992062 15.0157C1.30462 15.3283 1.72855 15.5039 2.17057 15.5039H13.8372C14.2793 15.5039 14.7032 15.3283 15.0157 15.0157C15.3283 14.7032 15.5039 14.2793 15.5039 13.8372V2.17057C15.5039 1.72855 15.3283 1.30462 15.0157 0.992062C14.7032 0.679501 14.2793 0.503906 13.8372 0.503906H2.17057ZM2.17057 2.17057H13.8372V13.8372H2.17057V2.17057ZM12.1289 6.16641C12.2085 6.08953 12.272 5.99758 12.3157 5.89591C12.3593 5.79424 12.3823 5.68489 12.3833 5.57424C12.3842 5.46359 12.3632 5.35386 12.3213 5.25144C12.2794 5.14903 12.2175 5.05599 12.1392 4.97774C12.061 4.8995 11.9679 4.83762 11.8655 4.79572C11.7631 4.75382 11.6534 4.73274 11.5427 4.7337C11.4321 4.73466 11.3227 4.75765 11.2211 4.80132C11.1194 4.845 11.0274 4.90848 10.9506 4.98807L6.82557 9.11307L5.05807 7.34557C4.9807 7.26815 4.88884 7.20672 4.78773 7.1648C4.68662 7.12287 4.57824 7.10128 4.46878 7.10124C4.24773 7.10116 4.03569 7.1889 3.87932 7.34516C3.72296 7.50141 3.63507 7.71339 3.63499 7.93444C3.63491 8.1555 3.72265 8.36754 3.87891 8.52391L6.17724 10.8222C6.26237 10.9074 6.36344 10.975 6.47468 11.0211C6.58592 11.0672 6.70516 11.0909 6.82557 11.0909C6.94599 11.0909 7.06522 11.0672 7.17647 11.0211C7.28771 10.975 7.38878 10.9074 7.47391 10.8222L12.1289 6.16641Z" fill="#D0A2F7"/>
</svg>
