<svg width="29" height="29" viewBox="0 0 29 29" fill="none" xmlns="http://www.w3.org/2000/svg">
<g filter="url(#filter0_b_428_2859)">
<path d="M7.29601 4.61337L14.5013 11.8187L21.6693 4.65071C21.8277 4.48218 22.0184 4.34736 22.2301 4.25434C22.4418 4.16132 22.6701 4.11202 22.9013 4.10938C23.3964 4.10938 23.8712 4.30604 24.2213 4.65611C24.5713 5.00618 24.768 5.48097 24.768 5.97604C24.7724 6.2049 24.7299 6.43223 24.6432 6.64409C24.5566 6.85594 24.4275 7.04785 24.264 7.20804L17.0027 14.376L24.264 21.6374C24.5717 21.9384 24.7521 22.3459 24.768 22.776C24.768 23.2711 24.5713 23.7459 24.2213 24.096C23.8712 24.446 23.3964 24.6427 22.9013 24.6427C22.6634 24.6526 22.4261 24.6129 22.2044 24.5261C21.9826 24.4393 21.7814 24.3074 21.6133 24.1387L14.5013 16.9334L7.31468 24.12C7.15696 24.2829 6.96853 24.413 6.76028 24.5027C6.55203 24.5924 6.32808 24.64 6.10135 24.6427C5.60627 24.6427 5.13148 24.446 4.78141 24.096C4.43134 23.7459 4.23468 23.2711 4.23468 22.776C4.23033 22.5472 4.27279 22.3199 4.35946 22.108C4.44612 21.8961 4.57517 21.7042 4.73868 21.544L12 14.376L4.73868 7.11471C4.43102 6.81372 4.25062 6.40614 4.23468 5.97604C4.23468 5.48097 4.43134 5.00618 4.78141 4.65611C5.13148 4.30604 5.60627 4.10938 6.10135 4.10938C6.54935 4.11498 6.97868 4.29604 7.29601 4.61337Z" fill="#F5EDFD"/>
</g>
<defs>
<filter id="filter0_b_428_2859" x="-30.7656" y="-30.8906" width="90.5352" height="90.5352" filterUnits="userSpaceOnUse" color-interpolation-filters="sRGB">
<feFlood flood-opacity="0" result="BackgroundImageFix"/>
<feGaussianBlur in="BackgroundImageFix" stdDeviation="17.5"/>
<feComposite in2="SourceAlpha" operator="in" result="effect1_backgroundBlur_428_2859"/>
<feBlend mode="normal" in="SourceGraphic" in2="effect1_backgroundBlur_428_2859" result="shape"/>
</filter>
</defs>
</svg>
