<svg width="57" height="56" viewBox="0 0 57 56" fill="none" xmlns="http://www.w3.org/2000/svg">
<g filter="url(#filter0_b_495_4591)">
<circle cx="28.5" cy="28" r="28" fill="#151515"/>
<circle cx="28.5" cy="28" r="27.3636" stroke="#474747" stroke-width="1.27273" stroke-linecap="round"/>
</g>
<g clip-path="url(#clip0_495_4591)">
<path d="M34.1704 32.3359C35.1383 31.716 35.9856 31.1448 36.8597 30.619C38.1936 29.8174 39.7826 30.5833 39.9807 32.1206C40.0808 32.8974 39.802 33.567 39.1604 34.0041C37.5713 35.0848 35.9823 36.1678 34.3459 37.1728C32.955 38.0274 31.2142 37.1274 30.9106 35.4559C30.7071 34.3395 30.5338 33.2187 30.3454 32.099C30.3217 31.9572 30.3282 31.7917 30.256 31.6803C30.1505 31.5159 29.9966 31.2908 29.8448 31.2757C29.6897 31.2605 29.412 31.4336 29.3635 31.5819C29.1838 32.1249 29.018 32.6842 28.9544 33.25C28.7133 35.3932 29.3345 37.3383 30.3368 39.2034C30.5898 39.674 30.7642 40.243 30.7803 40.7742C30.8083 41.6711 30.1118 42.4576 29.2462 42.7075C28.3559 42.9639 27.4699 42.6469 26.9316 41.869C24.7827 38.7566 24.3521 35.3347 25.1229 31.6976C25.1681 31.4866 25.1994 31.2692 25.2715 31.0669C26.1941 28.4781 25.8195 25.7919 25.8345 23.1392C25.8367 22.7454 25.5805 22.251 25.2855 21.9697C22.9525 19.7368 21.8641 16.9046 21.3258 13.8094C21.1256 12.6583 21.9879 11.6382 23.1582 11.5083C24.2681 11.385 25.2586 12.2061 25.3824 13.3756C25.5288 14.7582 25.9024 16.0575 26.67 17.2291C27.12 17.9161 27.6604 18.3921 28.5324 18.5316C29.7156 18.721 30.8675 19.0996 32.0485 19.3084C32.5771 19.4014 33.1445 19.2997 33.6914 19.2478C34.2243 19.198 34.7518 19.0985 35.3504 19.012C34.951 17.8869 34.5645 16.8115 34.1877 15.7318C34.1059 15.496 34.0262 15.2493 34.0068 15.0027C33.9401 14.1091 34.5085 13.3431 35.3762 13.1192C36.1923 12.9082 37.1149 13.3064 37.4282 14.1145C38.1904 16.0759 38.9364 18.0459 39.6158 20.0376C40.0162 21.2124 39.1787 22.3094 37.8685 22.4739C36.7295 22.6167 35.5904 22.7497 34.4525 22.8969C33.8033 22.9812 33.6429 23.1522 33.6365 23.8002C33.6182 25.6566 33.5514 27.5163 33.6268 29.3695C33.6655 30.3248 33.9659 31.2703 34.1704 32.337V32.3359Z" fill="#D0A2F7"/>
<path d="M33.4732 15.0629C33.4603 16.835 32.0295 18.2317 30.2521 18.2079C28.5522 18.1851 27.158 16.7549 27.1602 15.0348C27.1623 13.2628 28.5909 11.8488 30.3597 11.8694C32.1049 11.8888 33.4872 13.306 33.4732 15.0629Z" fill="#D0A2F7"/>
<path d="M17.7295 28.7136C17.7295 27.7053 17.7328 26.7003 17.7274 25.6953C17.7252 25.3447 17.7059 24.9272 18.1063 24.8428C18.3669 24.7876 18.7211 24.9207 18.9622 25.0786C19.4704 25.4129 19.9322 25.8175 20.4113 26.1951C20.7547 26.4655 20.8979 26.7998 20.5932 27.1687C20.3122 27.5095 19.9688 27.4565 19.6426 27.2012C19.4607 27.0584 19.2777 26.9167 19.0064 26.7057C18.9945 26.9621 18.9805 27.1438 18.9794 27.3256C18.9751 28.4064 18.9913 29.4871 18.9665 30.5668C18.9482 31.3576 18.5499 31.9505 17.8361 32.2653C17.0868 32.5963 16.3268 32.5649 15.6474 32.0521C15.0101 31.5707 14.7603 30.7269 14.9993 29.9718C15.248 29.1874 15.9435 28.6573 16.7725 28.6454C17.0728 28.6411 17.3743 28.6865 17.7285 28.7125L17.7295 28.7136Z" fill="#D0A2F7"/>
<path d="M16.0927 12.7168C16.4157 13.0554 16.7387 13.3929 17.0616 13.7316C17.0692 13.5422 17.0756 13.3518 17.0832 13.1625C16.7473 13.5011 16.4114 13.8397 16.0755 14.1784C16.2316 14.2076 16.3888 14.2357 16.5449 14.2649C16.2617 13.8733 15.9775 13.4817 15.6944 13.09C15.6556 13.3075 15.6169 13.526 15.5781 13.7435C15.9237 13.4124 16.2693 13.0814 16.6149 12.7503C16.4415 12.7395 16.2682 12.7287 16.0949 12.7179L16.0927 12.7168Z" fill="#D0A2F7"/>
<path d="M21.719 39.889C21.3885 40.2211 21.0569 40.5543 20.7264 40.8864C20.9073 40.9005 21.0881 40.9135 21.269 40.9275L20.2764 39.8652C20.2732 40.0664 20.2689 40.2665 20.2656 40.4677C20.5972 40.114 20.9288 39.7613 21.2604 39.4075L20.7512 39.4043C21.0709 39.7451 21.3906 40.0859 21.7104 40.4266C21.7136 40.247 21.7158 40.0675 21.719 39.8879V39.889Z" fill="#D0A2F7"/>
<g filter="url(#filter1_b_495_4591)">
<path d="M35.4283 32.7246C35.4283 32.7246 35.4283 32.7246 35.4283 32.7245C36.3961 32.1047 37.2434 31.5335 38.1175 31.0077C39.4514 30.206 41.0404 30.972 41.2385 32.5093C41.3387 33.286 41.0598 33.9557 40.4182 34.3928C38.8292 35.4735 37.2401 36.5564 35.6037 37.5615C34.2128 38.4161 32.472 37.516 32.1684 35.8446C31.9649 34.7281 31.7916 33.6073 31.6032 32.4876C31.5795 32.3459 31.586 32.1804 31.5138 32.069C31.4083 31.9045 31.2544 31.6795 31.1026 31.6644C30.9476 31.6492 30.6698 31.8223 30.6214 31.9705C30.4416 32.5136 30.2758 33.0729 30.2123 33.6387C29.9711 35.7818 30.5923 37.727 31.5946 39.5921C31.8476 40.0627 32.022 40.6317 32.0381 41.1629C32.0661 42.0597 31.3696 42.8462 30.504 43.0961C29.6137 43.3525 28.7277 43.0356 28.1894 42.2577C26.0405 39.1453 25.6099 35.7234 26.3807 32.0863C26.4259 31.8753 26.4572 31.6579 26.5293 31.4556C27.4519 28.8667 27.0773 26.1805 27.0923 23.5279C27.0945 23.1341 26.8383 22.6397 26.5433 22.3584C24.2104 20.1255 23.1219 17.2932 22.5837 14.1981C22.3834 13.047 23.2457 12.0268 24.416 11.897C25.5259 11.7737 26.5164 12.5948 26.6402 13.7643C26.7866 15.1469 27.1602 16.4461 27.9278 17.6178C28.3778 18.3047 28.9182 18.7808 29.7902 18.9203C30.9734 19.1096 32.1253 19.4883 33.3063 19.6971C33.8349 19.7901 34.4023 19.6884 34.9492 19.6365C35.3879 19.5955 35.823 19.5208 36.2971 19.4474C36.4579 19.4225 36.5574 19.2575 36.5029 19.1042C36.1407 18.0859 35.7891 17.105 35.4455 16.1205C35.3637 15.8847 35.284 15.638 35.2646 15.3914C35.1979 14.4978 35.7663 13.7318 36.634 13.5079C37.4501 13.2969 38.3727 13.695 38.686 14.5032C39.4482 16.4645 40.1943 18.4346 40.8736 20.4262C41.2741 21.6011 40.4365 22.6981 39.1263 22.8625C37.9873 23.0053 36.8483 23.1384 35.7103 23.2855C35.0611 23.3699 34.9007 23.5408 34.8943 24.1889C34.876 26.0453 34.8092 27.905 34.8846 29.7582C34.9233 30.7131 35.2235 31.6584 35.4281 32.7246C35.4281 32.7247 35.4283 32.7247 35.4283 32.7246Z" fill="#D4D4D4" fill-opacity="0.1"/>
<path d="M35.5465 37.4683L35.5465 37.4683C37.1491 36.484 38.7066 35.4246 40.2656 34.3642L40.3566 34.3024L35.5465 37.4683ZM35.5465 37.4683C34.2315 38.2762 32.5681 37.4332 32.276 35.825L32.276 35.825M35.5465 37.4683L32.276 35.825M32.276 35.825C32.14 35.0787 32.0176 34.3313 31.895 33.5825C31.8343 33.2119 31.7736 32.8409 31.7111 32.4695C31.7058 32.4378 31.702 32.404 31.6982 32.3668L31.6969 32.3539C31.6935 32.3212 31.6899 32.286 31.685 32.2516C31.6741 32.1748 31.6552 32.0862 31.6059 32.0099C31.5531 31.9275 31.4841 31.8235 31.407 31.7376C31.3345 31.6569 31.2337 31.5675 31.1134 31.5555L31.1132 31.5555M32.276 35.825L31.1132 31.5555M31.1132 31.5555C31.0533 31.5496 30.9904 31.5622 30.9338 31.5813C30.8759 31.6009 30.8173 31.6298 30.7636 31.6637C30.7099 31.6976 30.6586 31.7381 30.6162 31.7824C30.5749 31.8255 30.5367 31.8778 30.5175 31.9361L31.1132 31.5555ZM31.4982 39.6439L31.4982 39.6439C30.49 37.7677 29.859 35.7997 30.1036 33.6265C30.1036 33.6265 30.1036 33.6265 30.1036 33.6265L30.2123 33.6387L31.4982 39.6439ZM31.4982 39.6439C31.7446 40.1022 31.9132 40.6548 31.9288 41.1662L31.9288 41.1663M31.4982 39.6439L31.9288 41.1663M31.9288 41.1663C31.9549 42.0029 31.3018 42.7519 30.4737 42.991C29.6292 43.2342 28.7913 42.9353 28.2793 42.1955C26.1506 39.1121 25.722 35.7222 26.4877 32.109L26.3807 32.0863L26.4877 32.1092C26.5003 32.0503 26.5116 31.9927 26.5227 31.9362C26.5531 31.7808 26.5818 31.634 26.6323 31.4923L26.6323 31.4923M31.9288 41.1663L26.6323 31.4923M35.4873 32.8166L35.486 32.8175L35.4873 32.8166ZM35.4873 32.8166C35.4876 32.8165 35.4879 32.8163 35.4882 32.8161M35.4873 32.8166L35.5019 32.8055M26.6323 31.4923C27.0992 30.1822 27.2369 28.8502 27.2605 27.5176C27.2723 26.8514 27.2557 26.1838 27.2371 25.5185C27.2357 25.468 27.2343 25.4174 27.2328 25.3668C27.2155 24.7518 27.1983 24.1392 27.2017 23.5285V23.5285M26.6323 31.4923L27.2017 23.5285M27.2017 23.5285C27.2029 23.3096 27.1329 23.0707 27.0277 22.8533C26.9222 22.6352 26.7771 22.4302 26.6189 22.2794C24.3088 20.0683 23.2274 17.2612 22.6914 14.1793L22.6914 14.1793M27.2017 23.5285L22.6914 14.1793M22.6914 14.1793C22.5033 13.0981 23.3124 12.1295 24.428 12.0057L24.4281 12.0057M22.6914 14.1793L24.4281 12.0057M24.4281 12.0057C25.4739 11.8895 26.4136 12.6626 26.5314 13.7758L26.5314 13.7758M24.4281 12.0057L26.5314 13.7758M26.5314 13.7758C26.6791 15.1708 27.0568 16.4879 27.8363 17.6777M26.5314 13.7758L33.2874 19.8048M33.2874 19.8048L33.2873 19.8048C32.7246 19.7053 32.1688 19.5676 31.6174 19.431C31.5858 19.4232 31.5543 19.4154 31.5228 19.4076C30.939 19.2631 30.3594 19.1222 29.773 19.0283L29.7902 18.9203L29.773 19.0283C28.8614 18.8824 28.2973 18.3815 27.8363 17.6777M33.2874 19.8048C33.7276 19.8823 34.1959 19.8295 34.6396 19.7796C34.748 19.7674 34.8549 19.7553 34.9595 19.7454C35.3238 19.7114 35.686 19.6542 36.0655 19.5944C36.1474 19.5815 36.2301 19.5685 36.3138 19.5555C36.5417 19.5202 36.6837 19.2862 36.6059 19.0676C36.5218 18.831 36.4382 18.5964 36.3552 18.3634C36.0808 17.5933 35.8124 16.84 35.5488 16.0845C35.4669 15.8484 35.3919 15.614 35.3737 15.3831C35.3111 14.5441 35.8432 13.8249 36.6614 13.6138L36.6614 13.6138M33.2874 19.8048L36.6614 13.6138M27.8363 17.6777L27.9278 17.6178L27.8363 17.6777C27.8363 17.6777 27.8363 17.6777 27.8363 17.6777ZM36.6614 13.6138C37.4307 13.4149 38.2932 13.7927 38.584 14.5427L38.584 14.5428M36.6614 13.6138L38.584 14.5428M38.584 14.5428C39.346 16.5037 40.0915 18.472 40.77 20.4615C40.9585 21.0144 40.8557 21.5452 40.5532 21.9587C40.2496 22.3736 39.741 22.6751 39.1127 22.754C38.6502 22.812 38.1871 22.8684 37.7238 22.9249C37.0478 23.0073 36.3715 23.0897 35.6963 23.177L35.6962 23.1771M38.584 14.5428L35.6962 23.1771M35.3695 32.6327C35.3619 32.6374 35.3548 32.6431 35.3485 32.6498L35.3695 32.6327ZM35.3695 32.6327L35.4279 32.724L35.3695 32.6327ZM35.6962 23.1771C35.3711 23.2193 35.1315 23.2859 34.9803 23.4523C34.8284 23.6194 34.7881 23.8623 34.7849 24.1878C34.7803 24.658 34.7725 25.1291 34.7647 25.6006C34.7419 26.9868 34.719 28.377 34.7753 29.7626C34.7951 30.2496 34.8814 30.7319 34.9872 31.2227C35.0261 31.4028 35.0673 31.5832 35.109 31.7654C35.1817 32.0833 35.2557 32.4069 35.3206 32.7452L35.3207 32.7457M35.6962 23.1771L35.3207 32.7457M35.3207 32.7457C35.3332 32.8091 35.3908 32.8374 35.4367 32.8338C35.453 32.8325 35.4703 32.8269 35.4859 32.8173C35.4864 32.8171 35.4868 32.8168 35.4872 32.8165C35.4923 32.8133 35.4973 32.8096 35.5019 32.8055M35.3207 32.7457L35.5019 32.8055M35.5019 32.8055C35.4976 32.8093 35.4931 32.8129 35.4882 32.8161M35.4882 32.8161C35.7999 32.6164 36.0985 32.4222 36.3891 32.2332M35.4882 32.8161L36.3891 32.2332M36.3891 32.2332C37.0033 31.8338 37.5819 31.4575 38.1739 31.1014M36.3891 32.2332L38.1739 31.1014M38.1739 31.1014C39.4406 30.3402 40.9421 31.0648 41.13 32.5233C41.2252 33.2619 40.962 33.8899 40.3567 34.3023L38.1739 31.1014ZM35.4279 32.7239L35.3708 32.6319C35.3823 32.6248 35.3948 32.62 35.4071 32.6174C35.4142 32.6528 35.4211 32.6883 35.4279 32.7239ZM35.4283 32.7246L35.4283 32.7246L35.4283 32.7246Z" stroke="url(#paint0_linear_495_4591)" stroke-width="0.218772" stroke-linecap="round"/>
</g>
<g filter="url(#filter2_b_495_4591)">
<path d="M16.3995 12.751C16.3991 12.7508 16.3987 12.7514 16.399 12.7517C16.6588 13.024 16.9185 13.2956 17.1782 13.5676C17.2486 13.6414 17.3729 13.5944 17.3766 13.4925C17.3805 13.3872 17.2529 13.3318 17.1787 13.4066C16.9607 13.6263 16.7427 13.8461 16.5247 14.0659C16.4632 14.1278 16.4961 14.2331 16.5819 14.2488C16.6784 14.2665 16.7476 14.1571 16.69 14.0776C16.5162 13.8374 16.3421 13.5972 16.1682 13.357C16.1048 13.2695 15.9675 13.3009 15.9485 13.4072C15.9278 13.5238 16.0683 13.599 16.1538 13.5171C16.2939 13.3828 16.4341 13.2486 16.5743 13.1143C16.7061 12.988 16.6246 12.7651 16.4423 12.7538C16.4281 12.7529 16.4139 12.752 16.3997 12.7511C16.3996 12.7511 16.3995 12.7511 16.3995 12.751Z" fill="#D4D4D4" fill-opacity="0.1"/>
<path d="M16.5471 12.8447C16.5486 12.8461 16.55 12.8477 16.5515 12.8492C16.55 12.8477 16.5486 12.8462 16.5471 12.8447ZM16.604 13.1453C16.6248 13.1254 16.6412 13.1035 16.6534 13.0805C16.7193 13.1494 16.7851 13.2183 16.8509 13.2871C16.914 13.3532 16.977 13.4192 17.0401 13.4853L16.6205 13.9083L16.2875 13.4485L16.604 13.1453ZM17.2093 13.538C17.1929 13.5208 17.1765 13.5036 17.1601 13.4864L17.2092 13.4368C17.2558 13.3899 17.3361 13.4247 17.3337 13.4909C17.3314 13.5547 17.2535 13.5843 17.2093 13.538ZM16.5552 14.0962L16.6102 14.0407L16.6552 14.1028C16.69 14.1508 16.6482 14.2173 16.5896 14.2065C16.538 14.1971 16.518 14.1337 16.5552 14.0962ZM16.1334 13.3822L16.174 13.4382L16.124 13.4861C16.0686 13.5392 15.9774 13.4904 15.9909 13.4147C16.0031 13.3458 16.0922 13.3253 16.1334 13.3822ZM16.3996 12.7511L16.3996 12.7511L16.3996 12.7511Z" stroke="url(#paint1_linear_495_4591)" stroke-opacity="0.5" stroke-width="0.085946" stroke-linecap="round"/>
</g>
<g filter="url(#filter3_b_495_4591)">
<path d="M18.7013 29.7224C18.7016 29.7228 18.7022 29.7225 18.7022 29.722C18.7022 28.7142 18.7054 27.7096 18.7 26.705C18.6979 26.3545 18.6785 25.9369 19.079 25.8525C19.3395 25.7974 19.6937 25.9304 19.9349 26.0884C20.443 26.4227 20.9049 26.8273 21.3839 27.2048C21.7274 27.4753 21.8706 27.8096 21.5659 28.1785C21.2849 28.5193 20.9415 28.4663 20.6153 28.2109C20.5367 28.1493 20.4579 28.0878 20.372 28.0209C20.207 27.8925 19.9615 28.0036 19.9546 28.2125C19.9532 28.254 19.9523 28.2947 19.9521 28.3354C19.9478 29.4161 19.9639 30.4969 19.9392 31.5765C19.9209 32.3674 19.5225 32.9602 18.8088 33.275C18.0595 33.6061 17.2994 33.5747 16.6201 33.0619C15.9828 32.5805 15.733 31.7367 15.972 30.9815C16.2207 30.1972 16.9162 29.6671 17.7451 29.6552C18.0454 29.6509 18.3468 29.6963 18.7009 29.7223C18.701 29.7223 18.7012 29.7223 18.7013 29.7224Z" fill="#D4D4D4" fill-opacity="0.1"/>
<path d="M19.9349 26.0884L19.9113 26.1243C20.2775 26.3652 20.6188 26.6423 20.9619 26.9208C21.093 27.0271 21.2243 27.1337 21.3573 27.2386L21.3574 27.2386C21.5255 27.371 21.6389 27.5148 21.6762 27.6651C21.7129 27.8127 21.6783 27.9749 21.5327 28.1511L21.5327 28.1512C21.399 28.3133 21.2546 28.3776 21.1082 28.3753C20.9595 28.3729 20.801 28.3017 20.6418 28.1771C20.5631 28.1154 20.4843 28.0539 20.3984 27.987C20.2066 27.8378 19.9197 27.9658 19.9116 28.2111C19.9103 28.2529 19.9094 28.294 19.9091 28.3351V28.3352C19.9077 28.696 19.9085 29.0566 19.9094 29.417C19.911 30.137 19.9127 30.8563 19.8962 31.5756C19.8783 32.3498 19.4899 32.9277 18.7914 33.2357L18.7914 33.2357C18.0543 33.5614 17.3112 33.5297 16.646 33.0276C16.0238 32.5576 15.7792 31.733 16.013 30.9945C16.2562 30.2274 16.9357 29.7098 17.7457 29.6982C17.9444 29.6953 18.142 29.7143 18.3579 29.7351C18.4642 29.7454 18.575 29.756 18.6926 29.7647C18.7177 29.77 18.7452 29.7517 18.7452 29.722C18.7452 29.4474 18.7454 29.173 18.7456 28.8987C18.7463 28.1667 18.7469 27.4357 18.743 26.7048L18.743 26.7048C18.7429 26.6917 18.7428 26.6785 18.7427 26.6653C18.7415 26.4998 18.7402 26.331 18.7799 26.1907C18.801 26.116 18.8332 26.0519 18.8815 26.0019C18.9293 25.9522 18.9952 25.9141 19.0879 25.8946L19.0879 25.8946C19.2083 25.8691 19.354 25.8866 19.5017 25.9316C19.6487 25.9765 19.7939 26.0474 19.9113 26.1243L19.9349 26.0884ZM19.9349 26.0884C19.6937 25.9304 19.3395 25.7974 19.079 25.8525L19.9521 28.3354C19.9523 28.2947 19.9532 28.254 19.9546 28.2125C19.9615 28.0036 20.207 27.8925 20.372 28.0209C20.4579 28.0878 20.5367 28.1493 20.6153 28.2109C20.9415 28.4663 21.2849 28.5193 21.5659 28.1785C21.8706 27.8096 21.7274 27.4753 21.3839 27.2048C21.252 27.1008 21.1213 26.9948 20.9906 26.8887C20.6469 26.6097 20.303 26.3306 19.9349 26.0884Z" stroke="url(#paint2_linear_495_4591)" stroke-opacity="0.5" stroke-width="0.085946" stroke-linecap="round"/>
</g>
<g filter="url(#filter4_b_495_4591)">
<mask id="path-14-inside-1_495_4591" fill="white">
<path d="M20.2977 40.3661C20.2978 40.3661 20.298 40.3661 20.2982 40.3659C20.573 40.1055 20.8478 39.8459 21.1221 39.5857C21.1957 39.5159 21.1511 39.3919 21.0499 39.3846C20.9438 39.3769 20.8842 39.5037 20.9577 39.5807C21.1697 39.8028 21.3817 40.0247 21.5938 40.2463C21.6559 40.3113 21.7655 40.2792 21.7828 40.1909C21.8024 40.0912 21.6887 40.0198 21.6074 40.0808C21.3674 40.2611 21.1276 40.4417 20.8875 40.622C20.8072 40.6822 20.8344 40.8092 20.9323 40.8314C21.0438 40.8568 21.1217 40.7245 21.0455 40.6392C20.8887 40.4637 20.732 40.2884 20.5752 40.1129C20.4858 40.0128 20.3196 40.069 20.3093 40.2028C20.3051 40.2571 20.301 40.3113 20.2969 40.3654C20.2969 40.3658 20.2972 40.3661 20.2977 40.3661Z"/>
</mask>
<path d="M20.2977 40.3661C20.2978 40.3661 20.298 40.3661 20.2982 40.3659C20.573 40.1055 20.8478 39.8459 21.1221 39.5857C21.1957 39.5159 21.1511 39.3919 21.0499 39.3846C20.9438 39.3769 20.8842 39.5037 20.9577 39.5807C21.1697 39.8028 21.3817 40.0247 21.5938 40.2463C21.6559 40.3113 21.7655 40.2792 21.7828 40.1909C21.8024 40.0912 21.6887 40.0198 21.6074 40.0808C21.3674 40.2611 21.1276 40.4417 20.8875 40.622C20.8072 40.6822 20.8344 40.8092 20.9323 40.8314C21.0438 40.8568 21.1217 40.7245 21.0455 40.6392C20.8887 40.4637 20.732 40.2884 20.5752 40.1129C20.4858 40.0128 20.3196 40.069 20.3093 40.2028C20.3051 40.2571 20.301 40.3113 20.2969 40.3654C20.2969 40.3658 20.2972 40.3661 20.2977 40.3661Z" fill="#D4D4D4" fill-opacity="0.1"/>
<path d="M20.2969 40.3654L20.2112 40.359L20.2969 40.3654ZM20.5752 40.1129L20.5111 40.1701L20.5752 40.1129ZM21.0455 40.6392L21.1096 40.582L21.0455 40.6392ZM20.9577 39.5807L20.8955 39.64L20.9577 39.5807ZM20.2982 40.3659L20.2391 40.3036L20.2982 40.3659ZM20.3573 40.4283C20.6319 40.1681 20.907 39.9082 21.1812 39.6481L21.0629 39.5234C20.7887 39.7835 20.514 40.043 20.2391 40.3036L20.3573 40.4283ZM20.8955 39.64C21.1076 39.8621 21.3196 40.0841 21.5317 40.3057L21.6559 40.1869C21.4439 39.9653 21.2319 39.7434 21.0198 39.5213L20.8955 39.64ZM21.5558 40.0121C21.3153 40.1927 21.0763 40.3727 20.8359 40.5532L20.9391 40.6907C21.1788 40.5106 21.4194 40.3295 21.659 40.1496L21.5558 40.0121ZM21.1096 40.582C20.9525 40.4061 20.7963 40.2314 20.6393 40.0556L20.5111 40.1701C20.6676 40.3453 20.8249 40.5213 20.9814 40.6965L21.1096 40.582ZM20.2236 40.1962C20.2194 40.2505 20.2153 40.3048 20.2112 40.359L20.3826 40.3718C20.3867 40.3178 20.3908 40.2636 20.395 40.2094L20.2236 40.1962ZM20.2112 40.359C20.2075 40.4093 20.2473 40.4521 20.2977 40.4521V40.2802C20.3472 40.2802 20.3863 40.3223 20.3826 40.3718L20.2112 40.359ZM20.6393 40.0556C20.4995 39.8991 20.2397 39.987 20.2236 40.1962L20.395 40.2094C20.3995 40.1511 20.4722 40.1266 20.5111 40.1701L20.6393 40.0556ZM20.9132 40.9152C21.1065 40.9593 21.2414 40.7295 21.1096 40.582L20.9814 40.6965C21.0019 40.7195 20.981 40.7544 20.9513 40.7476L20.9132 40.9152ZM20.8359 40.5532C20.6969 40.6576 20.7441 40.8767 20.9132 40.9152L20.9513 40.7476C20.9246 40.7416 20.9175 40.7069 20.9391 40.6907L20.8359 40.5532ZM21.8672 40.2075C21.9019 40.0305 21.7002 39.9037 21.5558 40.0121L21.659 40.1496C21.6773 40.1359 21.7029 40.1518 21.6985 40.1744L21.8672 40.2075ZM21.5317 40.3057C21.642 40.421 21.8364 40.3641 21.8672 40.2075L21.6985 40.1744C21.6946 40.1943 21.6699 40.2015 21.6559 40.1869L21.5317 40.3057ZM21.0561 39.2988C20.8714 39.2856 20.7679 39.5064 20.8955 39.64L21.0198 39.5213C21.0005 39.5011 21.0162 39.4683 21.0438 39.4703L21.0561 39.2988ZM21.1812 39.6481C21.3092 39.5267 21.2315 39.3115 21.0561 39.2988L21.0438 39.4703C21.0707 39.4722 21.0821 39.5052 21.0629 39.5234L21.1812 39.6481ZM20.2391 40.3036C20.2549 40.2886 20.2759 40.2802 20.2977 40.2802V40.4521C20.3198 40.4521 20.3412 40.4436 20.3573 40.4283L20.2391 40.3036Z" fill="url(#paint3_linear_495_4591)" fill-opacity="0.5" mask="url(#path-14-inside-1_495_4591)"/>
</g>
<g filter="url(#filter5_b_495_4591)">
<path d="M34.1451 15.0786C34.1321 16.8506 32.7014 18.2473 30.924 18.2235C29.224 18.2008 27.8299 16.7706 27.832 15.0504C27.8342 13.2784 29.2628 11.8644 31.0316 11.885C32.7767 11.9045 34.1591 13.3217 34.1451 15.0786Z" fill="#D4D4D4" fill-opacity="0.1"/>
<path d="M34.0357 15.0777L34.0357 15.0778C34.0232 16.7888 32.6425 18.1371 30.9254 18.1141C29.2865 18.0922 27.9393 16.712 27.9414 15.0506V15.0506C27.9435 13.3392 29.3226 11.9745 31.0303 11.9944L31.0304 11.9944C32.7146 12.0132 34.0492 13.3804 34.0357 15.0777Z" stroke="url(#paint4_linear_495_4591)" stroke-width="0.218772" stroke-linecap="round"/>
</g>
</g>
<defs>
<filter id="filter0_b_495_4591" x="-11.8426" y="-12.3426" width="80.6853" height="80.6853" filterUnits="userSpaceOnUse" color-interpolation-filters="sRGB">
<feFlood flood-opacity="0" result="BackgroundImageFix"/>
<feGaussianBlur in="BackgroundImageFix" stdDeviation="6.17131"/>
<feComposite in2="SourceAlpha" operator="in" result="effect1_backgroundBlur_495_4591"/>
<feBlend mode="normal" in="SourceGraphic" in2="effect1_backgroundBlur_495_4591" result="shape"/>
</filter>
<filter id="filter1_b_495_4591" x="21.8671" y="11.1972" width="20.0783" height="32.674" filterUnits="userSpaceOnUse" color-interpolation-filters="sRGB">
<feFlood flood-opacity="0" result="BackgroundImageFix"/>
<feGaussianBlur in="BackgroundImageFix" stdDeviation="0.343784"/>
<feComposite in2="SourceAlpha" operator="in" result="effect1_backgroundBlur_495_4591"/>
<feBlend mode="normal" in="SourceGraphic" in2="effect1_backgroundBlur_495_4591" result="shape"/>
</filter>
<filter id="filter2_b_495_4591" x="15.2577" y="12.0644" width="2.80482" height="2.87318" filterUnits="userSpaceOnUse" color-interpolation-filters="sRGB">
<feFlood flood-opacity="0" result="BackgroundImageFix"/>
<feGaussianBlur in="BackgroundImageFix" stdDeviation="0.343784"/>
<feComposite in2="SourceAlpha" operator="in" result="effect1_backgroundBlur_495_4591"/>
<feBlend mode="normal" in="SourceGraphic" in2="effect1_backgroundBlur_495_4591" result="shape"/>
</filter>
<filter id="filter3_b_495_4591" x="15.1952" y="25.1523" width="7.2267" height="9.02748" filterUnits="userSpaceOnUse" color-interpolation-filters="sRGB">
<feFlood flood-opacity="0" result="BackgroundImageFix"/>
<feGaussianBlur in="BackgroundImageFix" stdDeviation="0.343784"/>
<feComposite in2="SourceAlpha" operator="in" result="effect1_backgroundBlur_495_4591"/>
<feBlend mode="normal" in="SourceGraphic" in2="effect1_backgroundBlur_495_4591" result="shape"/>
</filter>
<filter id="filter4_b_495_4591" x="19.6093" y="38.6972" width="2.86342" height="2.82436" filterUnits="userSpaceOnUse" color-interpolation-filters="sRGB">
<feFlood flood-opacity="0" result="BackgroundImageFix"/>
<feGaussianBlur in="BackgroundImageFix" stdDeviation="0.343784"/>
<feComposite in2="SourceAlpha" operator="in" result="effect1_backgroundBlur_495_4591"/>
<feBlend mode="normal" in="SourceGraphic" in2="effect1_backgroundBlur_495_4591" result="shape"/>
</filter>
<filter id="filter5_b_495_4591" x="27.1445" y="11.1972" width="7.68764" height="7.71498" filterUnits="userSpaceOnUse" color-interpolation-filters="sRGB">
<feFlood flood-opacity="0" result="BackgroundImageFix"/>
<feGaussianBlur in="BackgroundImageFix" stdDeviation="0.343784"/>
<feComposite in2="SourceAlpha" operator="in" result="effect1_backgroundBlur_495_4591"/>
<feBlend mode="normal" in="SourceGraphic" in2="effect1_backgroundBlur_495_4591" result="shape"/>
</filter>
<linearGradient id="paint0_linear_495_4591" x1="22.4962" y1="11.9826" x2="36.2782" y2="20.2185" gradientUnits="userSpaceOnUse">
<stop stop-color="white" stop-opacity="0.5"/>
<stop offset="1" stop-color="white" stop-opacity="0.1"/>
</linearGradient>
<linearGradient id="paint1_linear_495_4591" x1="15.8781" y1="12.7548" x2="16.6519" y2="13.5071" gradientUnits="userSpaceOnUse">
<stop stop-color="white" stop-opacity="0.5"/>
<stop offset="1" stop-color="white" stop-opacity="0.1"/>
</linearGradient>
<linearGradient id="paint2_linear_495_4591" x1="15.8645" y1="25.8638" x2="19.5565" y2="28.6864" gradientUnits="userSpaceOnUse">
<stop stop-color="white" stop-opacity="0.5"/>
<stop offset="1" stop-color="white" stop-opacity="0.1"/>
</linearGradient>
<linearGradient id="paint3_linear_495_4591" x1="20.2921" y1="39.3681" x2="21.0666" y2="40.1389" gradientUnits="userSpaceOnUse">
<stop stop-color="white" stop-opacity="0.5"/>
<stop offset="1" stop-color="white" stop-opacity="0.1"/>
</linearGradient>
<linearGradient id="paint4_linear_495_4591" x1="27.8123" y1="11.9046" x2="30.9818" y2="15.0611" gradientUnits="userSpaceOnUse">
<stop stop-color="white" stop-opacity="0.5"/>
<stop offset="1" stop-color="white" stop-opacity="0.1"/>
</linearGradient>
<clipPath id="clip0_495_4591">
<rect width="34.5659" height="39.3789" fill="white" transform="translate(6.625 8.31445)"/>
</clipPath>
</defs>
</svg>
