<svg width="57" height="56" viewBox="0 0 57 56" fill="none" xmlns="http://www.w3.org/2000/svg">
<g filter="url(#filter0_b_495_4566)">
<circle cx="28.5" cy="28" r="28" fill="#151515"/>
<circle cx="28.5" cy="28" r="27.3636" stroke="#474747" stroke-width="1.27273" stroke-linecap="round"/>
</g>
<path fill-rule="evenodd" clip-rule="evenodd" d="M27.2384 14.6812C27.4291 14.4785 27.6655 14.3278 28.0533 14.1617C28.3151 14.0495 28.4225 14.0355 28.9145 14.0493C29.4222 14.0635 29.5098 14.0817 29.8211 14.2381C30.0106 14.3334 30.2758 14.5222 30.4104 14.6576L30.5689 14.8172C30.6199 14.8686 30.6988 14.88 30.7624 14.8453L30.9437 14.7461C31.8141 14.2703 32.913 14.2841 33.7657 14.7819C33.8977 14.8589 34.1636 15.0866 34.3567 15.2879L34.6351 15.5782C34.6793 15.6243 34.7463 15.6402 34.8065 15.6191L34.9967 15.5523C35.6083 15.3376 36.4356 15.4617 36.9927 15.852C37.59 16.2704 37.9743 17.0222 37.9781 17.7798C37.979 17.9617 37.9951 17.9775 38.3656 18.1581C39.0837 18.5081 39.6578 19.2427 39.8453 20.0513C40.0097 20.7607 39.8789 21.6057 39.5094 22.2209L39.3439 22.4964C39.3322 22.5161 39.3246 22.5379 39.3219 22.5607L38.1961 31.8562C37.5747 36.9877 37.0531 41.2648 37.037 41.3609C37.0209 41.4569 36.947 41.5973 36.8727 41.6728L36.7856 41.7614C36.755 41.7925 36.7132 41.8101 36.6695 41.8101H28.9124H21.1552C21.1116 41.8101 21.0698 41.7925 21.0392 41.7614L20.952 41.6728C20.8778 41.5973 20.8036 41.4569 20.7873 41.3609C20.771 41.2648 20.2491 36.9877 19.6276 31.8562L18.5018 22.5605C18.499 22.5379 18.4916 22.5161 18.4799 22.4965L18.3148 22.2209C17.4633 20.7989 18.0079 18.8655 19.4591 18.1581C19.8296 17.9775 19.8458 17.9617 19.8467 17.7798C19.8504 17.0222 20.2347 16.2704 20.8321 15.852C21.3891 15.4617 22.2165 15.3376 22.8281 15.5523L23.0183 15.6191C23.0785 15.6402 23.1455 15.6243 23.1896 15.5782L23.4681 15.2879C23.6611 15.0866 23.9271 14.8589 24.0591 14.7819C24.8937 14.2947 25.9681 14.2696 26.8361 14.717L26.9754 14.7887C27.04 14.822 27.1187 14.8085 27.1685 14.7556L27.2384 14.6812ZM29.942 15.901C29.7833 15.56 29.4827 15.275 29.1866 15.1848C28.862 15.0859 28.6275 15.1097 28.3185 15.273C28.1111 15.3826 27.9861 15.4982 27.8641 15.6934C27.4257 16.3945 27.1983 16.4378 26.6269 15.9289C25.7756 15.1706 24.439 15.4712 23.9445 16.5322C23.6613 17.1398 23.3579 17.2035 22.7844 16.7758C21.8369 16.069 20.5646 17.1739 21.0797 18.2562C21.224 18.5594 21.4168 18.6781 21.8344 18.721C22.2491 18.7635 22.4591 18.9555 22.4591 19.2921C22.4591 19.6908 22.1148 19.8873 21.5245 19.8254C21.126 19.7835 20.8088 19.6255 20.4839 19.307L20.2885 19.1154C20.2384 19.0663 20.1624 19.0548 20.1 19.087L19.9485 19.1651C19.6292 19.3296 19.3436 19.624 19.161 19.9767C19.0416 20.2075 19.0205 20.3168 19.0199 20.709C19.0192 21.0933 19.0413 21.2153 19.1525 21.4413L19.2411 21.6216C19.2684 21.6773 19.3251 21.7125 19.3871 21.7125H28.9124H38.4373C38.4995 21.7125 38.5563 21.677 38.5835 21.6211L38.6663 21.4512C38.9614 20.846 38.8447 20.1081 38.3688 19.5698C38.0854 19.2493 37.8634 19.1215 37.3713 18.9958C36.9217 18.8809 36.7261 18.6793 36.7738 18.3802C36.8762 17.7377 36.8729 17.4778 36.7593 17.2513C36.5209 16.776 35.9928 16.479 35.5278 16.5589C35.2054 16.6144 34.865 16.8632 34.7334 17.1398C34.5414 17.5431 34.5854 17.8164 34.9121 18.2517C35.2747 18.7347 35.1021 19.2444 34.5759 19.2444C34.3578 19.2444 34.3108 19.2197 34.0967 18.9925C33.6979 18.5691 33.4577 17.8706 33.5305 17.3459C33.5491 17.2116 33.6239 16.9477 33.6966 16.7594L33.7989 16.4948C33.8178 16.446 33.812 16.3912 33.7835 16.3474L33.6886 16.2014C33.5201 15.9426 33.072 15.6388 32.7287 15.5509C32.4103 15.4693 31.928 15.5137 31.6184 15.653C31.4853 15.7128 31.2303 15.8985 31.0516 16.0656C30.7764 16.3229 30.6957 16.3695 30.5247 16.3695C30.2518 16.3695 30.1052 16.2516 29.942 15.901ZM25.0232 18.4579C25.1833 18.023 25.6692 17.5199 26.0857 17.3574C26.6548 17.1355 27.5026 17.2341 27.924 17.5711L27.9884 17.6226C28.0352 17.6601 28.0989 17.6688 28.154 17.6452L28.3418 17.5649C28.878 17.3356 29.6346 17.3629 30.1657 17.631C30.886 17.9945 31.3657 18.7607 31.3657 19.5476C31.3657 19.8586 31.3525 19.897 31.2016 20.0261C30.8288 20.3451 30.299 20.0857 30.299 19.5841C30.299 19.3309 30.043 18.8734 29.8157 18.7204C29.3771 18.4252 28.9379 18.4464 28.4839 18.785C28.056 19.104 27.8068 19.0823 27.4832 18.6978C27.2688 18.4431 27.0598 18.3223 26.8334 18.3223C26.2786 18.3223 25.8688 18.8732 26.0262 19.4074C26.0956 19.643 26.3907 19.9334 26.6067 19.9784C27.2042 20.1029 27.3391 20.2133 27.3391 20.5778C27.3391 20.7649 27.3078 20.8468 27.1908 20.9654C27.057 21.1012 27.0091 21.115 26.6975 21.1074C26.0323 21.091 25.3726 20.6414 25.0784 20.0038C24.8801 19.5742 24.8565 18.9106 25.0232 18.4579ZM22.6724 31.779C22.2911 26.9685 21.9791 22.998 21.9791 22.9557C21.9791 22.8916 21.7824 22.8788 20.8016 22.8788H19.7759C19.6971 22.8788 19.6378 22.9506 19.6527 23.028C19.6685 23.11 20.1515 27.0705 20.726 31.8291C21.3005 36.5877 21.782 40.536 21.7958 40.6031C21.8206 40.7229 21.8356 40.7252 22.5934 40.7252C23.308 40.7252 23.3658 40.7177 23.3658 40.6253C23.3658 40.5704 23.0538 36.5895 22.6724 31.779ZM26.0583 26.0351C26.0153 24.7019 25.9799 23.4463 25.9796 23.2449L25.9793 23.0413C25.9792 22.9515 25.9064 22.8788 25.8166 22.8788H24.5175H23.2384C23.1412 22.8788 23.0656 22.9635 23.0767 23.0601L23.0793 23.0822C23.0921 23.1941 23.4018 27.1058 23.7673 31.7749C24.1328 36.4439 24.4455 40.3679 24.4621 40.4946L24.4738 40.5836C24.4844 40.6646 24.5534 40.7252 24.6351 40.7252H25.5066H26.3433C26.4387 40.7252 26.5137 40.6433 26.5054 40.5482L26.4912 40.3861C26.4748 40.1997 26.4332 38.9752 26.3987 37.6651L26.3378 35.3499C26.3367 35.3071 26.3187 35.2665 26.2878 35.2368L25.9704 34.9323C25.1509 34.146 24.7192 33.1843 24.6615 32.0161C24.5996 30.7649 25.0153 29.627 25.8533 28.754L26.0889 28.5086C26.1193 28.4769 26.1356 28.4344 26.1342 28.3906L26.0583 26.0351ZM30.699 25.2113C30.7147 24.54 30.7414 23.7406 30.7584 23.4348L30.7797 23.0505C30.7849 22.9573 30.7107 22.8788 30.6173 22.8788H28.9162H27.2126C27.1201 22.8788 27.0462 22.9558 27.05 23.0482L27.0727 23.5975C27.089 23.9928 27.1255 25.083 27.1538 26.0202C27.182 26.9573 27.216 27.7351 27.2291 27.7485C27.2423 27.7618 27.4044 27.7206 27.5894 27.6568C28.399 27.3777 29.4851 27.3829 30.2618 27.6696L30.3979 27.7199C30.5011 27.758 30.6116 27.6848 30.6168 27.5749L30.6384 27.1143C30.656 26.7389 30.6832 25.8826 30.699 25.2113ZM34.0583 31.7477C34.4248 27.0637 34.7354 23.152 34.7485 23.0551C34.7611 22.9618 34.6885 22.8788 34.5944 22.8788H33.309H32.0082C31.9184 22.8788 31.8456 22.9515 31.8455 23.0413L31.8452 23.2449C31.8448 23.4463 31.8094 24.7019 31.7665 26.0351L31.6906 28.3906C31.6892 28.4344 31.7055 28.4769 31.7358 28.5086L31.9714 28.754C32.8095 29.627 33.2252 30.7649 33.1633 32.0161C33.1055 33.1843 32.6738 34.146 31.8544 34.9323L31.537 35.2368C31.5061 35.2665 31.4881 35.3071 31.487 35.3499L31.426 37.6651C31.3916 38.9752 31.35 40.1997 31.3336 40.3861L31.3194 40.5482C31.3111 40.6433 31.386 40.7252 31.4815 40.7252H32.3182H33.1893C33.2712 40.7252 33.3403 40.6644 33.3507 40.5832L33.3621 40.4946C33.3784 40.3679 33.6917 36.4317 34.0583 31.7477ZM37.0987 31.8291C37.6733 27.0705 38.1563 23.11 38.172 23.028C38.187 22.9506 38.1277 22.8788 38.0489 22.8788H37.0232C36.1133 22.8788 35.8457 22.8943 35.8457 22.947C35.8457 22.9844 35.5337 26.9551 35.1523 31.7707C34.771 36.5862 34.459 40.571 34.459 40.6257C34.459 40.7176 34.5179 40.7252 35.2313 40.7252C35.9892 40.7252 36.0041 40.7229 36.0289 40.6031C36.0428 40.536 36.5242 36.5877 37.0987 31.8291ZM31.6475 30.1552C31.2396 29.4573 30.4512 28.8545 29.6878 28.6568C29.2918 28.5542 28.5019 28.5558 28.1124 28.6601C27.3672 28.8595 26.5784 29.469 26.1773 30.1552C25.4173 31.4554 25.6624 33.139 26.7603 34.1595C27.5653 34.9078 28.6503 35.1903 29.6851 34.9212C30.7436 34.6458 31.5465 33.8864 31.9196 32.8079C32.2214 31.9354 32.1221 30.9671 31.6475 30.1552ZM30.0777 35.981C29.6536 36.1161 28.4531 36.1502 28.0057 36.0397C27.8151 35.9926 27.6105 35.9399 27.5512 35.9226C27.4491 35.8929 27.4441 35.9124 27.4575 36.2876C27.487 37.1145 27.5793 40.3272 27.5792 40.5218L27.5792 40.5623C27.5791 40.6522 27.652 40.7252 27.7419 40.7252H28.9124H30.0849C30.174 40.7252 30.2465 40.6535 30.2476 40.5644L30.2503 40.3319C30.2529 40.1156 30.2838 39.0355 30.3191 37.9316C30.3544 36.8277 30.3787 35.9168 30.3731 35.9073C30.3675 35.8978 30.2345 35.9309 30.0777 35.981Z" fill="#D0A2F7"/>
<rect x="11.4375" y="10.9375" width="34.3909" height="34.3909" rx="7.53996" fill="#D4D4D4" fill-opacity="0.1"/>
<rect x="11.4646" y="10.9646" width="34.3367" height="34.3367" rx="7.51284" stroke="url(#paint0_linear_495_4566)" stroke-opacity="0.5" stroke-width="0.0542443" stroke-linecap="round"/>
<defs>
<filter id="filter0_b_495_4566" x="-11.8426" y="-12.3426" width="80.6853" height="80.6853" filterUnits="userSpaceOnUse" color-interpolation-filters="sRGB">
<feFlood flood-opacity="0" result="BackgroundImageFix"/>
<feGaussianBlur in="BackgroundImageFix" stdDeviation="6.17131"/>
<feComposite in2="SourceAlpha" operator="in" result="effect1_backgroundBlur_495_4566"/>
<feBlend mode="normal" in="SourceGraphic" in2="effect1_backgroundBlur_495_4566" result="shape"/>
</filter>
<linearGradient id="paint0_linear_495_4566" x1="11.33" y1="11.045" x2="28.5255" y2="28.2404" gradientUnits="userSpaceOnUse">
<stop stop-color="white" stop-opacity="0.5"/>
<stop offset="1" stop-color="white" stop-opacity="0.1"/>
</linearGradient>
</defs>
</svg>
