<svg width="43" height="43" viewBox="0 0 43 43" fill="none" xmlns="http://www.w3.org/2000/svg">
<g filter="url(#filter0_b_453_6684)">
<path fill-rule="evenodd" clip-rule="evenodd" d="M0.597656 21.6232C0.597656 9.96795 10.0461 0.519531 21.7013 0.519531C33.3565 0.519531 42.8049 9.96795 42.8049 21.6232C42.8049 33.2784 33.3565 42.7268 21.7013 42.7268C10.0461 42.7268 0.597656 33.2784 0.597656 21.6232Z" fill="#D4D4D4" fill-opacity="0.1"/>
<path d="M1.00877 21.6232C1.00877 10.195 10.2731 0.930641 21.7013 0.930641C33.1295 0.930641 42.3938 10.195 42.3938 21.6232C42.3938 33.0513 33.1295 42.3157 21.7013 42.3157C10.2731 42.3157 1.00877 33.0513 1.00877 21.6232Z" stroke="url(#paint0_linear_453_6684)" stroke-opacity="0.5" stroke-width="0.822219" stroke-linecap="round"/>
</g>
<g filter="url(#filter1_b_453_6684)">
<path d="M32.6939 21.6243C32.6939 15.557 27.7697 10.6328 21.7024 10.6328C15.6351 10.6328 10.7109 15.557 10.7109 21.6243C10.7109 26.9442 14.492 31.3737 19.5041 32.3959V24.9217H17.3058V21.6243H19.5041V18.8764C19.5041 16.7551 21.2298 15.0294 23.3511 15.0294H26.099V18.3268H23.9007C23.2962 18.3268 22.8016 18.8215 22.8016 19.426V21.6243H26.099V24.9217H22.8016V32.5608C28.3523 32.0112 32.6939 27.3289 32.6939 21.6243Z" fill="url(#paint1_linear_453_6684)"/>
</g>
<defs>
<filter id="filter0_b_453_6684" x="-18.5875" y="-18.6656" width="80.5773" height="80.5773" filterUnits="userSpaceOnUse" color-interpolation-filters="sRGB">
<feFlood flood-opacity="0" result="BackgroundImageFix"/>
<feGaussianBlur in="BackgroundImageFix" stdDeviation="9.59256"/>
<feComposite in2="SourceAlpha" operator="in" result="effect1_backgroundBlur_453_6684"/>
<feBlend mode="normal" in="SourceGraphic" in2="effect1_backgroundBlur_453_6684" result="shape"/>
</filter>
<filter id="filter1_b_453_6684" x="-8.47418" y="-8.55231" width="60.3546" height="60.298" filterUnits="userSpaceOnUse" color-interpolation-filters="sRGB">
<feFlood flood-opacity="0" result="BackgroundImageFix"/>
<feGaussianBlur in="BackgroundImageFix" stdDeviation="9.59256"/>
<feComposite in2="SourceAlpha" operator="in" result="effect1_backgroundBlur_453_6684"/>
<feBlend mode="normal" in="SourceGraphic" in2="effect1_backgroundBlur_453_6684" result="shape"/>
</filter>
<linearGradient id="paint0_linear_453_6684" x1="0.465759" y1="0.651429" x2="21.5694" y2="21.7551" gradientUnits="userSpaceOnUse">
<stop stop-color="white" stop-opacity="0.5"/>
<stop offset="1" stop-color="white" stop-opacity="0.1"/>
</linearGradient>
<linearGradient id="paint1_linear_453_6684" x1="10.6422" y1="10.7013" x2="30.1268" y2="34.8395" gradientUnits="userSpaceOnUse">
<stop stop-color="#F5EDFD"/>
<stop offset="1" stop-color="#F5EDFD" stop-opacity="0.2"/>
</linearGradient>
</defs>
</svg>
