<svg width="48" height="48" viewBox="0 0 48 48" fill="none" xmlns="http://www.w3.org/2000/svg">
<path d="M47.9428 23.5326C47.9428 10.5643 37.4299 0.0514565 24.4616 0.0514565C11.4933 0.0514565 0.980469 10.5643 0.980469 23.5326C0.980469 35.2527 9.56719 44.967 20.7927 46.7285V30.3201H14.8307V23.5326H20.7927V18.3594C20.7927 12.4745 24.2983 9.22379 29.6619 9.22379C32.2309 9.22379 34.9181 9.6824 34.9181 9.6824V15.461H31.9572C29.0402 15.461 28.1306 17.271 28.1306 19.1279V23.5326H34.6429L33.6018 30.3201H28.1306V46.7285C39.3561 44.967 47.9428 35.2527 47.9428 23.5326Z" fill="#1877F2"/>
<path d="M33.5993 30.32L34.6404 23.5325H28.128V19.1278C28.128 17.2709 29.0377 15.4609 31.9546 15.4609H34.9155V9.6823C34.9155 9.6823 32.2284 9.22369 29.6593 9.22369C24.2957 9.22369 20.7901 12.4744 20.7901 18.3593V23.5325H14.8281V30.32H20.7901V46.7284C21.9856 46.916 23.2109 47.0137 24.4591 47.0137C25.7072 47.0137 26.9325 46.916 28.128 46.7284V30.32H33.5993Z" fill="white"/>
</svg>
