<svg width="80" height="80" viewBox="0 0 80 80" fill="none" xmlns="http://www.w3.org/2000/svg">
<g filter="url(#filter0_d_428_3289)">
<circle cx="40" cy="40" r="32" fill="#D0A2F7"/>
<path d="M41.3664 35.205V42.5633C41.4037 42.8434 41.3103 43.1422 41.0956 43.3383C41.0092 43.4249 40.9066 43.4936 40.7936 43.5404C40.6806 43.5873 40.5595 43.6114 40.4372 43.6114C40.3149 43.6114 40.1938 43.5873 40.0809 43.5404C39.9679 43.4936 39.8653 43.4249 39.7789 43.3383L37.902 41.4614C37.8002 41.3618 37.7228 41.24 37.6758 41.1056C37.6288 40.9712 37.6136 40.8277 37.6312 40.6864V35.205H37.6032L32.2245 28.3135C32.0728 28.1189 32.0044 27.8721 32.0342 27.6271C32.0639 27.3822 32.1894 27.1589 32.3832 27.0062C32.5606 26.8755 32.7567 26.8008 32.9622 26.8008H46.0353C46.2408 26.8008 46.4369 26.8755 46.6143 27.0062C46.8081 27.1589 46.9336 27.3822 46.9634 27.6271C46.9931 27.8721 46.9247 28.1189 46.773 28.3135L41.3944 35.205H41.3664Z" fill="#0D0D0D"/>
<path d="M23.8964 55.4102V47.4542H29.1967V48.5636H25.1515V50.9391H28.5356V51.9813H25.1515V55.4102H23.8964ZM30.2287 55.4102V49.5496H31.4613V55.4102H30.2287ZM30.2287 48.586V47.2301H31.4613V48.586H30.2287ZM32.9538 47.2301H34.1864V53.7181C34.1864 54.0169 34.2312 54.2074 34.3209 54.2896C34.4105 54.3718 34.5226 54.4129 34.657 54.4129C34.8064 54.4129 34.9446 54.3979 35.0716 54.368C35.2061 54.3382 35.3219 54.3008 35.419 54.256L35.5983 55.2309C35.419 55.3056 35.2061 55.3691 34.9596 55.4214C34.7131 55.4737 34.4927 55.4998 34.2985 55.4998C33.8801 55.4998 33.5514 55.384 33.3124 55.1524C33.0733 54.9134 32.9538 54.5847 32.9538 54.1663V47.2301ZM39.541 55.1076C39.4364 55.1599 39.3057 55.2159 39.1488 55.2757C38.9919 55.3355 38.8126 55.3877 38.6109 55.4326C38.4167 55.4774 38.215 55.4998 38.0058 55.4998C37.7518 55.4998 37.5165 55.455 37.2999 55.3653C37.0832 55.2757 36.9077 55.1338 36.7732 54.9395C36.6462 54.7378 36.5827 54.4801 36.5827 54.1663V50.5021H35.8095V49.5496H36.5827V47.6223H37.8153V49.5496H39.0928V50.5021H37.8153V53.7741C37.8303 53.9758 37.8938 54.1253 38.0058 54.2224C38.1254 54.3195 38.271 54.368 38.4429 54.368C38.6147 54.368 38.779 54.3382 38.9359 54.2784C39.0928 54.2186 39.2086 54.1701 39.2833 54.1327L39.541 55.1076ZM42.9738 55.5222C42.5182 55.5222 42.1035 55.4438 41.73 55.2869C41.364 55.1225 41.0465 54.9022 40.7776 54.6258C40.5086 54.3419 40.2995 54.0207 40.15 53.6621C40.0081 53.296 39.9371 52.9076 39.9371 52.4967C39.9371 51.9439 40.0641 51.4396 40.3181 50.984C40.5721 50.5208 40.927 50.151 41.3827 49.8746C41.8384 49.5907 42.3725 49.4488 42.9851 49.4488C43.5976 49.4488 44.1243 49.5907 44.565 49.8746C45.0133 50.151 45.3606 50.5171 45.6072 50.9727C45.8537 51.4284 45.9769 51.9178 45.9769 52.4407C45.9769 52.5303 45.9732 52.6162 45.9657 52.6984C45.9583 52.7731 45.9508 52.8366 45.9433 52.8889H41.2482C41.2706 53.2325 41.364 53.5351 41.5283 53.7966C41.7001 54.0505 41.9168 54.2522 42.1783 54.4017C42.4397 54.5436 42.7199 54.6146 43.0187 54.6146C43.3474 54.6146 43.6574 54.5324 43.9487 54.368C44.2475 54.2037 44.4492 53.987 44.5538 53.7181L45.6072 54.0207C45.4802 54.3045 45.2859 54.5623 45.0245 54.7938C44.7705 55.018 44.4679 55.1973 44.1168 55.3317C43.7657 55.4587 43.3847 55.5222 42.9738 55.5222ZM41.2146 52.0709H44.7555C44.7331 51.7347 44.636 51.4396 44.4642 51.1857C44.2998 50.9242 44.0869 50.7225 43.8255 50.5806C43.5715 50.4311 43.2876 50.3564 42.9738 50.3564C42.6676 50.3564 42.3837 50.4311 42.1222 50.5806C41.8682 50.7225 41.6591 50.9242 41.4947 51.1857C41.3304 51.4396 41.237 51.7347 41.2146 52.0709ZM50.2768 50.6142C49.7987 50.6216 49.3729 50.73 48.9994 50.9391C48.6333 51.1483 48.3719 51.4434 48.215 51.8244V55.4102H46.9824V49.5496H48.1253V50.8607C48.327 50.4573 48.5922 50.1361 48.9209 49.897C49.2496 49.6505 49.597 49.516 49.9631 49.4936C50.0378 49.4936 50.0975 49.4936 50.1424 49.4936C50.1946 49.4936 50.2395 49.4973 50.2768 49.5048V50.6142ZM53.2578 55.5222C52.7647 55.5222 52.2978 55.4438 51.8571 55.2869C51.4163 55.1225 51.0391 54.8798 50.7253 54.5585L51.1847 53.7293C51.5209 54.0281 51.8571 54.2448 52.1932 54.3792C52.5369 54.5137 52.8768 54.5809 53.2129 54.5809C53.5566 54.5809 53.8367 54.5174 54.0534 54.3904C54.27 54.256 54.3783 54.0618 54.3783 53.8078C54.3783 53.621 54.3223 53.4828 54.2102 53.3932C54.0982 53.3035 53.9338 53.2251 53.7172 53.1578C53.508 53.0906 53.254 53.0159 52.9552 52.9337C52.5369 52.8067 52.1858 52.676 51.9019 52.5415C51.618 52.3996 51.4051 52.2278 51.2632 52.0261C51.1212 51.8244 51.0503 51.5666 51.0503 51.2529C51.0503 50.8719 51.1474 50.5469 51.3416 50.278C51.5358 50.0091 51.8048 49.8036 52.1484 49.6617C52.4995 49.5198 52.9029 49.4488 53.3586 49.4488C53.7844 49.4488 54.1766 49.516 54.5352 49.6505C54.9012 49.7775 55.2225 49.9792 55.4989 50.2556L54.9722 51.0736C54.7108 50.8345 54.4418 50.659 54.1654 50.5469C53.8965 50.4349 53.6051 50.3789 53.2914 50.3789C53.1121 50.3789 52.9403 50.4013 52.7759 50.4461C52.6116 50.4834 52.4734 50.5581 52.3613 50.6702C52.2567 50.7748 52.2044 50.9242 52.2044 51.1184C52.2044 51.2753 52.2493 51.4023 52.3389 51.4994C52.4286 51.5965 52.563 51.6787 52.7423 51.7459C52.9216 51.8132 53.142 51.8879 53.4034 51.97C53.8591 52.1045 54.2476 52.239 54.5688 52.3734C54.89 52.5004 55.1366 52.6685 55.3084 52.8777C55.4877 53.0794 55.5773 53.3595 55.5773 53.7181C55.5773 54.2859 55.3644 54.7304 54.9386 55.0516C54.5203 55.3653 53.96 55.5222 53.2578 55.5222Z" fill="#0D0D0D"/>
</g>
<defs>
<filter id="filter0_d_428_3289" x="0" y="0" width="80" height="80" filterUnits="userSpaceOnUse" color-interpolation-filters="sRGB">
<feFlood flood-opacity="0" result="BackgroundImageFix"/>
<feColorMatrix in="SourceAlpha" type="matrix" values="0 0 0 0 0 0 0 0 0 0 0 0 0 0 0 0 0 0 127 0" result="hardAlpha"/>
<feOffset/>
<feGaussianBlur stdDeviation="4"/>
<feComposite in2="hardAlpha" operator="out"/>
<feColorMatrix type="matrix" values="0 0 0 0 0.815686 0 0 0 0 0.635294 0 0 0 0 0.968627 0 0 0 0.5 0"/>
<feBlend mode="normal" in2="BackgroundImageFix" result="effect1_dropShadow_428_3289"/>
<feBlend mode="normal" in="SourceGraphic" in2="effect1_dropShadow_428_3289" result="shape"/>
</filter>
</defs>
</svg>
