<svg width="214" height="13" viewBox="0 0 214 13" fill="none" xmlns="http://www.w3.org/2000/svg">
<path d="M0.40575 12V0.719999H7.57375V2.064H2.06975V5.664H7.23775V7.008H2.06975V12H0.40575ZM11.6856 12.144C11.0563 12.144 10.5283 12.0267 10.1016 11.792C9.68563 11.5573 9.37096 11.2107 9.15763 10.752C8.95496 10.2827 8.85363 9.696 8.85363 8.992V4.192H10.4696V9.008C10.4696 9.424 10.523 9.77067 10.6296 10.048C10.747 10.3253 10.923 10.528 11.1576 10.656C11.403 10.784 11.707 10.848 12.0696 10.848C12.475 10.848 12.8323 10.7573 13.1416 10.576C13.451 10.3947 13.691 10.1333 13.8616 9.792C14.0323 9.45067 14.1176 9.056 14.1176 8.608V4.192H15.7336V12H14.1656V10.288H14.3736C14.1603 10.8853 13.819 11.344 13.3496 11.664C12.8803 11.984 12.3256 12.144 11.6856 12.144ZM18.011 12V4.192H19.579V5.856H19.403C19.6377 5.25867 20.0057 4.81067 20.507 4.512C21.0083 4.20267 21.5843 4.048 22.235 4.048C22.8537 4.048 23.3657 4.16533 23.771 4.4C24.187 4.624 24.4963 4.97067 24.699 5.44C24.9017 5.89867 25.003 6.48 25.003 7.184V12H23.387V7.28C23.387 6.832 23.3283 6.46933 23.211 6.192C23.0937 5.904 22.9177 5.69067 22.683 5.552C22.4483 5.41333 22.1443 5.344 21.771 5.344C21.3443 5.344 20.9657 5.43467 20.635 5.616C20.315 5.79733 20.0643 6.05867 19.883 6.4C19.7123 6.74133 19.627 7.136 19.627 7.584V12H18.011ZM38.692 10.592C38.1693 10.592 37.6893 10.4693 37.252 10.224C36.8147 9.968 36.4627 9.62667 36.196 9.2C35.9293 8.77333 35.796 8.29333 35.796 7.76C35.796 7.26933 35.9187 6.81067 36.164 6.384C36.42 5.94667 36.7667 5.59467 37.204 5.328C37.6413 5.05067 38.1373 4.912 38.692 4.912C39.204 4.912 39.6787 5.03467 40.116 5.28C40.564 5.52533 40.9213 5.86667 41.188 6.304C41.4547 6.73067 41.588 7.216 41.588 7.76C41.588 8.28267 41.4547 8.75733 41.188 9.184C40.932 9.61067 40.5853 9.952 40.148 10.208C39.7107 10.464 39.2253 10.592 38.692 10.592ZM52.6409 12V0.719999H54.0329L58.4649 8.976H57.9689L62.3689 0.719999H63.7289V12H62.2409V3.072H62.5929L58.7049 10.272H57.6969L53.7609 3.056H54.1449V12H52.6409ZM69.8781 12.144C69.0248 12.144 68.2888 11.984 67.6701 11.664C67.0621 11.3333 66.5875 10.8693 66.2461 10.272C65.9155 9.664 65.7501 8.944 65.7501 8.112C65.7501 7.30133 65.9155 6.592 66.2461 5.984C66.5768 5.376 67.0301 4.90133 67.6061 4.56C68.1821 4.21867 68.8381 4.048 69.5741 4.048C70.2995 4.048 70.9181 4.208 71.4301 4.528C71.9528 4.83733 72.3528 5.28 72.6301 5.856C72.9075 6.432 73.0461 7.12 73.0461 7.92V8.464H67.0301V7.472H71.9581L71.6861 7.696C71.6861 6.896 71.5101 6.27733 71.1581 5.84C70.8061 5.40267 70.2995 5.184 69.6381 5.184C69.1368 5.184 68.7101 5.30133 68.3581 5.536C68.0168 5.77067 67.7555 6.096 67.5741 6.512C67.3928 6.928 67.3021 7.41333 67.3021 7.968V8.064C67.3021 8.68267 67.3981 9.20533 67.5901 9.632C67.7928 10.048 68.0861 10.3627 68.4701 10.576C68.8541 10.7893 69.3288 10.896 69.8941 10.896C70.3421 10.896 70.7795 10.8267 71.2061 10.688C71.6435 10.5387 72.0541 10.3093 72.4381 10L72.9181 11.12C72.5661 11.44 72.1128 11.6907 71.5581 11.872C71.0035 12.0533 70.4435 12.144 69.8781 12.144ZM74.8399 12V4.192H76.4079V5.856H76.2319C76.3705 5.472 76.5625 5.14667 76.8079 4.88C77.0532 4.61333 77.3465 4.41067 77.6879 4.272C78.0399 4.12267 78.4239 4.048 78.8399 4.048C79.4905 4.048 80.0185 4.20267 80.4239 4.512C80.8292 4.82133 81.1065 5.296 81.2559 5.936H81.0319C81.2345 5.34933 81.5812 4.89067 82.0719 4.56C82.5625 4.21867 83.1332 4.048 83.7839 4.048C84.3812 4.048 84.8719 4.16533 85.2559 4.4C85.6399 4.624 85.9279 4.97067 86.1199 5.44C86.3119 5.89867 86.4079 6.48 86.4079 7.184V12H84.7919V7.264C84.7919 6.60267 84.6745 6.11733 84.4399 5.808C84.2159 5.49867 83.8425 5.344 83.3199 5.344C82.9359 5.344 82.5999 5.43467 82.3119 5.616C82.0239 5.79733 81.7999 6.064 81.6399 6.416C81.4905 6.75733 81.4159 7.16267 81.4159 7.632V12H79.7999V7.264C79.7999 6.60267 79.6879 6.11733 79.4639 5.808C79.2399 5.49867 78.8665 5.344 78.3439 5.344C77.9492 5.344 77.6079 5.43467 77.3199 5.616C77.0425 5.79733 76.8292 6.064 76.6799 6.416C76.5305 6.75733 76.4559 7.16267 76.4559 7.632V12H74.8399ZM92.0593 12.144C91.2699 12.144 90.5873 11.9787 90.0113 11.648C89.4459 11.3173 89.0033 10.848 88.6833 10.24C88.3633 9.632 88.2033 8.91733 88.2033 8.096C88.2033 7.264 88.3633 6.54933 88.6833 5.952C89.0033 5.344 89.4459 4.87467 90.0113 4.544C90.5873 4.21333 91.2699 4.048 92.0593 4.048C92.8379 4.048 93.5099 4.21333 94.0753 4.544C94.6513 4.87467 95.0993 5.344 95.4193 5.952C95.7393 6.56 95.8993 7.27467 95.8993 8.096C95.8993 8.91733 95.7393 9.632 95.4193 10.24C95.0993 10.848 94.6513 11.3173 94.0753 11.648C93.5099 11.9787 92.8379 12.144 92.0593 12.144ZM92.0433 10.896C92.7153 10.896 93.2539 10.656 93.6593 10.176C94.0646 9.696 94.2673 9.00267 94.2673 8.096C94.2673 7.17867 94.0646 6.48533 93.6593 6.016C93.2539 5.54667 92.7153 5.312 92.0433 5.312C91.3819 5.312 90.8486 5.54667 90.4433 6.016C90.0379 6.48533 89.8353 7.17867 89.8353 8.096C89.8353 9.00267 90.0379 9.696 90.4433 10.176C90.8486 10.656 91.3819 10.896 92.0433 10.896ZM97.7141 12V4.192H99.2821V6.064H99.1221C99.2928 5.424 99.5968 4.93867 100.034 4.608C100.482 4.27733 101.074 4.08533 101.81 4.032L102.338 4L102.45 5.376L101.474 5.472C100.781 5.536 100.253 5.75467 99.8901 6.128C99.5275 6.50133 99.3461 7.01333 99.3461 7.664V12H97.7141ZM103.539 2.384V0.704H105.427V2.384H103.539ZM103.683 12V4.192H105.299V12H103.683ZM111.238 12.144C110.384 12.144 109.648 11.984 109.03 11.664C108.422 11.3333 107.947 10.8693 107.606 10.272C107.275 9.664 107.11 8.944 107.11 8.112C107.11 7.30133 107.275 6.592 107.606 5.984C107.936 5.376 108.39 4.90133 108.966 4.56C109.542 4.21867 110.198 4.048 110.934 4.048C111.659 4.048 112.278 4.208 112.79 4.528C113.312 4.83733 113.712 5.28 113.99 5.856C114.267 6.432 114.406 7.12 114.406 7.92V8.464H108.39V7.472H113.318L113.046 7.696C113.046 6.896 112.87 6.27733 112.518 5.84C112.166 5.40267 111.659 5.184 110.998 5.184C110.496 5.184 110.07 5.30133 109.718 5.536C109.376 5.77067 109.115 6.096 108.934 6.512C108.752 6.928 108.662 7.41333 108.662 7.968V8.064C108.662 8.68267 108.758 9.20533 108.95 9.632C109.152 10.048 109.446 10.3627 109.83 10.576C110.214 10.7893 110.688 10.896 111.254 10.896C111.702 10.896 112.139 10.8267 112.566 10.688C113.003 10.5387 113.414 10.3093 113.798 10L114.278 11.12C113.926 11.44 113.472 11.6907 112.918 11.872C112.363 12.0533 111.803 12.144 111.238 12.144ZM118.903 12.144C118.487 12.144 118.082 12.1067 117.687 12.032C117.293 11.9573 116.93 11.8507 116.599 11.712C116.269 11.5733 115.975 11.4027 115.719 11.2L116.183 10.112C116.45 10.2933 116.733 10.4533 117.031 10.592C117.33 10.72 117.639 10.816 117.959 10.88C118.29 10.944 118.61 10.976 118.919 10.976C119.485 10.976 119.911 10.8747 120.199 10.672C120.487 10.4693 120.631 10.1973 120.631 9.856C120.631 9.57867 120.535 9.36533 120.343 9.216C120.151 9.056 119.863 8.93333 119.479 8.848L117.959 8.544C117.298 8.40533 116.797 8.16 116.455 7.808C116.114 7.456 115.943 7.008 115.943 6.464C115.943 5.97333 116.077 5.54667 116.343 5.184C116.61 4.82133 116.983 4.544 117.463 4.352C117.943 4.14933 118.498 4.048 119.127 4.048C119.49 4.048 119.842 4.08533 120.183 4.16C120.525 4.23467 120.845 4.34133 121.143 4.48C121.453 4.61867 121.714 4.79467 121.927 5.008L121.463 6.096C121.261 5.91467 121.026 5.76 120.759 5.632C120.503 5.504 120.237 5.408 119.959 5.344C119.682 5.26933 119.405 5.232 119.127 5.232C118.562 5.232 118.135 5.33867 117.847 5.552C117.57 5.75467 117.431 6.032 117.431 6.384C117.431 6.65067 117.517 6.86933 117.687 7.04C117.858 7.21067 118.125 7.33333 118.487 7.408L120.007 7.712C120.701 7.85067 121.223 8.08533 121.575 8.416C121.938 8.74667 122.119 9.19467 122.119 9.76C122.119 10.2507 121.986 10.6773 121.719 11.04C121.453 11.4027 121.074 11.68 120.583 11.872C120.103 12.0533 119.543 12.144 118.903 12.144ZM135.38 10.592C134.857 10.592 134.377 10.4693 133.94 10.224C133.502 9.968 133.15 9.62667 132.884 9.2C132.617 8.77333 132.484 8.29333 132.484 7.76C132.484 7.26933 132.606 6.81067 132.852 6.384C133.108 5.94667 133.454 5.59467 133.892 5.328C134.329 5.05067 134.825 4.912 135.38 4.912C135.892 4.912 136.366 5.03467 136.804 5.28C137.252 5.52533 137.609 5.86667 137.876 6.304C138.142 6.73067 138.276 7.216 138.276 7.76C138.276 8.28267 138.142 8.75733 137.876 9.184C137.62 9.61067 137.273 9.952 136.836 10.208C136.398 10.464 135.913 10.592 135.38 10.592ZM149.328 12V0.719999H150.72L155.152 8.976H154.656L159.056 0.719999H160.416V12H158.928V3.072H159.28L155.392 10.272H154.384L150.448 3.056H150.832V12H149.328ZM166.566 12.144C165.712 12.144 164.976 11.984 164.358 11.664C163.75 11.3333 163.275 10.8693 162.934 10.272C162.603 9.664 162.438 8.944 162.438 8.112C162.438 7.30133 162.603 6.592 162.934 5.984C163.264 5.376 163.718 4.90133 164.294 4.56C164.87 4.21867 165.526 4.048 166.262 4.048C166.987 4.048 167.606 4.208 168.118 4.528C168.64 4.83733 169.04 5.28 169.318 5.856C169.595 6.432 169.734 7.12 169.734 7.92V8.464H163.718V7.472H168.646L168.374 7.696C168.374 6.896 168.198 6.27733 167.846 5.84C167.494 5.40267 166.987 5.184 166.326 5.184C165.824 5.184 165.398 5.30133 165.046 5.536C164.704 5.77067 164.443 6.096 164.262 6.512C164.08 6.928 163.99 7.41333 163.99 7.968V8.064C163.99 8.68267 164.086 9.20533 164.278 9.632C164.48 10.048 164.774 10.3627 165.158 10.576C165.542 10.7893 166.016 10.896 166.582 10.896C167.03 10.896 167.467 10.8267 167.894 10.688C168.331 10.5387 168.742 10.3093 169.126 10L169.606 11.12C169.254 11.44 168.8 11.6907 168.246 11.872C167.691 12.0533 167.131 12.144 166.566 12.144ZM174.039 12.144C173.186 12.144 172.546 11.904 172.119 11.424C171.703 10.9333 171.495 10.2293 171.495 9.312V0.719999H173.111V9.216C173.111 9.55733 173.159 9.85067 173.255 10.096C173.351 10.3307 173.495 10.5067 173.687 10.624C173.879 10.7413 174.119 10.8 174.407 10.8C174.535 10.8 174.658 10.7947 174.775 10.784C174.893 10.7733 175.005 10.752 175.111 10.72L175.079 12.016C174.898 12.0587 174.722 12.0907 174.551 12.112C174.381 12.1333 174.21 12.144 174.039 12.144ZM179.7 12.144C178.911 12.144 178.228 11.9787 177.652 11.648C177.087 11.3173 176.644 10.848 176.324 10.24C176.004 9.632 175.844 8.91733 175.844 8.096C175.844 7.264 176.004 6.54933 176.324 5.952C176.644 5.344 177.087 4.87467 177.652 4.544C178.228 4.21333 178.911 4.048 179.7 4.048C180.479 4.048 181.151 4.21333 181.716 4.544C182.292 4.87467 182.74 5.344 183.06 5.952C183.38 6.56 183.54 7.27467 183.54 8.096C183.54 8.91733 183.38 9.632 183.06 10.24C182.74 10.848 182.292 11.3173 181.716 11.648C181.151 11.9787 180.479 12.144 179.7 12.144ZM179.684 10.896C180.356 10.896 180.895 10.656 181.3 10.176C181.705 9.696 181.908 9.00267 181.908 8.096C181.908 7.17867 181.705 6.48533 181.3 6.016C180.895 5.54667 180.356 5.312 179.684 5.312C179.023 5.312 178.489 5.54667 178.084 6.016C177.679 6.48533 177.476 7.17867 177.476 8.096C177.476 9.00267 177.679 9.696 178.084 10.176C178.489 10.656 179.023 10.896 179.684 10.896ZM188.331 12.144C187.648 12.144 187.045 11.984 186.523 11.664C186.011 11.3333 185.611 10.864 185.323 10.256C185.035 9.63733 184.891 8.91733 184.891 8.096C184.891 7.25333 185.035 6.53333 185.323 5.936C185.611 5.33867 186.011 4.87467 186.523 4.544C187.045 4.21333 187.648 4.048 188.331 4.048C189.013 4.048 189.6 4.21867 190.091 4.56C190.592 4.89067 190.928 5.33867 191.099 5.904H190.923V0.719999H192.539V12H190.955V10.24H191.115C190.944 10.816 190.608 11.28 190.107 11.632C189.616 11.9733 189.024 12.144 188.331 12.144ZM188.747 10.896C189.408 10.896 189.941 10.656 190.347 10.176C190.752 9.696 190.955 9.00267 190.955 8.096C190.955 7.17867 190.752 6.48533 190.347 6.016C189.941 5.54667 189.408 5.312 188.747 5.312C188.075 5.312 187.536 5.54667 187.131 6.016C186.725 6.48533 186.523 7.17867 186.523 8.096C186.523 9.00267 186.725 9.696 187.131 10.176C187.536 10.656 188.075 10.896 188.747 10.896ZM194.664 2.384V0.704H196.552V2.384H194.664ZM194.808 12V4.192H196.424V12H194.808ZM202.363 12.144C201.509 12.144 200.773 11.984 200.155 11.664C199.547 11.3333 199.072 10.8693 198.731 10.272C198.4 9.664 198.235 8.944 198.235 8.112C198.235 7.30133 198.4 6.592 198.731 5.984C199.061 5.376 199.515 4.90133 200.091 4.56C200.667 4.21867 201.323 4.048 202.059 4.048C202.784 4.048 203.403 4.208 203.915 4.528C204.437 4.83733 204.837 5.28 205.115 5.856C205.392 6.432 205.531 7.12 205.531 7.92V8.464H199.515V7.472H204.443L204.171 7.696C204.171 6.896 203.995 6.27733 203.643 5.84C203.291 5.40267 202.784 5.184 202.123 5.184C201.621 5.184 201.195 5.30133 200.843 5.536C200.501 5.77067 200.24 6.096 200.059 6.512C199.877 6.928 199.787 7.41333 199.787 7.968V8.064C199.787 8.68267 199.883 9.20533 200.075 9.632C200.277 10.048 200.571 10.3627 200.955 10.576C201.339 10.7893 201.813 10.896 202.379 10.896C202.827 10.896 203.264 10.8267 203.691 10.688C204.128 10.5387 204.539 10.3093 204.923 10L205.403 11.12C205.051 11.44 204.597 11.6907 204.043 11.872C203.488 12.0533 202.928 12.144 202.363 12.144ZM210.028 12.144C209.612 12.144 209.207 12.1067 208.812 12.032C208.418 11.9573 208.055 11.8507 207.724 11.712C207.394 11.5733 207.1 11.4027 206.844 11.2L207.308 10.112C207.575 10.2933 207.858 10.4533 208.156 10.592C208.455 10.72 208.764 10.816 209.084 10.88C209.415 10.944 209.735 10.976 210.044 10.976C210.61 10.976 211.036 10.8747 211.324 10.672C211.612 10.4693 211.756 10.1973 211.756 9.856C211.756 9.57867 211.66 9.36533 211.468 9.216C211.276 9.056 210.988 8.93333 210.604 8.848L209.084 8.544C208.423 8.40533 207.922 8.16 207.58 7.808C207.239 7.456 207.068 7.008 207.068 6.464C207.068 5.97333 207.202 5.54667 207.468 5.184C207.735 4.82133 208.108 4.544 208.588 4.352C209.068 4.14933 209.623 4.048 210.252 4.048C210.615 4.048 210.967 4.08533 211.308 4.16C211.65 4.23467 211.97 4.34133 212.268 4.48C212.578 4.61867 212.839 4.79467 213.052 5.008L212.588 6.096C212.386 5.91467 212.151 5.76 211.884 5.632C211.628 5.504 211.362 5.408 211.084 5.344C210.807 5.26933 210.53 5.232 210.252 5.232C209.687 5.232 209.26 5.33867 208.972 5.552C208.695 5.75467 208.556 6.032 208.556 6.384C208.556 6.65067 208.642 6.86933 208.812 7.04C208.983 7.21067 209.25 7.33333 209.612 7.408L211.132 7.712C211.826 7.85067 212.348 8.08533 212.7 8.416C213.063 8.74667 213.244 9.19467 213.244 9.76C213.244 10.2507 213.111 10.6773 212.844 11.04C212.578 11.4027 212.199 11.68 211.708 11.872C211.228 12.0533 210.668 12.144 210.028 12.144Z" fill="#D0A2F7"/>
</svg>
