<svg width="72" height="72" viewBox="0 0 72 72" fill="none" xmlns="http://www.w3.org/2000/svg">
<g clip-path="url(#clip0_518_2694)">
<g filter="url(#filter0_b_518_2694)">
<rect width="72" height="72" rx="1.92" fill="#23202E" fill-opacity="0.5"/>
</g>
<g clip-path="url(#clip1_518_2694)">
<g clip-path="url(#clip2_518_2694)">
<path d="M29.4881 49.2167L31.638 51.3665C32.7226 52.4429 34.4741 52.4401 35.5559 51.3582L51.8958 35.0184C52.9777 33.9365 52.9804 32.1851 51.9041 31.1004L49.7542 28.9506C48.9159 29.7889 47.8202 30.2095 46.7203 30.2164C45.6025 30.222 44.4847 29.8014 43.6353 28.952C42.7858 28.1025 42.3625 26.9819 42.3694 25.8655C42.3749 24.7643 42.7969 23.67 43.6353 22.8316L41.484 20.6803C40.398 19.6026 38.6466 19.6054 37.5647 20.6872L21.2248 37.0271C20.143 38.109 20.1402 39.8604 21.2179 40.9464L23.3678 43.0963C24.2062 42.2579 25.3005 41.836 26.4017 41.8304C27.5195 41.8249 28.6387 42.2469 29.4881 43.0963C30.3376 43.9457 30.7595 45.0649 30.7526 46.1814C30.7457 47.2812 30.3251 48.3769 29.4868 49.2153L29.4881 49.2167ZM23.8312 39.26L23.5615 38.9902L39.5278 23.0239L39.7976 23.2937C38.8112 25.9153 39.3743 28.9907 41.4854 31.1018C43.5965 33.213 46.6678 33.7746 49.2922 32.7882L49.5606 33.0566L33.5942 49.023L33.3258 48.7546C34.3122 46.133 33.7505 43.0589 31.6394 40.9478C29.5283 38.8367 26.4529 38.2736 23.8312 39.26Z" fill="#D0A2F7"/>
<path d="M33.5407 40.1677L32.4146 39.0415C32.1324 38.7593 32.1324 38.3 32.4146 38.0178L34.4109 36.0215L32.4146 34.0252C32.1324 33.7429 32.1324 33.2836 32.4146 33.0014L33.5407 31.8753C33.8229 31.5931 34.2822 31.5931 34.5645 31.8753L36.5608 33.8716L38.5571 31.8753C38.8393 31.5931 39.2986 31.5931 39.5808 31.8753L40.707 33.0014C40.9892 33.2836 40.9892 33.743 40.707 34.0252L38.7107 36.0215L40.707 38.0178C40.9892 38.3 40.9892 38.7593 40.707 39.0415L39.5808 40.1677C39.2986 40.4499 38.8393 40.4499 38.5571 40.1677L36.5608 38.1714L34.5645 40.1677C34.2822 40.4499 33.8229 40.4499 33.5407 40.1677Z" fill="#D0A2F7"/>
</g>
</g>
</g>
<rect x="0.5" y="0.5" width="71" height="71" rx="6.19767" stroke="url(#paint0_linear_518_2694)"/>
<defs>
<filter id="filter0_b_518_2694" x="-51.84" y="-51.84" width="175.68" height="175.68" filterUnits="userSpaceOnUse" color-interpolation-filters="sRGB">
<feFlood flood-opacity="0" result="BackgroundImageFix"/>
<feGaussianBlur in="BackgroundImageFix" stdDeviation="25.92"/>
<feComposite in2="SourceAlpha" operator="in" result="effect1_backgroundBlur_518_2694"/>
<feBlend mode="normal" in="SourceGraphic" in2="effect1_backgroundBlur_518_2694" result="shape"/>
</filter>
<linearGradient id="paint0_linear_518_2694" x1="-26.5" y1="-37" x2="72" y2="75.5" gradientUnits="userSpaceOnUse">
<stop stop-color="white" stop-opacity="0.49"/>
<stop offset="1" stop-color="white" stop-opacity="0.08"/>
</linearGradient>
<clipPath id="clip0_518_2694">
<rect width="72" height="72" rx="6.69767" fill="white"/>
</clipPath>
<clipPath id="clip1_518_2694">
<rect width="33.12" height="33.12" fill="white" transform="translate(20.1602 19.6797)"/>
</clipPath>
<clipPath id="clip2_518_2694">
<rect width="28.6606" height="20.2653" fill="white" transform="translate(19.2617 38.9902) rotate(-45)"/>
</clipPath>
</defs>
</svg>
