<svg width="131" height="125" viewBox="0 0 131 125" fill="none" xmlns="http://www.w3.org/2000/svg">
<path d="M8.67987 115.821C8.30412 115.821 7.85532 115.779 7.33345 115.696C6.83246 115.633 6.33147 115.477 5.83048 115.226C5.35036 114.955 4.9433 114.537 4.60931 113.974C4.27532 113.41 4.10832 112.648 4.10832 111.688V101.981H1.88517C1.48855 101.981 1.29024 101.783 1.29024 101.386C1.29024 101.177 1.38418 101 1.57205 100.854L5.83048 96.6893C5.87223 96.6476 5.93485 96.5954 6.01835 96.5328C6.12272 96.4493 6.23753 96.4075 6.36278 96.4075C6.52978 96.4075 6.66546 96.4701 6.76984 96.5954C6.89508 96.7206 6.95771 96.8667 6.95771 97.0337V99.5387H10.496C10.8508 99.5387 11.1431 99.6535 11.3727 99.8831C11.6023 100.113 11.7171 100.405 11.7171 100.76C11.7171 101.094 11.6023 101.386 11.3727 101.637C11.1431 101.866 10.8508 101.981 10.496 101.981H6.95771V111.437C6.95771 112.043 7.07252 112.481 7.30214 112.752C7.53176 113.024 7.80313 113.191 8.11625 113.253C8.45025 113.295 8.74249 113.316 8.99299 113.316C9.49398 113.316 9.85928 113.274 10.0889 113.191C10.3394 113.086 10.6003 113.034 10.8717 113.034C11.164 113.034 11.4249 113.139 11.6545 113.347C11.8841 113.556 11.9989 113.827 11.9989 114.161C11.9989 114.642 11.7589 115.007 11.2788 115.257C10.903 115.424 10.496 115.56 10.0576 115.664C9.6401 115.769 9.18086 115.821 8.67987 115.821ZM15.2126 99.4661C14.8468 99.4661 14.5333 99.3354 14.272 99.0742C14.0107 98.8129 13.8801 98.4994 13.8801 98.1336V98.0291C13.8801 97.6633 14.0107 97.3498 14.272 97.0885C14.5333 96.8273 14.8468 96.6966 15.2126 96.6966H15.3693C15.7351 96.6966 16.0486 96.8273 16.3099 97.0885C16.5711 97.3498 16.7018 97.6633 16.7018 98.0291V98.1336C16.7018 98.4994 16.5711 98.8129 16.3099 99.0742C16.0486 99.3354 15.7351 99.4661 15.3693 99.4661H15.2126ZM15.2648 115.638C14.9339 115.638 14.6552 115.525 14.4288 115.299C14.2023 115.072 14.0891 114.794 14.0891 114.463V103.254C14.0891 102.906 14.2023 102.619 14.4288 102.392C14.6552 102.166 14.9339 102.053 15.2648 102.053C15.6132 102.053 15.9006 102.166 16.127 102.392C16.3534 102.619 16.4666 102.906 16.4666 103.254V114.463C16.4666 114.794 16.3534 115.072 16.127 115.299C15.9006 115.525 15.6132 115.638 15.2648 115.638ZM26.2386 115.769C25.002 115.769 23.8524 115.499 22.7899 114.959C21.7274 114.402 20.8739 113.609 20.2295 112.582C19.585 111.537 19.2628 110.291 19.2628 108.846C19.2628 107.382 19.585 106.137 20.2295 105.109C20.8739 104.082 21.7274 103.298 22.7899 102.758C23.8524 102.201 25.002 101.922 26.2386 101.922C27.2663 101.922 28.1197 102.061 28.799 102.34C29.4957 102.601 30.0618 102.88 30.4973 103.176C30.8456 103.402 31.0198 103.707 31.0198 104.09C31.0198 104.334 30.924 104.569 30.7324 104.796C30.5408 105.022 30.3057 105.136 30.027 105.136C29.8354 105.136 29.6438 105.083 29.4522 104.979C28.9993 104.735 28.5552 104.535 28.1197 104.378C27.6843 104.221 27.1269 104.143 26.4476 104.143C24.9323 104.143 23.7479 104.578 22.8944 105.449C22.0584 106.32 21.6403 107.452 21.6403 108.846C21.6403 110.239 22.0584 111.371 22.8944 112.242C23.7479 113.113 24.9323 113.548 26.4476 113.548C27.1269 113.548 27.6843 113.47 28.1197 113.313C28.5552 113.139 28.9993 112.939 29.4522 112.712C29.6438 112.608 29.8354 112.556 30.027 112.556C30.3057 112.556 30.5408 112.669 30.7324 112.895C30.924 113.122 31.0198 113.357 31.0198 113.601C31.0198 113.984 30.8456 114.289 30.4973 114.515C30.0618 114.794 29.4957 115.072 28.799 115.351C28.1197 115.63 27.2663 115.769 26.2386 115.769ZM34.6567 115.638C34.3258 115.638 34.0471 115.525 33.8206 115.299C33.5942 115.072 33.481 114.794 33.481 114.463V97.5066C33.481 97.1756 33.5942 96.8969 33.8206 96.6705C34.0471 96.4267 34.3258 96.3047 34.6567 96.3047C34.9876 96.3047 35.2663 96.4267 35.4927 96.6705C35.7366 96.8969 35.8585 97.1756 35.8585 97.5066V108.192L42.0767 102.444C42.1812 102.357 42.2944 102.279 42.4163 102.209C42.5556 102.14 42.7037 102.105 42.8605 102.105C43.3133 102.105 43.6181 102.235 43.7749 102.497C43.9317 102.741 44.01 102.993 44.01 103.254C44.01 103.359 43.9839 103.49 43.9317 103.646C43.8794 103.786 43.7575 103.951 43.5659 104.143L39.8036 107.513L44.5326 113.783C44.7067 114.01 44.7938 114.245 44.7938 114.489C44.7938 114.837 44.6806 115.116 44.4542 115.325C44.2278 115.534 43.9404 115.638 43.592 115.638C43.2262 115.638 42.904 115.473 42.6253 115.142L38.1315 109.028L35.8585 111.092V114.463C35.8585 114.794 35.7366 115.072 35.4927 115.299C35.2663 115.525 34.9876 115.638 34.6567 115.638ZM52.9227 115.769C50.7977 115.769 49.1343 115.168 47.9325 113.966C46.7481 112.747 46.1559 111.04 46.1559 108.846C46.1559 107.661 46.3736 106.546 46.8091 105.501C47.2445 104.439 47.9238 103.577 48.8469 102.915C49.7701 102.253 50.9545 101.922 52.4002 101.922C53.7413 101.922 54.8735 102.235 55.7966 102.863C56.7198 103.472 57.4165 104.273 57.8867 105.266C58.3744 106.259 58.6183 107.339 58.6183 108.506C58.6183 108.837 58.5051 109.115 58.2786 109.342C58.0696 109.568 57.7822 109.682 57.4165 109.682H48.5595C48.6989 110.849 49.143 111.789 49.892 112.503C50.641 113.2 51.7209 113.548 53.1317 113.548C53.9155 113.548 54.5774 113.479 55.1173 113.339C55.6573 113.183 56.1711 112.982 56.6588 112.738C56.7981 112.669 56.9549 112.634 57.1291 112.634C57.4078 112.634 57.6516 112.73 57.8606 112.921C58.0696 113.113 58.1741 113.357 58.1741 113.653C58.1741 113.862 58.1045 114.053 57.9651 114.228C57.8432 114.384 57.6864 114.515 57.4948 114.62C56.9201 114.95 56.293 115.229 55.6137 115.456C54.9519 115.665 54.0548 115.769 52.9227 115.769ZM48.5595 107.748H56.2669C56.2146 106.842 55.9795 106.111 55.5615 105.554C55.1609 104.996 54.6732 104.587 54.0984 104.326C53.5236 104.064 52.9575 103.934 52.4002 103.934C51.8428 103.934 51.2767 104.064 50.7019 104.326C50.1271 104.587 49.6394 104.996 49.2388 105.554C48.8382 106.111 48.6118 106.842 48.5595 107.748ZM65.8399 115.769C65.5263 115.769 65.1519 115.734 64.7164 115.665C64.2984 115.612 63.8804 115.482 63.4623 115.273C63.0617 115.046 62.7221 114.698 62.4434 114.228C62.1647 113.757 62.0254 113.122 62.0254 112.32V104.221H60.1704C59.8394 104.221 59.674 104.056 59.674 103.725C59.674 103.551 59.7523 103.402 59.9091 103.281L63.4623 99.8057C63.4972 99.7709 63.5494 99.7273 63.6191 99.6751C63.7062 99.6054 63.802 99.5706 63.9065 99.5706C64.0458 99.5706 64.159 99.6228 64.2461 99.7273C64.3506 99.8318 64.4029 99.9538 64.4029 100.093V102.183H67.3552C67.6513 102.183 67.8952 102.279 68.0867 102.471C68.2783 102.662 68.3741 102.906 68.3741 103.202C68.3741 103.481 68.2783 103.725 68.0867 103.934C67.8952 104.125 67.6513 104.221 67.3552 104.221H64.4029V112.111C64.4029 112.616 64.4987 112.982 64.6903 113.209C64.8819 113.435 65.1083 113.574 65.3696 113.627C65.6483 113.662 65.8921 113.679 66.1011 113.679C66.5191 113.679 66.824 113.644 67.0156 113.574C67.2246 113.487 67.4423 113.444 67.6687 113.444C67.9126 113.444 68.1303 113.531 68.3219 113.705C68.5135 113.879 68.6093 114.106 68.6093 114.384C68.6093 114.785 68.409 115.09 68.0084 115.299C67.6948 115.438 67.3552 115.551 66.9894 115.638C66.6411 115.726 66.2579 115.769 65.8399 115.769ZM75.006 115.769C74.048 115.769 73.1772 115.665 72.3934 115.456C71.627 115.247 70.9128 114.959 70.251 114.593C69.9549 114.384 69.8068 114.097 69.8068 113.731C69.8068 113.47 69.9026 113.235 70.0942 113.026C70.2858 112.799 70.5297 112.686 70.8258 112.686C70.9825 112.686 71.1393 112.721 71.296 112.791C71.7663 113 72.2801 113.183 72.8375 113.339C73.4123 113.496 74.0829 113.574 74.8493 113.574C75.8595 113.574 76.591 113.418 77.0439 113.104C77.5142 112.773 77.7493 112.312 77.7493 111.719C77.7493 111.336 77.5577 111.04 77.1745 110.831C76.8088 110.622 76.3211 110.448 75.7114 110.309C75.1192 110.152 74.4922 109.995 73.8303 109.838C73.1684 109.664 72.5327 109.438 71.9231 109.159C71.3309 108.863 70.8432 108.471 70.46 107.983C70.0942 107.478 69.9113 106.834 69.9113 106.05C69.9113 104.866 70.3381 103.881 71.1915 103.098C72.045 102.314 73.3165 101.922 75.006 101.922C75.7201 101.922 76.3907 101.983 77.0178 102.105C77.6622 102.227 78.2544 102.384 78.7944 102.575C79.0382 102.645 79.2211 102.784 79.343 102.993C79.4824 103.185 79.5521 103.376 79.5521 103.568C79.5521 103.847 79.4475 104.09 79.2385 104.299C79.0469 104.508 78.8031 104.613 78.507 104.613C78.4373 104.613 78.3764 104.613 78.3241 104.613C78.2718 104.596 78.2196 104.578 78.1673 104.561C77.7493 104.421 77.2877 104.308 76.7826 104.221C76.2949 104.134 75.7637 104.09 75.1889 104.09C74.2309 104.09 73.4907 104.265 72.9681 104.613C72.4456 104.961 72.1843 105.397 72.1843 105.919C72.1843 106.372 72.3672 106.721 72.733 106.964C73.1162 107.208 73.6039 107.409 74.1961 107.565C74.8057 107.705 75.4415 107.853 76.1033 108.009C76.7826 108.166 77.4184 108.393 78.0106 108.689C78.6202 108.967 79.1079 109.359 79.4737 109.864C79.8569 110.37 80.0485 111.049 80.0485 111.902C80.0485 112.965 79.6217 113.879 78.7683 114.646C77.9322 115.395 76.6781 115.769 75.006 115.769Z" fill="#D0A2F7"/>
<path d="M107.369 115.535C106.376 115.535 105.532 115.308 104.836 114.856C104.139 114.386 103.608 113.759 103.243 112.975C102.877 112.192 102.694 111.339 102.694 110.416V103C102.694 102.669 102.807 102.39 103.034 102.164C103.277 101.938 103.565 101.825 103.895 101.825C104.226 101.825 104.505 101.938 104.731 102.164C104.957 102.39 105.071 102.669 105.071 103V110.155C105.071 111.147 105.297 111.931 105.75 112.505C106.202 113.062 106.933 113.341 107.943 113.341C108.883 113.341 109.702 113.089 110.398 112.584C111.094 112.061 111.704 111.478 112.226 110.834V103C112.226 102.669 112.339 102.39 112.565 102.164C112.809 101.938 113.096 101.825 113.427 101.825C113.758 101.825 114.037 101.938 114.263 102.164C114.489 102.39 114.602 102.669 114.602 103V114.203C114.602 114.534 114.489 114.821 114.263 115.065C114.037 115.291 113.758 115.404 113.427 115.404C113.096 115.404 112.809 115.291 112.565 115.065C112.339 114.821 112.226 114.534 112.226 114.203V113.132C111.686 113.724 111.033 114.272 110.267 114.777C109.501 115.282 108.535 115.535 107.369 115.535ZM124.17 115.535C122.046 115.535 120.383 114.934 119.182 113.733C117.998 112.514 117.406 110.808 117.406 108.614C117.406 107.43 117.624 106.316 118.059 105.272C118.494 104.21 119.173 103.348 120.096 102.686C121.019 102.025 122.203 101.694 123.648 101.694C124.988 101.694 126.12 102.007 127.043 102.634C127.965 103.243 128.662 104.044 129.132 105.037C129.619 106.029 129.863 107.108 129.863 108.275C129.863 108.606 129.75 108.884 129.523 109.11C129.314 109.337 129.027 109.45 128.662 109.45H119.809C119.948 110.616 120.392 111.556 121.141 112.27C121.889 112.967 122.969 113.315 124.379 113.315C125.162 113.315 125.824 113.245 126.364 113.106C126.903 112.949 127.417 112.749 127.904 112.505C128.044 112.436 128.2 112.401 128.374 112.401C128.653 112.401 128.897 112.497 129.106 112.688C129.314 112.88 129.419 113.123 129.419 113.419C129.419 113.628 129.349 113.82 129.21 113.994C129.088 114.151 128.931 114.281 128.74 114.386C128.165 114.716 127.539 114.995 126.86 115.221C126.198 115.43 125.302 115.535 124.17 115.535ZM119.809 107.517H127.513C127.46 106.612 127.225 105.881 126.808 105.324C126.407 104.767 125.92 104.358 125.345 104.097C124.771 103.835 124.205 103.705 123.648 103.705C123.091 103.705 122.525 103.835 121.95 104.097C121.376 104.358 120.888 104.767 120.488 105.324C120.087 105.881 119.861 106.612 119.809 107.517Z" fill="#D0A2F7"/>
<path d="M99.992 108.691C99.992 113.513 96.0859 117.421 91.2674 117.422H91.234V117.436H90.3731C90.0786 117.427 89.7853 117.477 89.5107 117.584C89.236 117.691 88.9856 117.851 88.7741 118.057C88.5627 118.262 88.3946 118.508 88.2799 118.779C88.1651 119.051 88.1059 119.343 88.1059 119.637C88.1059 119.932 88.1651 120.224 88.2799 120.495C88.3946 120.767 88.5627 121.013 88.7741 121.218C88.9856 121.423 89.236 121.584 89.5107 121.691C89.7853 121.797 90.0786 121.848 90.3731 121.839H123.545C123.883 121.839 124.208 121.974 124.447 122.213C124.687 122.453 124.821 122.777 124.821 123.116C124.821 123.455 124.687 123.78 124.447 124.019C124.208 124.259 123.883 124.393 123.545 124.393H90.2417C89.6349 124.394 89.034 124.274 88.4734 124.042C87.9127 123.809 87.4033 123.469 86.9742 123.039C86.5451 122.61 86.2047 122.1 85.9725 121.539C85.7403 120.978 85.6208 120.377 85.6208 119.77C85.6192 118.48 86.1283 117.243 87.0365 116.328C84.3566 114.838 82.543 111.977 82.543 108.691C82.543 103.869 86.4506 99.9609 91.2679 99.9609C96.0824 99.9604 99.992 103.873 99.992 108.691ZM85.0953 108.691C85.0953 112.102 87.8586 114.867 91.2674 114.867C94.6761 114.867 97.4394 112.102 97.4394 108.691C97.4394 105.28 94.6766 102.513 91.2679 102.513C87.8591 102.513 85.0958 105.28 85.0958 108.691H85.0953Z" fill="#D0A2F7"/>
<circle cx="127.879" cy="123.156" r="1.23798" fill="#D0A2F7"/>
<g clip-path="url(#clip0_497_3098)">
<path d="M42.172 21.1639C45.283 21.1639 47.805 18.6407 47.805 15.5282C47.805 12.4157 45.283 9.89258 42.172 9.89258C39.061 9.89258 36.5391 12.4157 36.5391 15.5282C36.5391 18.6407 39.061 21.1639 42.172 21.1639Z" fill="#D0A2F7"/>
<path d="M56.4121 19.7578C58.7474 19.7578 60.6405 17.8638 60.6405 15.5274C60.6405 13.1909 58.7474 11.2969 56.4121 11.2969C54.0767 11.2969 52.1836 13.1909 52.1836 15.5274C52.1836 17.8638 54.0767 19.7578 56.4121 19.7578Z" fill="#D0A2F7"/>
<path d="M17.5309 19.1395C19.5242 19.1395 21.14 17.5229 21.14 15.5287C21.14 13.5346 19.5242 11.918 17.5309 11.918C15.5377 11.918 13.9219 13.5346 13.9219 15.5287C13.9219 17.5229 15.5377 19.1395 17.5309 19.1395Z" fill="#D0A2F7"/>
<path d="M112.176 84.199C115.287 84.199 117.809 81.6759 117.809 78.5634C117.809 75.4509 115.287 72.9277 112.176 72.9277C109.065 72.9277 106.543 75.4509 106.543 78.5634C106.543 81.6759 109.065 84.199 112.176 84.199Z" fill="#D0A2F7"/>
<path d="M77.173 25.4303C60.9526 25.4303 47.8034 38.5857 47.8034 54.8138C47.8034 54.8512 47.8034 54.8887 47.8034 54.9262H47.756V57.8257C47.6982 59.7524 46.8926 61.5809 45.5099 62.9233C44.1273 64.2657 42.2764 65.0165 40.3497 65.0165C38.423 65.0165 36.5721 64.2657 35.1894 62.9233C33.8068 61.5809 33.0011 59.7524 32.9434 57.8257V0.814453H24.3516V58.2696C24.3515 60.3133 24.7537 62.3371 25.5354 64.2253C26.3171 66.1135 27.4629 67.8291 28.9073 69.2743C30.3518 70.7194 32.0666 71.8657 33.9539 72.6478C35.8412 73.4298 37.864 73.8323 39.9068 73.8322C44.244 73.8376 48.4067 72.1232 51.4832 69.0645C56.496 78.0902 66.1218 84.1981 77.1738 84.1981C93.395 84.1981 106.543 71.0419 106.543 54.8138C106.543 38.5857 93.395 25.4303 77.173 25.4303ZM77.173 75.6005C65.698 75.6005 56.3969 66.2941 56.3969 54.8138C56.3969 43.3334 65.698 34.027 77.173 34.027C88.6479 34.027 97.9507 43.3334 97.9507 54.8138C97.9507 66.2941 88.6495 75.6005 77.173 75.6005Z" fill="#D0A2F7"/>
</g>
<defs>
<clipPath id="clip0_497_3098">
<rect width="103.888" height="83.3836" fill="white" transform="translate(13.9219 0.814453)"/>
</clipPath>
</defs>
</svg>
