<svg width="14" height="15" viewBox="0 0 14 15" fill="none" xmlns="http://www.w3.org/2000/svg">
<path d="M13.0839 6.67795L7.82802 1.42211C7.39052 0.984613 6.62052 0.97878 6.17719 1.42211L0.927187 6.67211C0.472188 7.12711 0.472188 7.86211 0.927187 8.31711L6.17719 13.5671C6.40469 13.7946 6.70219 13.9054 6.99969 13.9054C7.29719 13.9054 7.59469 13.7946 7.82219 13.5671L13.0664 8.32295C13.5272 7.87961 13.533 7.14461 13.0839 6.67795ZM7.00552 12.7446L1.75552 7.49461L7.00552 2.24461L12.2555 7.49461L7.00552 12.7446ZM4.66635 6.91711V9.25045H5.83302V7.50045H8.16635V8.95878L10.208 6.91711L8.16635 4.87545V6.33378H5.24969C4.92885 6.33378 4.66635 6.59628 4.66635 6.91711Z" fill="#F5EDFD"/>
</svg>
