<svg width="43" height="43" viewBox="0 0 43 43" fill="none" xmlns="http://www.w3.org/2000/svg">
<g filter="url(#filter0_b_453_6681)">
<path fill-rule="evenodd" clip-rule="evenodd" d="M0 21.6232C0 9.96795 9.44842 0.519531 21.1036 0.519531C32.7588 0.519531 42.2073 9.96795 42.2073 21.6232C42.2073 33.2784 32.7588 42.7268 21.1036 42.7268C9.44842 42.7268 0 33.2784 0 21.6232Z" fill="#D4D4D4" fill-opacity="0.1"/>
<path d="M0.41111 21.6232C0.41111 10.195 9.67547 0.930641 21.1036 0.930641C32.5318 0.930641 41.7962 10.195 41.7962 21.6232C41.7962 33.0513 32.5318 42.3157 21.1036 42.3157C9.67547 42.3157 0.41111 33.0513 0.41111 21.6232Z" stroke="url(#paint0_linear_453_6681)" stroke-opacity="0.5" stroke-width="0.822219" stroke-linecap="round"/>
</g>
<g filter="url(#filter1_b_453_6681)">
<path fill-rule="evenodd" clip-rule="evenodd" d="M21.104 10.3672C18.0472 10.3672 17.6636 10.3806 16.463 10.4352C15.2648 10.4901 14.4469 10.6798 13.7312 10.9581C12.991 11.2456 12.363 11.6301 11.7374 12.256C11.1113 12.8816 10.7267 13.5096 10.4383 14.2496C10.1593 14.9655 9.96936 15.7836 9.91542 16.9814C9.86173 18.1819 9.84766 18.5658 9.84766 21.6226C9.84766 24.6794 9.86126 25.0618 9.91566 26.2624C9.97076 27.4606 10.1605 28.2785 10.4386 28.9942C10.7263 29.7344 11.1108 30.3624 11.7367 30.988C12.3621 31.6141 12.99 31.9996 13.7298 32.2871C14.446 32.5654 15.2641 32.7551 16.4621 32.81C17.6626 32.8646 18.046 32.878 21.1026 32.878C24.1596 32.878 24.542 32.8646 25.7426 32.81C26.9408 32.7551 27.7597 32.5654 28.4758 32.2871C29.2158 31.9996 29.8429 31.6141 30.4682 30.988C31.0943 30.3624 31.4789 29.7344 31.7673 28.9944C32.044 28.2785 32.2339 27.4604 32.2902 26.2626C32.3441 25.062 32.3582 24.6794 32.3582 21.6226C32.3582 18.5658 32.3441 18.1822 32.2902 16.9816C32.2339 15.7834 32.044 14.9655 31.7673 14.2498C31.4789 13.5096 31.0943 12.8816 30.4682 12.256C29.8422 11.6299 29.2161 11.2453 28.4751 10.9581C27.7576 10.6798 26.9392 10.4901 25.741 10.4352C24.5404 10.3806 24.1582 10.3672 21.1005 10.3672H21.104ZM20.0942 12.3955C20.3939 12.395 20.7283 12.3955 21.1039 12.3955C24.1091 12.3955 24.4653 12.4063 25.652 12.4602C26.7494 12.5104 27.345 12.6937 27.7418 12.8478C28.267 13.0518 28.6415 13.2957 29.0352 13.6896C29.4292 14.0835 29.673 14.4587 29.8775 14.984C30.0316 15.3803 30.2152 15.9759 30.2651 17.0733C30.319 18.2598 30.3308 18.6162 30.3308 21.62C30.3308 24.6237 30.319 24.9802 30.2651 26.1667C30.2149 27.2641 30.0316 27.8597 29.8775 28.256C29.6735 28.7812 29.4292 29.1552 29.0352 29.5489C28.6413 29.9429 28.2673 30.1867 27.7418 30.3907C27.3455 30.5455 26.7494 30.7284 25.652 30.7786C24.4655 30.8325 24.1091 30.8442 21.1039 30.8442C18.0985 30.8442 17.7423 30.8325 16.5558 30.7786C15.4584 30.7279 14.8628 30.5445 14.4658 30.3905C13.9406 30.1865 13.5654 29.9426 13.1715 29.5487C12.7775 29.1547 12.5337 28.7805 12.3292 28.255C12.1751 27.8587 11.9915 27.2631 11.9416 26.1657C11.8876 24.9792 11.8769 24.6228 11.8769 21.6172C11.8769 18.6115 11.8876 18.2569 11.9416 17.0704C11.9918 15.973 12.1751 15.3774 12.3292 14.9807C12.5332 14.4554 12.7775 14.0803 13.1715 13.6863C13.5654 13.2924 13.9406 13.0485 14.4658 12.844C14.8626 12.6893 15.4584 12.5064 16.5558 12.456C17.5941 12.4091 17.9965 12.395 20.0942 12.3927V12.3955ZM27.112 14.2643C26.3663 14.2643 25.7613 14.8686 25.7613 15.6145C25.7613 16.3602 26.3663 16.9652 27.112 16.9652C27.8576 16.9652 28.4626 16.3602 28.4626 15.6145C28.4626 14.8688 27.8576 14.2643 27.112 14.2643ZM21.104 15.8424C17.9119 15.8424 15.3239 18.4305 15.3239 21.6225C15.3239 24.8146 17.9119 27.4015 21.104 27.4015C24.2961 27.4015 26.8832 24.8146 26.8832 21.6225C26.8832 18.4305 24.2961 15.8424 21.104 15.8424ZM21.104 17.8707C23.1759 17.8707 24.8558 19.5504 24.8558 21.6225C24.8558 23.6945 23.1759 25.3743 21.104 25.3743C19.0318 25.3743 17.3522 23.6945 17.3522 21.6225C17.3522 19.5504 19.0318 17.8707 21.104 17.8707Z" fill="url(#paint1_linear_453_6681)"/>
</g>
<defs>
<filter id="filter0_b_453_6681" x="-19.1851" y="-18.6656" width="80.5773" height="80.5773" filterUnits="userSpaceOnUse" color-interpolation-filters="sRGB">
<feFlood flood-opacity="0" result="BackgroundImageFix"/>
<feGaussianBlur in="BackgroundImageFix" stdDeviation="9.59256"/>
<feComposite in2="SourceAlpha" operator="in" result="effect1_backgroundBlur_453_6681"/>
<feBlend mode="normal" in="SourceGraphic" in2="effect1_backgroundBlur_453_6681" result="shape"/>
</filter>
<filter id="filter1_b_453_6681" x="-9.33747" y="-8.81793" width="60.882" height="60.882" filterUnits="userSpaceOnUse" color-interpolation-filters="sRGB">
<feFlood flood-opacity="0" result="BackgroundImageFix"/>
<feGaussianBlur in="BackgroundImageFix" stdDeviation="9.59256"/>
<feComposite in2="SourceAlpha" operator="in" result="effect1_backgroundBlur_453_6681"/>
<feBlend mode="normal" in="SourceGraphic" in2="effect1_backgroundBlur_453_6681" result="shape"/>
</filter>
<linearGradient id="paint0_linear_453_6681" x1="-0.131898" y1="0.651429" x2="20.9717" y2="21.7551" gradientUnits="userSpaceOnUse">
<stop stop-color="white" stop-opacity="0.5"/>
<stop offset="1" stop-color="white" stop-opacity="0.1"/>
</linearGradient>
<linearGradient id="paint1_linear_453_6681" x1="9.77731" y1="10.4375" x2="29.7902" y2="35.1681" gradientUnits="userSpaceOnUse">
<stop stop-color="#F5EDFD"/>
<stop offset="1" stop-color="#F5EDFD" stop-opacity="0.2"/>
</linearGradient>
</defs>
</svg>
