<svg width="43" height="43" viewBox="0 0 43 43" fill="none" xmlns="http://www.w3.org/2000/svg">
<g filter="url(#filter0_b_453_6691)">
<path fill-rule="evenodd" clip-rule="evenodd" d="M0.792969 21.6232C0.792969 9.96795 10.2414 0.519531 21.8966 0.519531C33.5518 0.519531 43.0002 9.96795 43.0002 21.6232C43.0002 33.2784 33.5518 42.7268 21.8966 42.7268C10.2414 42.7268 0.792969 33.2784 0.792969 21.6232Z" fill="#D4D4D4" fill-opacity="0.1"/>
<path d="M1.20408 21.6232C1.20408 10.195 10.4684 0.930641 21.8966 0.930641C33.3248 0.930641 42.5891 10.195 42.5891 21.6232C42.5891 33.0513 33.3248 42.3157 21.8966 42.3157C10.4684 42.3157 1.20408 33.0513 1.20408 21.6232Z" stroke="url(#paint0_linear_453_6691)" stroke-opacity="0.5" stroke-width="0.822219" stroke-linecap="round"/>
</g>
<g filter="url(#filter1_b_453_6691)">
<path d="M16.3341 13.9279C16.3338 14.5109 16.1019 15.07 15.6894 15.482C15.277 15.8941 14.7177 16.1254 14.1347 16.1251C13.5517 16.1248 12.9926 15.8929 12.5806 15.4805C12.1685 15.068 11.9372 14.5087 11.9375 13.9257C11.9378 13.3427 12.1697 12.7837 12.5821 12.3716C12.9946 11.9596 13.5539 11.7282 14.1369 11.7285C14.7199 11.7288 15.2789 11.9607 15.691 12.3732C16.1031 12.7856 16.3344 13.3449 16.3341 13.9279ZM16.4 17.7529H12.0034V31.5143H16.4V17.7529ZM23.3467 17.7529H18.972V31.5143H23.3027V24.2929C23.3027 20.27 28.5456 19.8963 28.5456 24.2929V31.5143H32.8873V22.798C32.8873 16.0163 25.1273 16.2691 23.3027 19.5995L23.3467 17.7529Z" fill="url(#paint1_linear_453_6691)"/>
</g>
<defs>
<filter id="filter0_b_453_6691" x="-18.3922" y="-18.6656" width="80.5773" height="80.5773" filterUnits="userSpaceOnUse" color-interpolation-filters="sRGB">
<feFlood flood-opacity="0" result="BackgroundImageFix"/>
<feGaussianBlur in="BackgroundImageFix" stdDeviation="9.59256"/>
<feComposite in2="SourceAlpha" operator="in" result="effect1_backgroundBlur_453_6691"/>
<feBlend mode="normal" in="SourceGraphic" in2="effect1_backgroundBlur_453_6691" result="shape"/>
</filter>
<filter id="filter1_b_453_6691" x="-7.24762" y="-7.45661" width="59.3195" height="58.1554" filterUnits="userSpaceOnUse" color-interpolation-filters="sRGB">
<feFlood flood-opacity="0" result="BackgroundImageFix"/>
<feGaussianBlur in="BackgroundImageFix" stdDeviation="9.59256"/>
<feComposite in2="SourceAlpha" operator="in" result="effect1_backgroundBlur_453_6691"/>
<feBlend mode="normal" in="SourceGraphic" in2="effect1_backgroundBlur_453_6691" result="shape"/>
</filter>
<linearGradient id="paint0_linear_453_6691" x1="0.661071" y1="0.651429" x2="21.7647" y2="21.7551" gradientUnits="userSpaceOnUse">
<stop stop-color="white" stop-opacity="0.5"/>
<stop offset="1" stop-color="white" stop-opacity="0.1"/>
</linearGradient>
<linearGradient id="paint1_linear_453_6691" x1="11.872" y1="11.7903" x2="29.2269" y2="34.4981" gradientUnits="userSpaceOnUse">
<stop stop-color="#F5EDFD"/>
<stop offset="1" stop-color="#F5EDFD" stop-opacity="0.2"/>
</linearGradient>
</defs>
</svg>
