<svg width="40" height="41" viewBox="0 0 40 41" fill="none" xmlns="http://www.w3.org/2000/svg">
<g filter="url(#filter0_b_450_2684)">
<rect y="0.5" width="40" height="40" rx="20" fill="#D4D4D4" fill-opacity="0.1"/>
<rect x="0.212742" y="0.712742" width="39.5745" height="39.5745" rx="19.7873" stroke="url(#paint0_linear_450_2684)" stroke-opacity="0.5" stroke-width="0.425485" stroke-linecap="round"/>
<g filter="url(#filter1_b_450_2684)">
<path d="M20.5407 19.5078C19.9433 19.5078 19.3705 19.2705 18.9481 18.8481C18.5257 18.4257 18.2884 17.8529 18.2884 17.2555C18.2884 16.6582 18.5257 16.0853 18.9481 15.6629C19.3705 15.2406 19.9433 15.0033 20.5407 15.0033C21.138 15.0033 21.7109 15.2406 22.1333 15.6629C22.5556 16.0853 22.7929 16.6582 22.7929 17.2555C22.7929 17.5513 22.7347 17.8442 22.6215 18.1174C22.5083 18.3907 22.3424 18.639 22.1333 18.8481C21.9241 19.0572 21.6758 19.2231 21.4026 19.3363C21.1293 19.4495 20.8365 19.5078 20.5407 19.5078ZM20.5407 10.9492C18.8681 10.9492 17.2641 11.6136 16.0814 12.7963C14.8988 13.979 14.2344 15.583 14.2344 17.2555C14.2344 21.9853 20.5407 28.9672 20.5407 28.9672C20.5407 28.9672 26.847 21.9853 26.847 17.2555C26.847 15.583 26.1826 13.979 24.9999 12.7963C23.8173 11.6136 22.2132 10.9492 20.5407 10.9492Z" fill="url(#paint1_linear_450_2684)"/>
</g>
</g>
<defs>
<filter id="filter0_b_450_2684" x="-9.92798" y="-9.42798" width="59.856" height="59.856" filterUnits="userSpaceOnUse" color-interpolation-filters="sRGB">
<feFlood flood-opacity="0" result="BackgroundImageFix"/>
<feGaussianBlur in="BackgroundImageFix" stdDeviation="4.96399"/>
<feComposite in2="SourceAlpha" operator="in" result="effect1_backgroundBlur_450_2684"/>
<feBlend mode="normal" in="SourceGraphic" in2="effect1_backgroundBlur_450_2684" result="shape"/>
</filter>
<filter id="filter1_b_450_2684" x="4.3064" y="1.02124" width="32.4692" height="37.8735" filterUnits="userSpaceOnUse" color-interpolation-filters="sRGB">
<feFlood flood-opacity="0" result="BackgroundImageFix"/>
<feGaussianBlur in="BackgroundImageFix" stdDeviation="4.96399"/>
<feComposite in2="SourceAlpha" operator="in" result="effect1_backgroundBlur_450_2684"/>
<feBlend mode="normal" in="SourceGraphic" in2="effect1_backgroundBlur_450_2684" result="shape"/>
</filter>
<linearGradient id="paint0_linear_450_2684" x1="-0.125" y1="0.625" x2="19.875" y2="20.625" gradientUnits="userSpaceOnUse">
<stop stop-color="white" stop-opacity="0.5"/>
<stop offset="1" stop-color="white" stop-opacity="0.1"/>
</linearGradient>
<linearGradient id="paint1_linear_450_2684" x1="14.195" y1="11.0055" x2="30.4031" y2="25.0259" gradientUnits="userSpaceOnUse">
<stop stop-color="#F5EDFD"/>
<stop offset="1" stop-color="#F5EDFD" stop-opacity="0.2"/>
</linearGradient>
</defs>
</svg>
