<svg width="10" height="14" viewBox="0 0 10 14" fill="none" xmlns="http://www.w3.org/2000/svg">
<path d="M4.79557 6.66732C4.35355 6.66732 3.92962 6.49172 3.61706 6.17916C3.3045 5.8666 3.12891 5.44268 3.12891 5.00065C3.12891 4.55862 3.3045 4.1347 3.61706 3.82214C3.92962 3.50958 4.35355 3.33398 4.79557 3.33398C5.2376 3.33398 5.66152 3.50958 5.97408 3.82214C6.28664 4.1347 6.46224 4.55862 6.46224 5.00065C6.46224 5.21952 6.41913 5.43625 6.33537 5.63846C6.25161 5.84067 6.12885 6.0244 5.97408 6.17916C5.81932 6.33393 5.63559 6.45669 5.43338 6.54045C5.23117 6.62421 5.01444 6.66732 4.79557 6.66732ZM4.79557 0.333984C3.5579 0.333984 2.37091 0.82565 1.49574 1.70082C0.620571 2.57599 0.128906 3.76297 0.128906 5.00065C0.128906 8.50065 4.79557 13.6673 4.79557 13.6673C4.79557 13.6673 9.46224 8.50065 9.46224 5.00065C9.46224 3.76297 8.97057 2.57599 8.0954 1.70082C7.22023 0.82565 6.03325 0.333984 4.79557 0.333984Z" fill="#F5EDFD"/>
</svg>
