<svg width="56" height="56" viewBox="0 0 56 56" fill="none" xmlns="http://www.w3.org/2000/svg">
<g filter="url(#filter0_b_495_4583)">
<circle cx="28" cy="28" r="28" fill="#151515"/>
<circle cx="28" cy="28" r="27.3636" stroke="#474747" stroke-width="1.27273" stroke-linecap="round"/>
</g>
<path d="M25.05 26.7137C25.05 22.8449 25.0622 18.9886 25.0419 15.1323C25.0338 13.7873 24.9609 12.185 26.4683 11.8612C27.449 11.6495 28.7822 12.1601 29.69 12.7662C31.6027 14.0488 33.3412 15.6013 35.1445 17.05C36.4372 18.0878 36.9761 19.3705 35.8293 20.786C34.7716 22.0936 33.4789 21.8902 32.2511 20.9105C31.5662 20.3626 30.8773 19.8188 29.8561 19.0093C29.8115 19.9931 29.7589 20.6905 29.7548 21.3879C29.7386 25.5348 29.7994 29.6817 29.7062 33.8244C29.6373 36.8589 28.1379 39.1336 25.4512 40.3416C22.6308 41.6118 19.7698 41.4914 17.2127 39.5238C14.8137 37.6766 13.8736 34.4388 14.7732 31.5414C15.7093 28.5319 18.3271 26.4978 21.4475 26.4522C22.5781 26.4356 23.7127 26.6099 25.046 26.7095L25.05 26.7137Z" fill="#D0A2F7"/>
<g filter="url(#filter1_b_495_4583)">
<path d="M29.1981 29.4682C29.1994 29.4696 29.2018 29.4686 29.2018 29.4666C29.2018 25.4443 29.2148 21.435 29.1932 17.4257C29.1845 16.0267 29.1068 14.3601 30.713 14.0233C31.7579 13.8031 33.1784 14.3342 34.1455 14.9646C36.1835 16.2987 38.0357 17.9135 39.9571 19.4204C41.3344 20.4998 41.9087 21.834 40.6868 23.3063C39.5599 24.6664 38.1825 24.4548 36.8743 23.4358C36.6791 23.2834 36.4837 23.1313 36.2812 22.9741C35.458 22.335 34.2208 22.8902 34.2146 23.9324C34.1973 28.2457 34.2621 32.559 34.1628 36.8681C34.0894 40.0243 32.4919 42.3903 29.6293 43.6468C26.6242 44.968 23.5759 44.8428 20.8515 42.7962C18.2954 40.8748 17.2937 37.5071 18.2522 34.4933C19.2496 31.363 22.0388 29.2474 25.3634 29.1999C26.5678 29.1826 27.7765 29.3639 29.1967 29.4675C29.1972 29.4676 29.1977 29.4678 29.1981 29.4682Z" fill="#D4D4D4" fill-opacity="0.1"/>
<path d="M29.4119 17.4243L29.4119 17.4245C29.4276 20.3416 29.4251 23.2591 29.4225 26.1807C29.4215 27.2753 29.4206 28.3706 29.4206 29.4666C29.4206 29.6163 29.2829 29.7092 29.1558 29.6839C28.6833 29.6491 28.239 29.6065 27.8133 29.5657C26.9491 29.4828 26.1609 29.4073 25.3665 29.4187C22.1375 29.4648 19.4299 31.5177 18.4607 34.5598C17.5293 37.4883 18.504 40.758 20.9829 42.6213M29.4119 17.4243L34.2146 23.9324C34.2088 25.3702 34.2122 26.808 34.2156 28.2456C34.2223 31.1208 34.229 33.9954 34.1628 36.8681L33.9441 36.863C33.9441 36.863 33.9441 36.863 33.9441 36.863C33.8726 39.9341 32.3262 42.2241 29.5413 43.4465L29.5412 43.4465C26.5981 44.7405 23.6356 44.614 20.9829 42.6213M29.4119 17.4243C29.4116 17.3725 29.4112 17.3205 29.4108 17.2686C29.4057 16.6058 29.4006 15.9391 29.5579 15.3861C29.6413 15.0932 29.7673 14.8451 29.9538 14.6525C30.1387 14.4618 30.3943 14.3137 30.7579 14.2375L30.7581 14.2374C31.2304 14.1379 31.8065 14.2058 32.3949 14.3843C32.98 14.5619 33.5581 14.8429 34.0257 15.1476M29.4119 17.4243L34.0257 15.1476M20.9829 42.6213L20.8515 42.7962M20.9829 42.6213L20.8515 42.7962M20.8515 42.7962C23.5759 44.8428 26.6242 44.968 29.6293 43.6468L18.2522 34.4933C17.2937 37.5071 18.2954 40.8748 20.8515 42.7962ZM34.0257 15.1476C35.4924 16.1078 36.8585 17.2113 38.2339 18.3223C38.7599 18.7471 39.2872 19.1731 39.8221 19.5926L39.8221 19.5926M34.0257 15.1476L39.8221 19.5926M39.8221 19.5926C40.4928 20.1182 40.9382 20.6838 41.0844 21.269C41.227 21.8401 41.0949 22.472 40.5184 23.1666L40.5183 23.1667M39.8221 19.5926L40.5183 23.1667M40.5183 23.1667C39.9895 23.8049 39.4232 24.0535 38.852 24.0445M40.5183 23.1667L38.852 24.0445M38.852 24.0445C38.2692 24.0352 37.6431 23.7573 37.0087 23.2632M38.852 24.0445L37.0087 23.2632M37.0087 23.2632L36.8743 23.4358L37.0087 23.2632ZM29.3528 29.3135C29.323 29.2838 29.2859 29.2635 29.2459 29.2543C29.284 29.2626 29.3211 29.2817 29.3529 29.3136L29.3528 29.3135Z" stroke="url(#paint0_linear_495_4583)" stroke-width="0.437543" stroke-linecap="round"/>
</g>
<defs>
<filter id="filter0_b_495_4583" x="-12.3426" y="-12.3426" width="80.6853" height="80.6853" filterUnits="userSpaceOnUse" color-interpolation-filters="sRGB">
<feFlood flood-opacity="0" result="BackgroundImageFix"/>
<feGaussianBlur in="BackgroundImageFix" stdDeviation="6.17131"/>
<feComposite in2="SourceAlpha" operator="in" result="effect1_backgroundBlur_495_4583"/>
<feBlend mode="normal" in="SourceGraphic" in2="effect1_backgroundBlur_495_4583" result="shape"/>
</filter>
<filter id="filter1_b_495_4583" x="13.5191" y="9.59722" width="32.2118" height="39.2899" filterUnits="userSpaceOnUse" color-interpolation-filters="sRGB">
<feFlood flood-opacity="0" result="BackgroundImageFix"/>
<feGaussianBlur in="BackgroundImageFix" stdDeviation="2.18772"/>
<feComposite in2="SourceAlpha" operator="in" result="effect1_backgroundBlur_495_4583"/>
<feBlend mode="normal" in="SourceGraphic" in2="effect1_backgroundBlur_495_4583" result="shape"/>
</filter>
<linearGradient id="paint0_linear_495_4583" x1="17.8212" y1="14.0681" x2="32.5748" y2="25.4027" gradientUnits="userSpaceOnUse">
<stop stop-color="white" stop-opacity="0.5"/>
<stop offset="1" stop-color="white" stop-opacity="0.1"/>
</linearGradient>
</defs>
</svg>
