<svg width="20" height="20" viewBox="0 0 20 20" fill="none" xmlns="http://www.w3.org/2000/svg">
<path d="M12.3817 14.235C13.9344 14.0512 15.4599 13.6847 16.9267 13.1433C15.6845 11.7673 14.9981 9.97875 15.0009 8.125V7.5C15.0009 6.17392 14.4741 4.90215 13.5364 3.96447C12.5987 3.02678 11.327 2.5 10.0009 2.5C8.6748 2.5 7.40303 3.02678 6.46535 3.96447C5.52767 4.90215 5.00089 6.17392 5.00089 7.5V8.125C5.0034 9.97886 4.31671 11.7675 3.07422 13.1433C4.51839 13.6767 6.04089 14.0475 7.62005 14.235M12.3817 14.235C10.8 14.4226 9.20173 14.4226 7.62005 14.235M12.3817 14.235C12.5018 14.6099 12.5317 15.0078 12.4689 15.3964C12.4061 15.785 12.2524 16.1533 12.0204 16.4713C11.7883 16.7893 11.4845 17.048 11.1335 17.2263C10.7826 17.4047 10.3945 17.4976 10.0009 17.4976C9.60724 17.4976 9.21915 17.4047 8.86823 17.2263C8.5173 17.048 8.21344 16.7893 7.9814 16.4713C7.74936 16.1533 7.59569 15.785 7.5329 15.3964C7.4701 15.0078 7.49997 14.6099 7.62005 14.235" stroke="#F5EDFD" stroke-width="1.5" stroke-linecap="round" stroke-linejoin="round"/>
</svg>
