<svg width="13" height="12" viewBox="0 0 13 12" fill="none" xmlns="http://www.w3.org/2000/svg">
<g clip-path="url(#clip0_1912_2958)">
<path d="M4.48293 7.83254L8.47237 3.84311M5.52338 1.06965C5.79302 0.850252 6.13003 0.730469 6.47765 0.730469C6.82527 0.730469 7.16228 0.850252 7.43192 1.06965L7.69762 1.28588L8.03513 1.23162C8.3784 1.17635 8.73024 1.24107 9.03137 1.41489C9.3325 1.58871 9.56452 1.861 9.68835 2.18589L9.80963 2.50505L10.1296 2.62713C10.4546 2.75082 10.7271 2.98278 10.9011 3.28392C11.075 3.58507 11.1399 3.93698 11.0847 4.28035L11.0304 4.61785L11.2458 4.88355C11.4652 5.15319 11.585 5.4902 11.585 5.83782C11.585 6.18545 11.4652 6.52246 11.2458 6.7921L11.0304 7.05779L11.0847 7.3953C11.1399 7.73857 11.0752 8.09041 10.9014 8.39154C10.7276 8.69267 10.4553 8.92469 10.1304 9.04852L9.81122 9.1706L9.68915 9.48975C9.56532 9.81465 9.33329 10.0869 9.03216 10.2608C8.73103 10.4346 8.3792 10.4993 8.03592 10.444L7.69842 10.3898L7.43272 10.606C7.16308 10.8254 6.82607 10.9452 6.47845 10.9452C6.13083 10.9452 5.79382 10.8254 5.52418 10.606L5.25848 10.3906L4.92097 10.444C4.5777 10.4993 4.22586 10.4346 3.92473 10.2608C3.6236 10.0869 3.39158 9.81465 3.26775 9.48975L3.14567 9.1706L2.82652 9.04852C2.50162 8.92469 2.22933 8.69267 2.05551 8.39154C1.88169 8.09041 1.81697 7.73857 1.87225 7.3953L1.9265 7.05779L1.71027 6.7921C1.49088 6.52246 1.37109 6.18545 1.37109 5.83782C1.37109 5.4902 1.49088 5.15319 1.71027 4.88355L1.9257 4.61785L1.87225 4.28035C1.81692 3.93717 1.88153 3.58541 2.05519 3.2843C2.22886 2.98318 2.50097 2.7511 2.82572 2.62713L3.14488 2.50585L3.26695 2.18589C3.39064 1.86085 3.62261 1.58838 3.92375 1.41441C4.22489 1.24044 4.5768 1.1756 4.92018 1.23082L5.25768 1.28508L5.52338 1.06965Z" stroke="#0D0D0D" stroke-width="1.4507" stroke-linecap="round" stroke-linejoin="round"/>
<path d="M4.88332 4.63968C4.98913 4.63968 5.0906 4.59765 5.16541 4.52284C5.24023 4.44802 5.28226 4.34655 5.28226 4.24074C5.28226 4.13493 5.24023 4.03346 5.16541 3.95864C5.0906 3.88383 4.98913 3.8418 4.88332 3.8418C4.77751 3.8418 4.67604 3.88383 4.60122 3.95864C4.52641 4.03346 4.48438 4.13493 4.48438 4.24074C4.48438 4.34655 4.52641 4.44802 4.60122 4.52284C4.67604 4.59765 4.77751 4.63968 4.88332 4.63968ZM8.07487 7.83123C8.18067 7.83123 8.28215 7.7892 8.35696 7.71439C8.43178 7.63957 8.47381 7.5381 8.47381 7.43229C8.47381 7.32648 8.43178 7.22501 8.35696 7.15019C8.28215 7.07538 8.18067 7.03335 8.07487 7.03335C7.96906 7.03335 7.86759 7.07538 7.79277 7.15019C7.71796 7.22501 7.67592 7.32648 7.67592 7.43229C7.67592 7.5381 7.71796 7.63957 7.79277 7.71439C7.86759 7.7892 7.96906 7.83123 8.07487 7.83123Z" stroke="#0D0D0D" stroke-width="1.4507" stroke-linecap="round" stroke-linejoin="round"/>
</g>
<defs>
<clipPath id="clip0_1912_2958">
<rect width="11.1704" height="11.1704" fill="white" transform="translate(0.871094 0.273438)"/>
</clipPath>
</defs>
</svg>
