<svg width="90" height="90" viewBox="0 0 90 90" fill="none" xmlns="http://www.w3.org/2000/svg">
<g filter="url(#filter0_b_453_4744)">
<circle cx="45" cy="45" r="45" fill="#D4D4D4" fill-opacity="0.1"/>
<circle cx="45" cy="45" r="44.5" stroke="url(#paint0_linear_453_4744)" stroke-opacity="0.5" stroke-linecap="round"/>
</g>
<g filter="url(#filter1_b_453_4744)">
<path fill-rule="evenodd" clip-rule="evenodd" d="M34 31.3125C34 28.4614 35.1326 25.7271 37.1486 23.7111C39.1646 21.6951 41.8989 20.5625 44.75 20.5625C47.6011 20.5625 50.3354 21.6951 52.3514 23.7111C54.3674 25.7271 55.5 28.4614 55.5 31.3125C55.5 34.1636 54.3674 36.8979 52.3514 38.9139C50.3354 40.9299 47.6011 42.0625 44.75 42.0625C41.8989 42.0625 39.1646 40.9299 37.1486 38.9139C35.1326 36.8979 34 34.1636 34 31.3125ZM34 47.4375C30.4362 47.4375 27.0183 48.8532 24.4983 51.3733C21.9782 53.8933 20.5625 57.3112 20.5625 60.875C20.5625 63.0133 21.4119 65.064 22.924 66.576C24.436 68.0881 26.4867 68.9375 28.625 68.9375H60.875C63.0133 68.9375 65.064 68.0881 66.576 66.576C68.0881 65.064 68.9375 63.0133 68.9375 60.875C68.9375 57.3112 67.5218 53.8933 65.0017 51.3733C62.4817 48.8532 59.0638 47.4375 55.5 47.4375H34Z" fill="url(#paint1_linear_453_4744)"/>
</g>
<defs>
<filter id="filter0_b_453_4744" x="-17.5" y="-17.5" width="125" height="125" filterUnits="userSpaceOnUse" color-interpolation-filters="sRGB">
<feFlood flood-opacity="0" result="BackgroundImageFix"/>
<feGaussianBlur in="BackgroundImageFix" stdDeviation="8.75"/>
<feComposite in2="SourceAlpha" operator="in" result="effect1_backgroundBlur_453_4744"/>
<feBlend mode="normal" in="SourceGraphic" in2="effect1_backgroundBlur_453_4744" result="shape"/>
</filter>
<filter id="filter1_b_453_4744" x="3.0625" y="3.0625" width="83.375" height="83.375" filterUnits="userSpaceOnUse" color-interpolation-filters="sRGB">
<feFlood flood-opacity="0" result="BackgroundImageFix"/>
<feGaussianBlur in="BackgroundImageFix" stdDeviation="8.75"/>
<feComposite in2="SourceAlpha" operator="in" result="effect1_backgroundBlur_453_4744"/>
<feBlend mode="normal" in="SourceGraphic" in2="effect1_backgroundBlur_453_4744" result="shape"/>
</filter>
<linearGradient id="paint0_linear_453_4744" x1="-0.28125" y1="0.28125" x2="44.7188" y2="45.2812" gradientUnits="userSpaceOnUse">
<stop stop-color="white" stop-opacity="0.5"/>
<stop offset="1" stop-color="white" stop-opacity="0.1"/>
</linearGradient>
<linearGradient id="paint1_linear_453_4744" x1="20.4113" y1="20.7137" x2="63.4184" y2="73.8593" gradientUnits="userSpaceOnUse">
<stop stop-color="#F5EDFD"/>
<stop offset="1" stop-color="#F5EDFD" stop-opacity="0.2"/>
</linearGradient>
</defs>
</svg>
