<svg width="263" height="169" viewBox="0 0 263 169" fill="none" xmlns="http://www.w3.org/2000/svg">
<path d="M257.987 138.776C246.898 155.599 227.884 165.486 207.735 165.486H40.5062C6.89414 165.486 -11.9541 126.186 9.84436 104.055C31.6428 81.9244 12.3896 63.0251 46.0145 45.2812C78.5906 28.0872 89.7094 64.7347 119.719 40.7578C149.729 16.7809 193.419 19.0405 203.016 43.4735C212.617 67.9066 210.353 76.5015 230.711 81.9287C251.068 87.3559 270.978 118.12 258.759 137.578C258.503 137.983 258.247 138.384 257.987 138.78V138.776Z" fill="url(#paint0_linear_453_6441)"/>
<path d="M202.676 43.6072L203.016 43.4735L202.676 43.6073C204.756 48.9011 206.278 53.449 207.596 57.3895C207.797 57.9879 207.992 58.5724 208.184 59.1433C209.639 63.4662 210.901 67.0299 212.508 70.0022C214.12 72.9845 216.081 75.3778 218.936 77.3664C221.785 79.3505 225.505 80.9193 230.616 82.282C240.673 84.9631 250.67 93.9277 256.631 104.669C262.594 115.413 264.458 127.815 258.449 137.383C258.269 137.669 258.088 137.953 257.907 138.233L257.682 138.575C246.663 155.291 227.765 165.12 207.735 165.12H40.5062C23.8525 165.12 10.8577 155.386 4.72447 142.908C-1.40858 130.43 -0.666156 115.247 10.1048 104.312C19.6069 94.6649 21.3794 85.5982 23.0472 77.0672C23.3082 75.732 23.5666 74.41 23.8517 73.101C24.9048 68.2656 26.3186 63.6037 29.5412 59.0494C32.764 54.4949 37.8156 50.0211 46.1851 45.6045L46.1851 45.6045C54.2675 41.3386 60.998 40.4208 67.0154 41.056C72.5132 41.6365 77.4277 43.5124 82.2792 45.3642C82.7531 45.5451 83.2264 45.7258 83.6997 45.905C89.0005 47.9125 94.2837 49.7349 100.136 49.5273C106.003 49.3193 112.398 47.0753 119.947 41.0434C134.883 29.11 153.222 23.7088 169.008 24.3273C184.807 24.9463 197.952 31.5813 202.676 43.6072Z" stroke="url(#paint1_linear_453_6441)" stroke-opacity="0.5" stroke-width="0.731211"/>
<path d="M250.553 145.593C232.937 147.089 221.06 180.109 177.02 160.263C177.02 160.263 181.854 145.849 203.52 136.862C225.182 127.875 250.553 145.593 250.553 145.593Z" fill="url(#paint2_linear_453_6441)"/>
<path d="M203.66 137.199L203.661 137.199C214.367 132.758 226.018 134.907 235.035 138.201C239.537 139.845 243.368 141.77 246.072 143.284C247.424 144.041 248.494 144.694 249.225 145.158C249.331 145.225 249.43 145.288 249.521 145.347C245.399 145.972 241.579 148.232 237.615 151.008C236.429 151.839 235.229 152.715 234.003 153.612C230.779 155.969 227.369 158.462 223.517 160.612C218.216 163.572 212.107 165.863 204.596 166.188C197.154 166.51 188.309 164.904 177.482 160.07C177.516 159.986 177.557 159.885 177.606 159.769C177.777 159.366 178.046 158.778 178.436 158.042C179.218 156.57 180.486 154.508 182.427 152.166C186.307 147.482 192.885 141.669 203.66 137.199Z" stroke="url(#paint3_linear_453_6441)" stroke-opacity="0.5" stroke-width="0.731211"/>
<path d="M183.035 157.791C187.631 155.399 192.402 153.34 197.27 151.545C198.481 151.08 199.709 150.662 200.945 150.253C202.173 149.827 203.414 149.452 204.659 149.068C205.895 148.671 207.153 148.343 208.411 148.006C209.037 147.84 209.664 147.661 210.295 147.503L212.192 147.047L214.094 146.612L216.008 146.237L217.922 145.862C218.562 145.738 219.205 145.644 219.849 145.546C221.137 145.359 222.42 145.141 223.716 145.018C225.012 144.881 226.299 144.698 227.604 144.647C232.792 144.272 238.036 144.357 243.152 145.222C237.972 145.099 232.831 145.401 227.736 146.032L226.781 146.139L225.83 146.284L223.925 146.561C222.654 146.723 221.392 146.979 220.13 147.209C219.499 147.333 218.864 147.422 218.237 147.55L216.353 147.942L214.469 148.335L212.597 148.782L210.721 149.213C210.099 149.362 209.476 149.533 208.854 149.69L206.987 150.172C206.364 150.33 205.75 150.522 205.128 150.688C203.887 151.029 202.646 151.362 201.419 151.741C200.187 152.116 198.95 152.466 197.722 152.858C192.802 154.388 187.929 156.077 183.039 157.791H183.035Z" fill="#B0BDD1"/>
<path d="M252.708 89.397C231.212 104.762 241.154 156.254 169.423 164.363C169.423 164.363 164.636 142.151 185.611 114.073C206.587 85.9949 252.708 89.397 252.708 89.397Z" fill="url(#paint4_linear_453_6441)"/>
<path d="M250.674 89.6711C251.065 89.6826 251.402 89.6954 251.684 89.7077C246.688 93.6284 243.431 99.5421 240.38 106.302C239.492 108.269 238.621 110.308 237.73 112.395C235.385 117.886 232.9 123.706 229.587 129.418C225.025 137.285 218.907 144.914 209.475 151.084C200.101 157.215 187.432 161.918 169.721 163.961C169.693 163.8 169.658 163.581 169.621 163.305C169.532 162.652 169.428 161.686 169.368 160.436C169.248 157.938 169.304 154.309 170.013 149.804C171.429 140.797 175.454 128.281 185.904 114.292C196.311 100.361 212.976 94.2176 227.093 91.5651C234.145 90.2399 240.546 89.7891 245.183 89.6697C247.501 89.61 249.378 89.6331 250.674 89.6711Z" stroke="url(#paint5_linear_453_6441)" stroke-opacity="0.5" stroke-width="0.731211"/>
<path d="M174.195 158.159C177.325 151.38 181.187 144.934 185.532 138.833C189.863 132.719 194.719 126.964 200.01 121.635C205.305 116.314 211.043 111.411 217.255 107.178C223.445 102.944 230.126 99.3036 237.25 97.0312C230.638 100.497 224.511 104.62 218.692 109.139C212.894 113.684 207.411 118.612 202.218 123.835C197.021 129.053 192.123 134.57 187.463 140.3C182.816 146.042 178.446 152.024 174.2 158.163L174.195 158.159Z" fill="#CDDCF4"/>
<path d="M20.8281 141.003C38.295 143.736 47.815 177.51 93.147 160.815C93.147 160.815 89.3399 146.094 68.36 135.606C47.3844 125.118 20.8281 141.008 20.8281 141.008V141.003Z" fill="url(#paint6_linear_453_6441)"/>
<path d="M21.8805 140.832C21.9744 140.781 22.0756 140.726 22.1838 140.667C22.9457 140.256 24.059 139.679 25.461 139.02C28.2655 137.7 32.2219 136.049 36.8292 134.725C46.0554 132.074 57.8295 130.75 68.1965 135.933L68.1965 135.933C78.6307 141.149 84.7824 147.411 88.3237 152.356C90.095 154.83 91.2145 156.976 91.8901 158.499C92.228 159.261 92.4548 159.867 92.5966 160.281C92.6376 160.4 92.6715 160.503 92.6989 160.59C81.5576 164.649 72.6216 165.629 65.2205 164.784C57.7502 163.931 51.8182 161.215 46.7384 157.889C43.048 155.472 39.8221 152.746 36.7723 150.168C35.6121 149.187 34.4774 148.228 33.3522 147.316C29.5957 144.27 25.9459 141.747 21.8805 140.832Z" stroke="url(#paint7_linear_453_6441)" stroke-opacity="0.5" stroke-width="0.731211"/>
<path d="M87.3195 157.926C82.5617 155.871 77.8166 153.846 73.0203 151.97C71.8266 151.492 70.6158 151.053 69.4135 150.593C68.2155 150.124 67.0005 149.706 65.7854 149.28C65.1758 149.075 64.5789 148.836 63.9693 148.636L62.1403 148.022C61.5306 147.821 60.9253 147.608 60.3113 147.416L58.4696 146.858L56.6321 146.278L54.7775 145.754L52.923 145.229C52.3048 145.055 51.6781 144.922 51.0599 144.756C49.815 144.441 48.5786 144.095 47.321 143.844L45.4408 143.43L44.5029 143.217L43.5564 143.042C38.5172 142.057 33.414 141.388 28.2383 141.149C33.4012 140.646 38.6408 140.932 43.7909 141.669C45.087 141.81 46.3617 142.087 47.6407 142.313C48.9282 142.526 50.1902 142.833 51.4606 143.115C52.0959 143.26 52.7311 143.396 53.3621 143.567L55.2465 144.078L57.1309 144.59L58.9982 145.157L60.857 145.745C61.4752 145.946 62.0849 146.167 62.6988 146.38C63.9266 146.807 65.1587 147.22 66.3653 147.706C67.576 148.175 68.7911 148.64 69.9848 149.152C71.1871 149.646 72.3808 150.149 73.5575 150.699C78.2898 152.831 82.9027 155.223 87.3195 157.93V157.926Z" fill="#B0BDD1"/>
<path d="M32.4414 87.0313C51.7969 103.04 38.9217 151.207 106.406 163.699C106.406 163.699 112.434 142.953 94.4217 114.922C76.4091 86.8906 32.4414 87.0313 32.4414 87.0313Z" fill="url(#paint8_linear_453_6441)"/>
<path d="M106.272 162.678C106.22 162.927 106.174 163.128 106.138 163.277C89.4886 160.153 77.7962 154.847 69.3221 148.41C60.7928 141.93 55.5034 134.288 51.7038 126.523C48.9449 120.885 46.9781 115.201 45.1222 109.837C44.4169 107.799 43.7276 105.807 43.017 103.881C40.5824 97.2839 37.8962 91.4678 33.4398 87.4137C33.6973 87.4208 34.002 87.4309 34.3508 87.4453C35.5823 87.4959 37.3634 87.5995 39.5577 87.8112C43.947 88.2346 49.9859 89.0903 56.5842 90.8185C69.7927 94.2781 85.1809 101.218 94.1141 115.12C103.087 129.083 106.065 141.219 106.804 149.853C107.174 154.171 106.984 157.615 106.703 159.976C106.563 161.156 106.4 162.066 106.272 162.678Z" stroke="url(#paint9_linear_453_6441)" stroke-opacity="0.5" stroke-width="0.731211"/>
<path d="M102.291 157.5C98.6412 151.407 94.8895 145.456 90.8564 139.704C86.8105 133.97 82.5344 128.415 77.9555 123.12C73.381 117.825 68.5208 112.782 63.3366 108.079C58.131 103.398 52.61 99.0665 46.5859 95.3105C53.2026 97.9112 59.3077 101.804 64.9055 106.225C70.5245 110.65 75.6448 115.685 80.3132 121.087C84.9772 126.497 89.1937 132.286 92.8857 138.383C96.5905 144.467 99.8051 150.853 102.291 157.504V157.5Z" fill="#CDDCF4"/>
<path d="M146.274 131.871C143.852 134.749 141.657 139.519 140.292 140.278C138.928 141.037 136.63 141.297 134.46 148.289C132.29 155.281 143.251 154.322 143.251 154.322C143.251 154.322 147.941 151.627 149.834 145.121L154.528 140.956L146.274 131.871Z" fill="#F6A397"/>
<path d="M137.788 153.554C137.788 153.554 141.335 152.399 144.345 149.219C147.368 146.025 147.756 140.351 147.756 140.351L149.201 143.054L152.096 139.959L153.49 139.822L154.517 140.956L149.823 145.122C147.931 151.627 143.241 154.322 143.241 154.322C143.241 154.322 140.218 154.582 137.66 153.823C137.724 153.657 137.78 153.554 137.78 153.554H137.788Z" fill="#D65863"/>
<path d="M162.713 106.832C159.353 109.288 157.35 111.07 155.678 114.408C154.007 117.746 143.545 129.747 142.876 130.817C142.206 131.888 148.759 143.245 153.999 146.025C153.999 146.025 161.911 136.897 166.477 133.444C171.043 129.99 169.483 117.746 167.368 113.628C165.254 109.509 162.713 106.832 162.713 106.832Z" fill="#D0A2F7"/>
<path d="M162.588 128.93V122.113C162.588 122.113 163.475 121.76 164.17 124.057C164.447 124.978 164.426 125.946 164.302 126.777L169.397 122.945C169.606 127.234 168.919 131.599 166.476 133.445C161.91 136.899 153.998 146.026 153.998 146.026C152.646 145.31 151.205 144.018 149.828 142.484C153.051 139.273 159.165 133.083 162.588 128.93Z" fill="#D0A2F7"/>
<path d="M130.029 151.627C129.159 151.9 128.516 152.313 128.516 153.413C128.516 154.513 128.703 156.253 129.121 156.935C129.539 157.617 131.688 158.026 131.688 158.026C131.688 158.026 131.543 153.49 131.091 152.659C130.635 151.827 130.033 151.631 130.033 151.631L130.029 151.627Z" fill="#F6A397"/>
<path d="M129.123 156.936C129.008 156.744 128.909 156.462 128.824 156.143C129.289 156.603 129.447 156.603 130.018 156.667L131.651 157.174C131.676 157.686 131.685 158.027 131.685 158.027C131.685 158.027 129.536 157.618 129.118 156.936H129.123Z" fill="#D65863"/>
<path d="M132.116 149.967C131.054 150.082 129.997 150.875 129.997 151.975C129.997 153.075 129.617 156.14 129.997 156.63C130.376 157.121 132.231 158.523 132.875 158.638C133.518 158.753 134.61 158.562 134.46 158.221C134.311 157.88 132.116 149.967 132.116 149.967Z" fill="#F6A397"/>
<path d="M129.828 155.809C130.634 156.717 132.689 156.636 132.689 156.636C132.689 156.636 133.593 157.599 133.704 157.91C133.772 158.098 134.143 158.345 134.19 158.533C133.848 158.661 133.269 158.712 132.868 158.639C132.237 158.529 130.446 157.181 130.02 156.666L129.832 155.813L129.828 155.809Z" fill="#D65863"/>
<path d="M136.084 148.156C132.831 148.34 132.226 148.642 132.111 149.968C131.996 151.294 132.072 155.157 132.49 156.141C132.908 157.126 133.134 157.996 133.663 158.529C134.191 159.058 134.984 159.062 134.984 159.062C134.984 159.062 136.766 156.448 136.843 154.253C136.92 152.057 136.084 148.165 136.084 148.165V148.156Z" fill="#F6A397"/>
<path d="M134.213 156.884C134.379 155.985 134.746 155.026 134.789 152.016C134.806 150.886 135.855 156.791 135.386 158.411C135.151 158.811 134.985 159.059 134.985 159.059C134.985 159.059 134.192 159.059 133.663 158.526C133.135 157.997 132.904 157.123 132.491 156.143C132.465 156.079 132.44 156.002 132.414 155.912C132.627 156.467 133.301 156.829 134.213 156.884Z" fill="#D65863"/>
<path d="M143.206 154.816C143.002 156.623 140.631 157.276 140.367 158.184C140.103 159.092 140.29 159.927 139.838 160.153C139.382 160.379 137.489 159.322 137.566 158.107C137.566 158.107 137.076 159.13 135.976 159.318C134.876 159.505 134.612 158.704 134.803 157.497C134.991 156.291 134.957 155.647 134.919 154.206C134.88 152.769 134.539 151.443 135.183 149.853C135.827 148.263 136.696 146.86 138.44 147.129C140.184 147.393 141.241 149.589 142.188 150.348C143.134 151.107 143.437 152.808 143.211 154.816H143.206Z" fill="#F6A397"/>
<path d="M137.563 158.11C137.669 155.808 137.789 153.928 137.789 153.557C137.789 153.186 137.669 150.743 138.535 150.594C138.667 150.573 140.577 151.783 140.611 152.598C140.65 153.412 140.611 154.879 140.019 155.296C139.426 155.714 137.559 158.11 137.559 158.11H137.563Z" fill="#D65863"/>
<path d="M216.471 111.74C213.017 107.361 211.832 106.914 208.268 104.837C204.704 102.761 191.198 97.4875 188.414 96.8224C185.63 96.1531 174.404 101.388 170.721 103.055C167.037 104.727 162.352 106.368 161.55 107.997C158.877 113.445 164.172 121.166 164.198 137.345C164.211 145.821 166.142 164.878 166.142 164.878C166.142 164.878 208.558 164.959 209.155 164.068C209.747 163.177 211.231 132.745 211.977 126.512C212.719 120.279 216.466 111.744 216.466 111.744L216.471 111.74Z" fill="#D0A2F7"/>
<path d="M161.711 116.527C161.391 115.504 161.203 114.459 161.045 113.411C160.901 112.362 160.785 111.309 160.802 110.234C161.122 111.258 161.31 112.302 161.468 113.351C161.612 114.4 161.728 115.453 161.711 116.527Z" fill="#D0A2F7"/>
<path d="M177.567 110.155C175.93 109.541 172.046 110.606 171.334 110.854C170.626 111.101 171.752 108.066 172.169 107.69C172.587 107.315 173.257 106.441 174.536 106.833C175.815 107.23 176.893 108.696 177.076 109.178C177.264 109.66 177.567 110.15 177.567 110.15V110.155Z" fill="#D0A2F7"/>
<path d="M191.223 112.686C190.639 112.656 187.229 111.092 186.414 110.699C185.6 110.307 181.9 110.128 179.414 110.823C179.414 110.823 184.193 107.591 186.977 107.621C189.761 107.651 190.818 108.653 191.04 109.54C191.262 110.431 191.219 112.686 191.219 112.686H191.223Z" fill="#D0A2F7"/>
<path d="M172.99 158.052C173.447 157.609 201.15 158.496 201.704 155.601C202.258 152.706 202.642 147.441 202.642 147.441C199.308 149.223 194.465 148.481 194.465 148.481C197.692 147.428 202.369 142.129 202.591 140.573C203.277 135.772 200.711 122.534 200.711 122.534L202.591 118.753L204.791 117.529C204.791 117.529 208.96 119.606 212.524 123.425C212.286 124.483 212.089 125.523 211.974 126.508C211.275 132.387 209.915 159.766 209.263 163.629C200.681 163.944 185.128 164.515 174.721 164.873C169.678 164.886 166.139 164.878 166.139 164.878C166.139 164.878 166.075 162.371 165.922 158.777C168.825 158.606 172.701 158.329 172.982 158.056L172.99 158.052Z" fill="#D0A2F7"/>
<path d="M178.615 110.961C181.603 110.598 186.408 108.01 188.301 108.902C190.194 109.793 190.637 112.073 191.03 112.466C191.422 112.858 193.089 110.905 193.089 106.118C193.089 101.33 193.234 96.427 189.712 95.762C186.186 95.0969 177.059 98.5459 175.221 99.94C173.384 101.33 172.603 102.741 172.105 104.097C171.602 105.453 170.267 110.905 170.881 110.961C171.495 111.016 173.217 107.452 174.501 107.341C175.78 107.23 177.809 111.059 178.619 110.961H178.615Z" fill="#D0A2F7"/>
<path d="M176.917 106.672C176.154 104.865 175.319 103.279 175.348 102.025C175.378 100.772 175.655 99.9108 177.045 99.5186C178.435 99.1264 179.023 99.881 179.104 101.774C179.19 103.667 176.917 106.672 176.917 106.672Z" fill="#D0A2F7"/>
<path d="M187.828 103.299C190.74 100.661 191.068 97.7103 190.795 97.0964C190.523 96.4824 189.32 96.0391 189.32 96.0391C189.32 96.0391 188.847 97.9576 189.124 98.4308C189.401 98.904 187.828 103.295 187.828 103.295V103.299Z" fill="#D0A2F7"/>
<path d="M183.196 109.681C183.903 109.361 184.645 109.114 185.4 108.91C186.159 108.726 186.939 108.577 187.745 108.632C188.145 108.662 188.572 108.748 188.93 109.033C189.245 109.332 189.484 109.6 189.753 109.903C190.281 110.504 190.648 111.237 190.985 111.924C191.062 112.081 191.177 112.269 191.228 112.286C191.232 112.286 191.228 112.299 191.292 112.261C191.343 112.226 191.398 112.167 191.454 112.099C191.671 111.821 191.846 111.476 192.021 111.135C192.37 110.47 192.558 109.732 192.707 108.978C192.852 108.223 192.937 107.456 192.989 106.688C193.057 105.917 193.078 105.145 193.087 104.369C193.24 105.917 193.24 107.481 193.027 109.037C192.925 109.813 192.728 110.598 192.379 111.318C192.204 111.672 192.029 112.022 191.773 112.363C191.705 112.448 191.633 112.533 191.526 112.61C191.475 112.649 191.403 112.687 191.317 112.704C191.228 112.725 191.121 112.712 191.044 112.674C190.887 112.593 190.819 112.487 190.755 112.397C190.691 112.303 190.644 112.214 190.597 112.124C190.26 111.421 189.927 110.747 189.437 110.172C189.203 109.886 188.93 109.57 188.687 109.332C188.435 109.123 188.073 109.016 187.706 108.969C186.964 108.88 186.193 108.986 185.438 109.127C184.679 109.259 183.933 109.468 183.191 109.694L183.196 109.681Z" fill="#D0A2F7"/>
<path d="M176.339 108.684C176.015 108.399 175.695 108.113 175.346 107.879C175.171 107.759 174.996 107.648 174.813 107.567C174.719 107.533 174.634 107.504 174.548 107.495C174.51 107.495 174.472 107.495 174.442 107.504C174.416 107.521 174.399 107.516 174.348 107.555C173.632 107.998 173.073 108.603 172.596 109.303C172.353 109.639 172.144 110.023 171.858 110.373C171.718 110.543 171.564 110.714 171.372 110.863C171.27 110.931 171.172 111.012 170.993 111.034C170.908 111.046 170.788 111.012 170.716 110.944C170.643 110.876 170.605 110.803 170.584 110.739C170.507 110.475 170.532 110.258 170.549 110.032C170.575 109.81 170.618 109.597 170.665 109.384C170.771 108.962 170.891 108.548 171.04 108.143C170.98 108.569 170.903 108.991 170.869 109.418C170.844 109.631 170.831 109.84 170.827 110.049C170.827 110.249 170.827 110.471 170.891 110.616C170.903 110.654 170.925 110.671 170.933 110.675C170.942 110.675 170.933 110.675 170.954 110.675C170.989 110.675 171.074 110.624 171.142 110.565C171.283 110.445 171.419 110.287 171.539 110.121C171.79 109.797 171.99 109.426 172.242 109.06C172.494 108.702 172.771 108.356 173.095 108.045C173.414 107.738 173.79 107.474 174.173 107.269C174.207 107.243 174.297 107.214 174.369 107.192C174.442 107.18 174.514 107.188 174.583 107.192C174.71 107.218 174.826 107.265 174.928 107.32C175.128 107.435 175.303 107.572 175.469 107.717C175.789 108.019 176.079 108.335 176.335 108.689L176.339 108.684Z" fill="#D0A2F7"/>
<path d="M176.508 95.8001C176.516 96.9768 176.563 98.1492 176.683 99.3173C176.981 102.187 176.687 105.972 176.917 106.672C177.169 107.452 178.674 110.236 178.674 110.236C178.674 110.236 181.347 109.012 182.459 107.673C183.572 106.339 185.022 106.271 186.97 104.301C188.918 102.331 190.244 99.2022 189.809 96.5973C189.754 96.2648 189.413 92.9309 189.336 89.4776C189.259 86.0243 185.636 83.4023 182.182 83.4023C178.729 83.4023 176.666 88.5226 176.559 91.9759C176.516 93.3913 176.508 94.7215 176.512 95.7958L176.508 95.8001Z" fill="#F6A397"/>
<path d="M189.329 89.4787C189.406 92.932 189.747 96.2659 189.803 96.5985C189.935 97.4043 189.901 98.2569 189.734 99.1138C188.971 99.2545 179.14 99.4933 176.595 98.3081C176.535 97.4725 176.509 96.6369 176.505 95.8012C176.501 94.7269 176.505 93.3967 176.552 91.9813C176.599 90.519 176.995 88.754 177.703 87.2107L185.791 84.3457C187.773 85.403 189.287 87.2703 189.334 89.483L189.329 89.4787Z" fill="#D65863"/>
<path d="M170.449 75.1035C165.226 75.1035 163.273 79.1153 163.273 82.1209C163.273 84.8196 164.139 89.1384 170.449 89.1384C173.603 89.1384 175.739 85.9963 175.739 82.1209C175.739 78.2456 173.603 75.1035 170.449 75.1035Z" fill="#504984"/>
<path d="M170.219 76.8242C166.276 76.8242 164.801 79.8554 164.801 82.1235C164.801 84.1614 165.453 87.4228 170.219 87.4228C172.603 87.4228 174.214 85.0482 174.214 82.1235C174.214 79.1989 172.603 76.8242 170.219 76.8242Z" fill="#372D5B"/>
<path d="M163.858 77.4761C164.165 79.3051 165.073 80.0043 165.478 82.4727C165.883 84.9412 164.804 88.5224 166.411 91.6474C168.019 94.7681 170.624 98.8737 172.124 99.0485C173.629 99.2233 185.669 97.1897 189.732 89.1107C190.896 86.7915 193.39 77.6978 191.258 72.147C189.127 66.5961 185.656 61.5057 177.641 61.3522C169.622 61.1988 162.225 67.7813 163.862 77.4804L163.858 77.4761Z" fill="#F6A397"/>
<path d="M170.564 87.4768C170.99 87.4853 171.464 87.3233 171.673 87.042C171.856 86.7947 171.933 86.4707 171.882 86.168C171.255 86.6838 170.487 86.7734 169.716 86.6369C169.622 87.2125 170.065 87.4598 170.564 87.4725V87.4768Z" fill="#D65863"/>
<path d="M184.748 77.4748C184.441 75.5733 183.171 74.4734 183.171 74.4734C183.171 74.4734 180.105 73.2029 177.735 72.9684C175.364 72.7382 172.934 72.0433 172.934 72.0433C172.934 72.0433 173.685 73.9447 174.959 74.759C174.959 74.759 169.294 74.4734 167.503 72.7936C167.503 72.7936 167.848 74.1749 168.198 75.1043C168.198 75.1043 165.422 74.8187 164.557 73.7188C164.557 73.7188 163.862 76.1361 163.862 77.4705C163.862 77.4705 160.528 72.9087 161.376 69.2849C162.225 65.6611 163.38 64.2755 163.38 64.2755C163.38 64.2755 160.989 64.5057 159.68 64.2755C159.68 64.2755 162.762 61.5768 165.077 59.8033C167.388 58.0298 174.328 57.953 174.328 57.953C174.328 57.953 173.787 56.1027 174.405 53.1738C174.405 53.1738 177.373 57.5309 180.515 58.8611C183.657 60.1913 183.235 60.0761 186.564 60.9203C189.894 61.7602 193.062 63.8918 194.392 65.6867C195.722 67.4815 197.167 69.3275 198.033 69.6175C198.033 69.6175 195.952 69.3275 194.912 68.4621C194.912 68.4621 196.647 72.4057 194.353 77.479C192.06 82.5524 186.313 81.0517 185.2 79.9304C184.087 78.8092 184.752 77.479 184.752 77.479L184.748 77.4748Z" fill="#BA6454"/>
<path d="M185.194 79.9272C184.082 78.806 184.747 77.4758 184.747 77.4758C184.563 76.3247 184.026 75.4721 183.63 74.9732C184.465 69.9169 184.124 64.6688 182.641 59.7617C183.506 60.1113 184.022 60.2691 185.271 60.5931C186.81 62.908 187.961 65.5087 188.75 68.1477C189.76 71.5072 190.246 75.131 189.304 78.5118C189.061 79.3773 188.712 80.2214 188.268 81.0144C186.844 80.895 185.638 80.3834 185.19 79.9315L185.194 79.9272Z" fill="#874438"/>
<path d="M186.766 75.5907C186.766 75.5907 187.163 62.9116 180.512 58.8614C180.512 58.8614 185.658 58.2816 188.608 63.4274C191.558 68.5733 191.358 72.9858 191.281 75.4585C191.208 77.9312 186.766 75.5864 186.766 75.5864V75.5907Z" fill="#504984"/>
<path d="M188.791 75.1035C194.013 75.1035 195.966 79.1153 195.966 82.1209C195.966 84.8196 195.101 89.1384 188.791 89.1384C185.636 89.1384 183.5 85.9963 183.5 82.1209C183.5 78.2456 185.636 75.1035 188.791 75.1035Z" fill="#504984"/>
<path d="M185.977 82.1271C185.977 78.6866 188.249 75.8984 191.05 75.8984C193.851 75.8984 195.97 78.6866 195.97 82.1271C195.97 85.5676 193.851 88.3559 191.05 88.3559C188.249 88.3559 185.977 85.5676 185.977 82.1271Z" fill="#372D5B"/>
<path d="M191.719 86.3688C193.626 86.3688 195.172 84.4696 195.172 82.1268C195.172 79.784 193.626 77.8848 191.719 77.8848C189.812 77.8848 188.266 79.784 188.266 82.1268C188.266 84.4696 189.812 86.3688 191.719 86.3688Z" fill="#504984"/>
<path d="M175.552 89.1445C174.141 89.9205 169.532 90.1805 169.217 90.1379C168.901 90.0953 169.545 93.5954 170.675 93.7233C171.805 93.8512 174.06 93.5485 175.002 92.6447C175.944 91.7366 175.548 89.1445 175.548 89.1445H175.552Z" fill="#D65863"/>
<path d="M175.257 90.1628C175.172 89.8516 175.103 89.6043 175.035 89.3613C173.483 89.89 170.427 90.1159 169.484 90.1373C169.561 90.6062 169.698 91.0794 169.885 91.5441C169.915 91.5228 169.877 91.591 169.906 91.5697C171.94 91.8895 174.012 91.2287 175.253 90.1628H175.257Z" fill="white"/>
<path d="M174.93 80.7745C174.93 80.135 175.245 79.6191 175.633 79.6191C176.021 79.6191 176.337 80.135 176.337 80.7745C176.337 81.414 176.021 81.9299 175.633 81.9299C175.245 81.9299 174.93 81.414 174.93 80.7745Z" fill="#3F1751"/>
<path d="M166.879 81.3175C166.879 80.678 167.152 80.1621 167.484 80.1621C167.817 80.1621 168.09 80.678 168.09 81.3175C168.09 81.957 167.817 82.4728 167.484 82.4728C167.152 82.4728 166.879 81.957 166.879 81.3175Z" fill="#3F1751"/>
<path d="M178.868 76.2675C178.387 76.0032 177.871 75.8198 177.338 75.6664C176.805 75.5214 176.251 75.4404 175.688 75.4191C175.129 75.3892 174.541 75.3765 174 75.5854C173.458 75.7729 172.968 76.114 172.605 76.5617L172.648 76.6299C173.228 76.5659 173.71 76.4252 174.217 76.357C174.712 76.2845 175.193 76.1012 175.709 76.0586C176.732 75.9733 177.807 76.0543 178.838 76.34L178.873 76.2675H178.868Z" fill="#3F1751"/>
<path d="M164.848 77.7617C165.1 77.6636 165.364 77.6039 165.624 77.5741C165.884 77.54 166.148 77.5272 166.408 77.5229C166.668 77.5229 166.929 77.6124 167.184 77.5485C167.312 77.5186 167.444 77.4931 167.577 77.4376C167.713 77.3907 167.849 77.3311 167.999 77.2287L168.007 77.1477C167.756 76.9005 167.47 76.7981 167.18 76.7427C166.886 76.6873 166.6 76.8067 166.319 76.8834C166.038 76.9559 165.76 77.0539 165.5 77.1904C165.245 77.3311 164.997 77.4803 164.797 77.6977L164.848 77.7617Z" fill="#3F1751"/>
<path d="M172.987 160.799C172.987 160.978 172.739 161.238 172.126 161.238H152.817C150.591 161.238 150.071 160.355 150.741 159.243C151.41 158.13 154.228 155.679 161.207 153.973C168.182 152.268 171.853 156.258 172.987 158.058C173.818 159.375 172.987 160.799 172.987 160.799Z" fill="#504984"/>
<path d="M150.58 159.575C150.964 160.854 165.698 160.185 165.698 160.185C165.698 160.185 164.206 158.168 162.551 158.109C160.902 158.049 160.096 158.625 157.883 159.004C155.67 159.383 157.312 158.104 157.312 158.104C157.312 158.104 155.747 157.759 155.112 157.265C155.112 157.265 158.761 156.186 160.292 155.934C161.822 155.683 165.719 155.849 166.222 155.934C166.576 155.994 168.375 154.95 170.549 155.474C171.76 156.361 172.566 157.363 172.997 158.049C173.828 159.366 172.997 160.79 172.997 160.79C172.997 160.969 172.749 161.229 172.135 161.229H152.827C150.827 161.229 150.209 160.522 150.584 159.571L150.58 159.575Z" fill="#372D5B"/>
<path d="M213.591 148.725C213.591 148.725 199.859 150.849 192.42 152.179C185.368 153.441 179.284 153.986 177.558 153.654C175.831 153.321 169.931 151.147 168.038 150.371C166.145 149.595 162.359 149.147 160.411 149.757C158.462 150.371 156.868 151.036 156.088 151.036C155.307 151.036 155.457 152.298 156.497 152.558C157.537 152.818 158.462 152.78 158.462 152.78C158.462 152.78 154.936 154.711 154.305 154.894C153.674 155.078 154.421 156.229 155.277 156.156C155.277 156.156 154.531 156.6 154.791 157.047C155.052 157.491 156.906 157.491 156.906 157.491C156.906 157.491 154.642 158.603 156.535 159.051C158.428 159.495 160.692 157.38 161.621 157.197C162.551 157.009 164.699 157.124 165.74 157.9C166.78 158.676 171.231 162.278 177.319 160.125C177.319 160.125 218.631 161.801 222.749 161.801C226.867 161.801 229.357 158.16 228.036 151.147C226.714 144.134 224.156 138.898 224.156 138.898L209.904 139.9L213.596 148.721L213.591 148.725Z" fill="#F6A397"/>
<path d="M161.715 151.672C162.077 151.587 162.367 151.536 162.55 151.527C162.55 151.527 162.197 151.587 161.715 151.672Z" fill="#D65863"/>
<path d="M158.462 152.785C158.462 152.785 157.533 152.823 156.497 152.563C156.203 152.491 155.985 152.337 155.836 152.154C156.991 152.666 158.415 152.337 159.191 152.154C159.681 152.039 160.888 151.817 161.715 151.668C160.888 151.864 159.677 152.244 158.462 152.785Z" fill="#D65863"/>
<path d="M158.645 154.456C158.734 154.418 158.81 154.384 158.857 154.371C158.857 154.371 158.776 154.405 158.645 154.456Z" fill="#D65863"/>
<path d="M154.312 155.728C154.312 155.728 154.735 156.098 155.591 155.728C156.308 155.416 158.039 154.704 158.644 154.457C157.885 154.802 155.826 155.966 155.276 156.162C154.897 156.196 154.538 155.988 154.312 155.728Z" fill="#D65863"/>
<path d="M156.444 157.089C157.075 156.902 158.392 156.105 159.198 155.725C160.004 155.346 161.036 155.299 161.036 155.299C161.036 155.299 160.729 155.329 159.923 155.725C159.117 156.122 156.905 157.499 156.905 157.499C156.905 157.499 155.715 157.499 155.105 157.268C155.11 157.268 155.817 157.273 156.444 157.089Z" fill="#D65863"/>
<path d="M168.191 157.999C169.359 158.724 172.812 159.67 174.871 159.278C176.93 158.886 177.378 157.164 177.378 157.164L177.954 159.018C177.954 159.018 206.603 159.837 212.431 159.572C218.191 159.312 227.174 159.184 228.346 155.723C228.026 159.739 225.848 161.806 222.748 161.806C218.63 161.806 177.318 160.131 177.318 160.131C171.23 162.284 166.779 158.686 165.739 157.905C164.874 157.257 163.245 157.074 162.184 157.134C163.765 156.58 167.022 157.275 168.191 157.999Z" fill="#D65863"/>
<path d="M213.59 148.725C213.59 148.725 218.957 147.996 220.032 147.885L219.217 144.547L212.426 145.92L213.59 148.729V148.725Z" fill="#D65863"/>
<path d="M227.937 139.376C228.137 139.901 228.009 140.489 227.609 140.877C225.115 143.311 221.84 146.633 218.472 147.14C214.797 147.698 208.675 147.92 208.343 147.14C208.01 146.36 206.782 136.452 204.557 131.442C202.331 126.433 200.882 123.871 200.328 120.976C199.773 118.081 204.783 111.29 207.008 110.731C209.234 110.173 214.358 109.84 216.473 111.733C218.588 113.626 220.148 120.861 222.595 126.318C224.573 130.722 227.054 137.078 227.941 139.372L227.937 139.376Z" fill="#D0A2F7"/>
<path d="M214.154 110.641C213.472 110.564 212.789 110.504 212.107 110.491C211.425 110.466 210.743 110.466 210.065 110.504C209.387 110.547 208.714 110.615 208.049 110.734C207.716 110.786 207.388 110.867 207.06 110.939C206.753 111.05 206.437 111.131 206.156 111.306C205.857 111.438 205.597 111.651 205.32 111.834C205.069 112.056 204.804 112.256 204.574 112.504C204.084 112.964 203.674 113.506 203.252 114.034C202.843 114.576 202.476 115.151 202.123 115.735C201.76 116.315 201.44 116.916 201.125 117.53C201.585 116.234 202.221 115.002 202.984 113.847C203.372 113.275 203.794 112.717 204.284 112.218C204.514 111.954 204.8 111.741 205.06 111.506C205.35 111.306 205.627 111.08 205.951 110.926C206.258 110.743 206.612 110.649 206.953 110.53C207.294 110.457 207.635 110.376 207.976 110.334C208.663 110.236 209.357 110.172 210.048 110.176C211.429 110.176 212.811 110.308 214.145 110.636L214.154 110.641Z" fill="#D0A2F7"/>
<path d="M225.157 141.427C225.14 139.649 221.384 123.342 218.062 114.248C219.474 117.352 220.791 122.314 222.59 126.322C224.568 130.726 227.05 137.082 227.936 139.376C228.137 139.9 228.009 140.489 227.608 140.877C226.653 141.81 225.583 142.872 224.436 143.857C224.521 143.772 225.174 143.089 225.157 141.427Z" fill="#D0A2F7"/>
<path d="M46.07 123.056C46.0018 123.606 46.1169 124.156 46.3813 124.642C47.3533 126.411 47.8436 128.441 47.7796 130.453C47.737 131.783 47.4642 133.139 47.8265 134.418C48.449 136.626 50.781 137.986 51.5271 140.156C52.1922 142.079 51.574 144.492 52.9553 145.984C53.2964 146.355 53.8293 146.637 54.2983 146.449C54.5328 146.355 54.7076 146.159 54.8781 145.967C56.4598 144.168 58.1566 141.985 57.6663 139.64C57.2059 137.436 54.9378 135.948 54.5072 133.74C54.1576 131.937 55.0785 129.852 54.0425 128.334C53.7568 127.916 53.3476 127.592 53.0363 127.192C51.8085 125.614 52.2604 123.095 50.845 121.683C50.3845 121.223 49.8047 120.963 49.1737 120.826C47.6901 120.511 46.2491 121.543 46.0658 123.052L46.07 123.056Z" fill="#0276E5"/>
<path d="M55.0734 151.049C55.1672 149.872 55.2098 148.7 55.2525 147.519C55.197 146.342 55.1373 145.17 55.035 143.993C54.9327 142.821 54.8005 141.644 54.5959 140.476C54.3827 139.316 54.1056 138.131 53.6196 137.04C52.7669 134.882 52.0763 132.631 51.3814 130.397L50.3709 127.029C49.9574 125.929 49.5524 124.825 49.1602 123.717C49.3307 124.885 49.5993 126.032 49.8338 127.187L50.8442 130.564C51.5434 132.806 52.2255 135.049 53.0995 137.257C53.5727 138.314 53.8328 139.431 54.0417 140.574C54.2463 141.717 54.3742 142.876 54.4765 144.04C54.5746 145.204 54.6428 146.372 54.6854 147.54L55.0691 151.045L55.0734 151.049Z" fill="#91B9F8"/>
<path d="M48.8715 127.231C49.0633 127.525 49.3148 127.742 49.5834 127.938C49.7199 128.032 49.8819 128.092 50.0311 128.169C50.1846 128.241 50.3167 128.339 50.4404 128.45L50.4958 128.497L50.5427 128.424C50.6535 128.254 50.79 128.092 50.8965 127.921C50.9989 127.746 51.1097 127.572 51.1992 127.393C51.3783 127.026 51.5105 126.638 51.5787 126.22L51.5446 126.203C51.2504 126.51 51.0244 126.851 50.8411 127.214C50.7516 127.397 50.6791 127.589 50.6024 127.776C50.5299 127.968 50.483 128.173 50.4148 128.365L50.5171 128.339C50.3721 128.254 50.24 128.156 50.1249 128.032C50.0098 127.913 49.9032 127.776 49.7753 127.67C49.511 127.469 49.2253 127.299 48.8885 127.201L48.8672 127.231H48.8715Z" fill="#91B9F8"/>
<path d="M49.1566 131.245C49.357 131.411 49.5659 131.59 49.7833 131.739C50.0007 131.893 50.2224 132.042 50.4612 132.161C50.7042 132.276 50.96 132.37 51.1902 132.502C51.4247 132.63 51.6379 132.792 51.8468 132.963L51.9192 133.022L51.9917 132.924C52.3157 132.502 52.5886 132.055 52.8487 131.599C53.0917 131.134 53.3134 130.652 53.4668 130.136L53.4327 130.119C53.0703 130.52 52.7719 130.955 52.4991 131.402C52.2433 131.863 52.0002 132.328 51.8041 132.822L51.9533 132.784C51.7103 132.669 51.4673 132.549 51.2499 132.4C51.0282 132.251 50.8321 132.063 50.6189 131.897C50.4015 131.739 50.167 131.607 49.9283 131.488C49.6853 131.373 49.4422 131.257 49.1609 131.202L49.1523 131.24L49.1566 131.245Z" fill="#91B9F8"/>
<path d="M50.5859 136.55C50.8076 136.772 51.0549 136.938 51.3064 137.087C51.558 137.241 51.8351 137.343 52.1293 137.415C52.4234 137.488 52.6878 137.616 52.9222 137.795C53.1567 137.974 53.3869 138.17 53.6257 138.328L53.8047 138.443L53.9369 138.242C54.133 137.948 54.3078 137.646 54.4485 137.322C54.5849 136.997 54.7086 136.665 54.7768 136.303L54.7342 136.281C54.4656 136.533 54.2481 136.814 54.052 137.104C53.8516 137.394 53.6896 137.705 53.549 138.029L53.8602 137.948C53.5916 137.799 53.3059 137.714 53.0203 137.616C52.7389 137.518 52.4789 137.377 52.2444 137.185C52.0142 136.989 51.7583 136.831 51.4812 136.729C51.2041 136.622 50.9185 136.533 50.6072 136.507L50.5859 136.55Z" fill="#91B9F8"/>
<path d="M56.9417 151.278C57.8584 151.129 61.3031 150.024 61.0644 149.125C60.0327 145.267 59.0009 140.888 62.5736 138.999C64.2917 138.091 66.4532 137.631 67.4338 135.947C68.4442 134.216 67.6981 132.016 66.7943 130.23C65.8905 128.443 64.7991 126.529 65.187 124.564C65.592 122.505 67.5404 120.987 67.8516 118.911C68.2779 116.08 65.5238 113.795 62.8848 112.691C61.9853 112.315 60.9962 111.991 60.0497 112.222C59.3718 112.384 58.7878 112.818 58.3231 113.339C56.4685 115.415 56.541 118.544 56.9673 121.298C57.3937 124.052 58.0374 126.956 57.0014 129.543C56.2639 131.381 54.6907 133.108 55.1128 135.039C55.2833 135.81 55.7651 136.488 55.9484 137.26C56.4429 139.336 54.7205 141.208 53.9276 143.195C52.9086 145.753 53.6078 148.882 55.5434 150.826C55.91 151.197 56.4344 151.372 56.946 151.286L56.9417 151.278Z" fill="#D0A2F7"/>
<path d="M56.6179 151.32C56.8311 149.794 57.0442 148.272 57.3171 146.759C57.381 146.379 57.462 146.004 57.5217 145.629C57.5771 145.249 57.6112 144.87 57.6752 144.49C57.7903 143.736 57.9182 142.981 58.0589 142.231C58.3488 140.734 58.6984 139.242 59.21 137.827C59.4658 137.123 59.7728 136.428 60.1735 135.836C60.3739 135.537 60.6084 135.277 60.8684 135.098C61.2138 134.872 61.542 134.582 61.7978 134.233C62.3265 133.529 62.4885 132.638 62.4672 131.837C62.4501 131.023 62.2966 130.247 62.1219 129.488C61.768 127.97 61.3203 126.508 61.0731 125.016C60.8215 123.532 60.7746 122.014 61.1626 120.59C61.282 120.245 61.3758 119.891 61.4909 119.537C61.606 119.183 61.7595 118.842 61.93 118.51C62.2711 117.84 62.7187 117.214 63.2175 116.621C62.6079 117.099 62.0451 117.649 61.5761 118.284C61.3417 118.599 61.12 118.936 60.9324 119.29C60.7363 119.64 60.5743 120.015 60.489 120.407C60.0627 121.963 60.1223 123.596 60.3824 125.135C60.6382 126.683 61.0944 128.166 61.4397 129.646C61.606 130.383 61.7509 131.125 61.768 131.85C61.785 132.57 61.6444 133.278 61.2351 133.819C61.0347 134.092 60.7789 134.318 60.4805 134.514C60.1053 134.77 59.8239 135.098 59.5937 135.439C59.1333 136.122 58.8178 136.851 58.5492 137.588C58.0163 139.067 57.6624 140.581 57.3682 142.099C57.2233 142.858 57.0911 143.621 56.976 144.388C56.9248 144.772 56.8524 145.151 56.8055 145.535C56.7671 145.919 56.7501 146.307 56.7245 146.69C56.6392 148.234 56.5838 149.777 56.6136 151.32H56.6179Z" fill="#91B9F8"/>
<path d="M62.7193 121.196C62.4549 121.29 62.2333 121.443 62.0286 121.605C61.824 121.772 61.6321 121.951 61.4872 122.172C61.3422 122.394 61.2143 122.629 61.0267 122.812C60.8477 122.999 60.6302 123.157 60.4256 123.323L60.6985 123.34C60.6047 123.144 60.4938 122.957 60.3915 122.769C60.2849 122.582 60.1783 122.394 60.0504 122.219C59.9311 122.04 59.7946 121.874 59.6667 121.699C59.5346 121.529 59.3896 121.367 59.2702 121.188L59.2233 121.196C59.2148 121.435 59.2873 121.661 59.3598 121.87C59.4408 122.079 59.5303 122.283 59.6411 122.475C59.7435 122.671 59.8714 122.85 60.0035 123.025C60.1357 123.2 60.2636 123.375 60.4213 123.537L60.5919 123.716L60.6942 123.554C60.8349 123.332 60.967 123.102 61.1418 122.91C61.3081 122.71 61.5341 122.569 61.7472 122.415C61.9647 122.262 62.1309 122.07 62.2972 121.874C62.4635 121.674 62.617 121.469 62.7534 121.23L62.7235 121.192L62.7193 121.196Z" fill="#91B9F8"/>
<path d="M59.3796 127.041C59.4905 127.306 59.6312 127.544 59.7889 127.77C59.9509 127.992 60.1214 128.209 60.3133 128.401C60.5137 128.589 60.7396 128.751 60.9528 128.926C61.1617 129.105 61.345 129.305 61.5113 129.522L61.5624 129.591L61.6392 129.531C61.9163 129.309 62.138 129.109 62.3554 128.87C62.5643 128.631 62.786 128.41 62.9779 128.162C63.174 127.915 63.353 127.664 63.5278 127.399C63.7026 127.139 63.8604 126.866 64.0394 126.611L64.0139 126.572C63.7112 126.717 63.4724 126.939 63.2379 127.152C63.0077 127.37 62.7903 127.604 62.5899 127.847C62.3895 128.09 62.219 128.354 62.0314 128.606C61.8481 128.853 61.6946 129.156 61.5198 129.373L61.6477 129.382C61.4345 129.207 61.247 129.015 61.0807 128.793C60.9229 128.572 60.778 128.333 60.6117 128.12C60.4412 127.911 60.2451 127.723 60.049 127.532C59.8486 127.344 59.6397 127.169 59.4095 127.007L59.3711 127.037L59.3796 127.041Z" fill="#91B9F8"/>
<path d="M65.5196 131.553C65.2297 131.894 64.9313 132.205 64.6201 132.508C64.3131 132.806 63.9806 133.071 63.6566 133.36C63.3283 133.638 62.9574 133.889 62.5353 134.013C62.1175 134.145 61.6741 134.162 61.2435 134.158L61.4354 134.294C61.3586 133.932 61.2478 133.595 61.1284 133.25C61.0133 132.904 60.8641 132.572 60.685 132.256C60.506 131.936 60.2971 131.634 60.0498 131.357C59.7983 131.088 59.5041 130.837 59.1545 130.713L59.1289 130.751C59.3932 130.99 59.5979 131.267 59.7727 131.561C59.9517 131.855 60.1052 132.162 60.2544 132.474L60.685 133.42C60.8257 133.74 60.9493 134.068 61.073 134.392L61.1327 134.546L61.2648 134.524C61.721 134.452 62.1516 134.298 62.5737 134.149C62.9915 133.987 63.4221 133.842 63.8314 133.633C64.2449 133.429 64.5945 133.117 64.8887 132.764C65.1828 132.414 65.4216 132.013 65.5495 131.574L65.5069 131.553H65.5196Z" fill="#91B9F8"/>
<path d="M57.2152 135.004C57.0745 135.341 57.0276 135.712 57.0361 136.074C57.0532 136.437 57.1086 136.808 57.2365 137.149C57.3687 137.49 57.569 137.801 57.7865 138.087L58.4302 138.939L58.4771 138.999L58.5496 138.948C58.8992 138.701 59.2914 138.513 59.6709 138.317C60.046 138.116 60.4383 137.942 60.8262 137.775C61.2142 137.609 61.6064 137.439 62.0072 137.285C62.4037 137.123 62.8129 136.991 63.2265 136.837L63.218 136.791C62.3312 136.769 61.4401 136.961 60.6258 137.319C60.2166 137.498 59.8329 137.724 59.462 137.967C59.0911 138.215 58.7628 138.513 58.4388 138.82L58.5581 138.828C58.3194 138.577 58.102 138.3 57.9655 137.98C57.8121 137.669 57.7353 137.332 57.6287 137.012C57.4241 136.373 57.2919 135.716 57.2621 135.009L57.2152 135V135.004Z" fill="#91B9F8"/>
<path d="M50.6992 161.234H60.5304C61.4428 161.234 62.2187 160.445 62.3552 159.38L63.9113 147.289C64.0818 145.967 63.2163 144.773 62.0866 144.773H49.1431C48.0133 144.773 47.1478 145.967 47.3184 147.289L48.8745 159.38C49.0109 160.445 49.7868 161.234 50.6992 161.234Z" fill="#504984"/>
<path d="M49.1431 144.773H55.7598C54.63 144.773 53.7645 145.967 53.9351 147.289L55.4912 159.38C55.6276 160.445 56.4035 161.234 57.3159 161.234H50.6992C49.7868 161.234 49.0109 160.445 48.8745 159.38L47.3184 147.289C47.1478 145.967 48.0133 144.773 49.1431 144.773Z" fill="#372D5B"/>
<path d="M138.748 157.918H97.6371C97.2235 157.918 96.8867 158.255 96.8867 158.668V160.489C96.8867 160.902 97.2235 161.239 97.6371 161.239H138.748V157.918Z" fill="#282142"/>
<path d="M149.331 160.207V160.949C149.331 161.111 149.203 161.239 149.041 161.239H138.686C138.362 161.239 138.102 160.979 138.102 160.655V158.498C138.102 158.148 138.404 157.879 138.75 157.918L149.071 159.921C149.216 159.939 149.327 160.062 149.327 160.211L149.331 160.207Z" fill="#504984"/>
<path d="M66.9049 88.0391H143.743C145.299 88.0391 146.685 89.0154 147.213 90.4777L164.019 137.144C164.723 139.553 162.962 141.356 160.131 141.659C159.696 141.706 157.633 140.776 154.393 139.254H85.7019C84.1458 139.254 82.7602 138.278 82.2315 136.816L67.0498 94.66C64.4833 93.3213 63.021 92.5539 63.021 92.5539C63.021 92.5539 62.0702 88.0391 66.9091 88.0391H66.9049Z" fill="#504984"/>
<path d="M141.333 90.4434H64.4989C63.4074 90.4434 62.6486 91.5262 63.0152 92.5537L79.8213 139.22C80.3499 140.682 81.7355 141.659 83.2916 141.659H160.13C161.221 141.659 161.98 140.576 161.613 139.548L144.807 92.882C144.279 91.4197 142.893 90.4434 141.337 90.4434H141.333Z" fill="#372D5B"/>
<path d="M123.989 141.659L120.579 129.006L107.652 141.659H123.989Z" fill="#282142"/>
<path d="M105.282 106.831C105.619 108.916 106.97 109.76 108.586 109.76C110.202 109.76 111.417 108.426 111.135 106.831C110.854 105.241 109.447 103.902 107.831 103.902C106.215 103.902 105.022 105.232 105.282 106.831Z" fill="#504984"/>
<path d="M141.391 133.89L140.402 131.148H141.643L142.632 133.89H141.391Z" fill="#282142"/>
<path d="M138.774 133.89L137.785 131.148H139.03L140.019 133.89H138.774Z" fill="#282142"/>
<path d="M136.161 133.89L135.172 131.148H136.413L137.402 133.89H136.161Z" fill="#282142"/>
<path d="M133.543 133.89L132.559 131.148H133.799L134.788 133.89H133.543Z" fill="#282142"/>
<path d="M96.3953 133.89L95.4062 131.148H96.6469L97.636 133.89H96.3953Z" fill="#282142"/>
<path d="M93.7778 133.89L92.793 131.148H94.0336L95.0227 133.89H93.7778Z" fill="#282142"/>
<path d="M91.1649 133.89L90.1758 131.148H91.4164L92.4055 133.89H91.1649Z" fill="#282142"/>
<path d="M88.5473 133.89L87.5625 131.148H88.8031L89.7922 133.89H88.5473Z" fill="#282142"/>
<path d="M98.0412 156.726C98.8001 154.547 107.996 124.879 107.996 124.879H119.797L120.577 129.01C120.577 129.01 112.664 154.547 111.906 156.726C111.846 156.892 111.795 157.058 111.739 157.225C111.044 159.356 112.873 159.348 114.937 159.348H135.75V161.236H101.072C96.9029 161.236 97.2824 158.909 98.0412 156.726Z" fill="#372D5B"/>
<path d="M119.798 124.875C119.798 124.875 110.602 154.543 109.843 156.722C109.084 158.901 108.705 161.233 112.874 161.233H99.01C94.8404 161.233 95.2199 158.905 95.9787 156.722C96.7376 154.539 105.934 124.875 105.934 124.875H119.798Z" fill="#504984"/>
<path d="M116.906 124.875C115.993 124.833 115.077 124.811 114.164 124.781C113.252 124.752 112.335 124.743 111.423 124.722C110.511 124.709 109.594 124.679 108.682 124.679L105.94 124.662H105.787L105.74 124.811C105.356 126.005 104.981 127.203 104.623 128.405L103.527 132.008C102.824 134.417 102.12 136.825 101.477 139.251C102.321 136.885 103.105 134.502 103.89 132.119L105.028 128.533C105.412 127.339 105.778 126.141 106.141 124.939L105.94 125.088L108.682 125.071C109.594 125.071 110.511 125.046 111.423 125.029C112.335 125.007 113.252 125.003 114.164 124.969C115.077 124.939 115.993 124.918 116.906 124.875Z" fill="#7F74D1"/>
<path d="M36.5042 168.52H240.01C242.022 168.52 243.651 166.891 243.651 164.879C243.651 162.867 242.022 161.238 240.01 161.238H36.5042C34.4919 161.238 32.8633 162.867 32.8633 164.879C32.8633 166.891 34.4919 168.52 36.5042 168.52Z" fill="#D0A2F7"/>
<path d="M36.5045 168.52H240.01C242.023 168.52 243.651 166.891 243.651 164.879H32.8594C32.8594 166.891 34.488 168.52 36.5003 168.52H36.5045Z" fill="#F5EDFD"/>
<path d="M78.6906 52.9388C82.5451 36.4662 72.3161 19.9878 55.8434 16.1333C39.3708 12.2788 22.8924 22.5078 19.0378 38.9804C15.1833 55.453 25.4123 71.9313 41.885 75.7859C58.3576 79.6404 74.836 69.4114 78.6906 52.9388Z" fill="#D0A2F7"/>
<mask id="mask0_453_6441" style="mask-type:luminance" maskUnits="userSpaceOnUse" x="18" y="9" width="62" height="68">
<path d="M79.5024 45.968C79.5024 62.8848 65.7872 76.5999 48.8703 76.5999C31.9534 76.5999 18.2383 62.8848 18.2383 45.968C18.2383 29.0511 31.9534 9.38867 48.8703 9.38867C65.7872 9.38867 79.5024 29.0511 79.5024 45.968Z" fill="white"/>
</mask>
<g mask="url(#mask0_453_6441)">
<path d="M91.9443 70.4119C92.5241 73.3366 89.8211 75.9329 88.9727 76.419C88.1243 76.905 82.4413 79.1773 79.0221 79.2583C75.6072 79.3393 71.1008 72.113 72.9426 71.303C74.7886 70.493 87.3569 69.5977 88.734 69.5977C90.111 69.5977 91.94 70.4077 91.94 70.4077L91.9443 70.4119Z" fill="#FFC5C7"/>
<path d="M82.9865 68.8692C81.4943 77.6388 77.9558 84.4559 76.8516 84.5795C75.7474 84.7032 65.1317 81.0495 62.207 79.7066C59.2824 78.3679 63.1066 57.7888 64.927 58.1512C66.7475 58.5136 70.7422 62.4657 74.0378 64.3629C77.3333 66.26 82.9908 68.8692 82.9908 68.8692H82.9865Z" fill="white"/>
<path d="M65.5022 72.5137C66.5254 74.2702 74.9582 78.7168 79.6053 80.3369C78.4584 82.9247 77.3755 84.5192 76.8469 84.5789C75.9004 84.6812 67.9834 82.0209 63.8906 80.4093C64.2317 77.1522 65.4979 72.5137 65.4979 72.5137H65.5022Z" fill="#DCEDFF"/>
<path d="M91.9567 70.0075C92.042 73.4863 88.9084 73.9852 85.1567 73.0941C81.4049 72.2031 75.2828 63.7574 72.5543 59.9418C69.83 56.1261 64.7396 49.3261 63.6908 48.7165C62.6378 48.1068 60.229 47.7828 58.1613 44.3551C56.0978 40.9231 58.8135 33.7394 59.7856 32.8868C60.7619 32.0341 69.118 34.882 70.0901 36.3187C71.0621 37.7555 69.4037 45.4891 69.6978 46.4654C69.992 47.4375 77.1075 55.3971 80.2112 57.3454C83.3149 59.2938 91.8927 67.4921 91.9524 70.0117L91.9567 70.0075Z" fill="#FFC5C7"/>
<path d="M64.0712 38.6256C63.0864 38.1396 62.8519 35.927 63.4701 36.3149C64.0883 36.7029 65.1712 36.6944 66.6335 36.6773C68.0958 36.656 68.6969 36.5324 68.6969 36.5324C68.6969 36.5324 68.8461 37.4916 68.8376 38.2761C68.8376 38.2761 65.0518 39.1159 64.0712 38.6256Z" fill="#FE8A8B"/>
<path d="M57.5594 39.128C58.1563 38.0196 58.6167 37.1797 58.6167 37.1797L64.368 42.7135C65.9411 41.3492 67.8639 40.1043 67.8639 40.1043L68.3712 41.0081C67.4418 42.5813 66.6318 45.911 66.6105 46.721C66.6105 46.721 65.728 47.6973 65.2334 47.7783C65.2334 47.7783 71.3854 57.52 75.3375 62.312C79.2683 67.0741 81.9627 71.1925 83.813 72.5141C80.0741 70.3568 74.9751 63.3309 72.5536 59.9373C69.8293 56.1216 64.7389 49.3216 63.6901 48.712C62.637 48.1023 60.2283 47.7783 58.1605 44.3506C57.342 42.9906 57.2823 41.038 57.5594 39.128Z" fill="#FE8A8B"/>
<path d="M69.5269 39.6827C69.4586 40.2497 63.7458 45.2037 63.1447 45.7707C63.102 45.8133 62.6544 45.8773 62.5307 45.7707C61.013 44.4363 54.375 32.3881 54.2599 31.9533C54.149 31.5483 58.553 27.4043 59.9003 26.2959C60.0836 26.1466 60.8382 26.2362 60.9618 26.4195C62.3176 28.4275 69.6206 38.9494 69.5311 39.6827H69.5269Z" fill="#0C0835"/>
<path d="M68.9137 39.6832C68.8455 40.2503 63.1326 45.2042 62.5315 45.7713C61.9347 46.3383 53.7746 32.4228 53.6425 31.9538C53.5316 31.5488 58.4345 27.4731 59.7817 26.3604C59.965 26.2112 60.2208 26.2325 60.3444 26.4158C61.7002 28.4238 69.0033 38.9457 68.9137 39.679V39.6832Z" fill="#252384"/>
<path d="M67.9518 38.8688C67.8879 39.4018 62.5416 44.0317 61.9832 44.5646C61.4247 45.0976 53.789 32.0774 53.6697 31.6383C53.5673 31.2588 58.1547 27.4431 59.4124 26.4072C59.5829 26.2665 59.8216 26.2878 59.9367 26.4583C61.2072 28.3384 68.0371 38.1825 67.9518 38.8688Z" fill="#57AFF7"/>
<path d="M64.5256 32.0767C63.6431 31.5438 62.556 29.7362 62.4579 29.1265C62.3598 28.5169 62.4195 27.9712 62.897 27.8475C63.3745 27.7239 64.8368 29.6339 65.5659 30.2009C66.2949 30.7679 67.1859 31.9446 66.8236 32.7376C66.4612 33.5305 64.8411 33.2236 64.6663 33.1042C64.4915 32.9806 64.5299 32.0767 64.5299 32.0767H64.5256Z" fill="#FFC5C7"/>
<path d="M62.6223 28.0098C62.3409 28.7004 64.1698 31.4801 65.7729 32.2816L65.176 32.9637C65.176 32.9637 64.9074 32.9041 64.5578 32.8231C64.5109 32.5161 64.528 32.0812 64.528 32.0812C63.6455 31.5483 62.5583 29.7407 62.4602 29.131C62.3878 28.6706 62.4048 28.2442 62.6265 28.014L62.6223 28.0098Z" fill="#FE8A8B"/>
<path d="M66.583 34.8866C65.061 34.0723 63.8673 34.1661 63.0402 33.8293C62.2131 33.4925 62.0596 32.2177 62.6267 32.0046C63.1894 31.7914 66.6214 32.3414 67.5039 32.7336C68.3864 33.1301 68.8128 34.9505 68.8128 34.9505L66.5873 34.8823L66.583 34.8866Z" fill="#FFC5C7"/>
<path d="M65.9168 33.9365C66.778 34.0985 67.0721 33.9365 67.0721 33.9365C67.0466 34.2733 67.3663 34.4396 67.7244 34.9171L66.5819 34.883C65.0598 34.0687 63.8661 34.1625 63.039 33.8257C62.6596 33.6722 62.4336 33.3226 62.3398 32.9688C62.7065 33.6679 65.0598 33.7703 65.9168 33.9323V33.9365Z" fill="#FE8A8B"/>
<path d="M70.0963 36.3197C69.282 37.4452 65.3 36.9549 64.4985 36.8355C63.697 36.7119 63.1897 36.2088 63.2749 35.6972C63.4412 34.6655 68.7022 34.8488 69.137 35.0108C69.5719 35.1729 70.0963 36.3239 70.0963 36.3239V36.3197Z" fill="#FFC5C7"/>
<path d="M63.2972 35.9395C63.8429 36.4809 65.1475 36.7879 66.5757 36.903C67.8121 37.001 68.5241 36.9541 68.6861 36.9413C67.1854 37.1801 65.0537 36.9158 64.491 36.8305C63.8216 36.7282 63.3825 36.3573 63.293 35.9395H63.2972Z" fill="#FE8A8B"/>
<path d="M51.452 52.0662C59.9062 56.3679 61.296 56.2016 64.9241 58.1542C68.5565 60.1068 67.4736 80.6432 67.2434 83.8109C67.0132 86.9785 66.1392 99.5596 66.6209 102.97C67.1027 106.381 68.9828 119.043 69.8142 120.991C70.6455 122.94 72.2358 126.227 69.7801 128.175C67.3244 130.123 62.1274 131.462 50.8509 130.733C39.5701 130.004 27.4111 123.059 26.8739 122.087C26.3367 121.111 32.267 103.213 32.5143 99.8026C32.7616 96.3919 33.4352 93.8339 33.7933 92.2522C34.1514 90.6705 30.5617 83.2396 29.9904 78.4902C29.4191 73.7409 24.2562 60.6397 25.2368 58.2395C26.2131 55.8392 35.2002 53.1661 41.3223 50.1136C47.4402 47.0611 51.4563 52.0662 51.4563 52.0662H51.452Z" fill="white"/>
<path d="M59.8353 57.3906C58.4412 61.9652 55.6104 66.0878 51.8373 69.0295C47.2585 67.9082 42.6029 65.8874 38.8555 63.031C43.0463 66.1176 47.6166 68.714 52.5067 70.4875C56.6378 67.1025 59.0892 62.6814 59.8353 57.3906Z" fill="#DCEDFF"/>
<path d="M58.1054 55.2166C56.4811 54.526 54.3963 53.5667 51.4504 52.0703C51.4504 52.0703 47.4386 47.0694 41.3164 50.1177C39.1933 51.175 36.7248 52.1897 34.3672 53.1617C38.0123 59.3648 43.9213 64.2165 50.7384 66.523C54.3324 63.6921 56.9202 59.6334 58.1054 55.2166Z" fill="#FFC5C7"/>
<path d="M26.8742 122.088C26.3371 121.111 32.2674 103.214 32.5146 99.8032C32.7619 96.3925 33.4355 93.8345 33.7936 92.2528C34.1517 90.6712 30.562 83.2402 29.9907 78.4908C29.8927 77.6638 29.6497 76.5851 29.3299 75.353L33.1413 72.5137C35.3753 78.7509 36.7694 89.7076 38.8883 92.3893C41.0072 95.0666 46.2852 96.1623 46.2852 96.1623C46.2852 96.1623 41.0711 97.3816 38.7988 96.8913C38.7988 96.8913 36.3729 106.514 36.3431 111.259C36.3175 116.008 36.7566 123.192 36.8121 124.168C36.8334 124.53 36.7524 125.801 36.6458 127.246C31.1845 125.085 27.1727 122.633 26.87 122.083L26.8742 122.088Z" fill="#DCEDFF"/>
<path d="M42.282 41.4629C42.1967 46.5448 41.8599 50.0364 40.7344 51.0085C40.7344 51.0085 42.6699 59.4413 50.4036 58.7208C53.0213 58.4778 52.7698 54.0951 51.4567 52.0658L52.2368 45.8328L42.2862 41.4629H42.282Z" fill="#FFC5C7"/>
<path d="M41.3203 50.1171C41.9811 48.5567 42.2113 45.5212 42.2796 41.4668L52.2302 45.8367L51.7314 49.8357C49.9663 50.6287 41.3203 50.1213 41.3203 50.1213V50.1171Z" fill="#FE8A8B"/>
<path d="M31.1145 79.0142C33.4423 74.4354 34.376 67.0045 32.2742 63.0907C30.1723 59.177 26.2074 57.7701 25.2354 58.2391C24.2634 58.708 21.6286 64.8131 19.1516 67.6269C16.6789 70.445 9.92152 78.3449 9.71688 79.01C9.51224 79.6751 14.5984 85.0426 24.1696 88.9861C25.3079 89.4551 31.1145 79.01 31.1145 79.01V79.0142Z" fill="white"/>
<path d="M24.0166 82.5612L22.4903 85.6905C22.4903 85.6905 30.0108 78.153 33.1316 72.5254C32.7521 74.8702 32.0487 77.1724 31.115 79.0099C31.115 79.0099 25.3084 89.455 24.17 88.9861C22.5329 88.3125 21.0365 87.5962 19.668 86.8672L24.0208 82.5612H24.0166Z" fill="#DCEDFF"/>
<path d="M52.806 41.9184C52.2902 39.8251 52.2987 37.6807 52.175 35.5405C52.0813 33.9375 52.0002 32.4709 50.5464 31.5159C49.4849 30.8168 48.1505 30.6803 46.9013 30.8381C43.5418 31.2644 42.8213 34.5386 43.0771 37.6381C43.2732 40.0127 44.2026 42.2893 45.1192 44.4722C43.8829 44.4167 42.1946 43.7687 41.457 42.7413C41.7896 44.0927 42.4163 45.3376 43.3968 46.2926C39.8156 46.2329 36.4945 43.8881 34.5973 40.7418C32.7001 37.5954 32.099 33.7542 32.3037 30.0494C32.5424 25.6539 33.9152 21.2499 36.6309 17.8648C42.0965 11.0605 52.6312 10.2676 59.0475 16.1126C61.2517 18.1248 62.8504 20.8193 63.6519 23.7396C64.705 27.5809 64.6837 31.7035 63.8608 35.5917C63.5198 37.1989 63.3663 38.593 63.2043 40.2046C63.1531 40.7034 62.5477 46.5058 62.8973 46.4845C60.6335 46.6209 58.0371 46.1647 56.5066 44.4381C57.193 45.6233 57.7856 46.7701 58.472 47.9553C55.6156 47.4821 53.518 44.8175 52.8018 41.9184H52.806Z" fill="#372D5B"/>
<path d="M41.0678 34.0149C40.0574 33.418 38.8423 33.094 37.9044 34.0447C36.5231 35.4431 38.4842 41.9617 41.46 40.3757C41.46 40.3757 45.7702 46.4041 48.9336 48.1094C52.097 49.8147 54.3523 48.9621 55.5375 47.7428C56.7228 46.5234 60.7644 41.5311 61.4892 36.2361C61.7492 34.3474 61.4721 30.6341 61.5275 29.8411C61.7066 27.4067 62.6275 25.4072 60.7047 23.493C58.7649 21.5617 56.0747 20.3936 53.3419 20.2955C49.8972 20.1761 46.4524 21.7237 44.1672 24.3073C41.6476 27.1637 41.2085 30.391 41.0635 34.0106L41.0678 34.0149Z" fill="#FFC5C7"/>
<path d="M38.3945 35.826C38.6503 34.6323 39.6693 34.3978 40.4281 35.2292C41.2041 36.0818 41.3362 38.7805 41.1359 39.1813C40.9355 39.5778 39.6011 39.5522 39.3495 38.7251C39.098 37.9023 39.8739 37.3822 40.6243 37.6294C40.6243 37.6294 40.8332 36.4272 40.2192 35.6513C39.6053 34.8753 38.9701 35.1738 38.8123 35.3741C38.6546 35.5745 38.3945 35.8303 38.3945 35.8303V35.826Z" fill="#FE8A8B"/>
<path d="M46.6367 30.5436C46.9266 30.275 47.2293 30.0277 47.5533 29.789C47.8774 29.5545 48.2184 29.3456 48.5851 29.1751C48.9474 29.0045 49.3269 28.8212 49.7276 28.7914C50.1241 28.7573 50.5249 28.7914 50.8915 28.9449V29.0003C50.6911 29.077 50.5078 29.1282 50.3245 29.1793L49.7873 29.3286C49.4377 29.4309 49.0753 29.4607 48.7215 29.5801C48.3719 29.6952 48.0223 29.8487 47.6812 30.0192C47.3359 30.1855 47.0034 30.3859 46.6666 30.5862L46.6367 30.5436Z" fill="#3F1751"/>
<path d="M60.1043 29.176C59.776 29.0012 59.4307 28.8776 59.0726 28.8009C58.7144 28.7199 58.3521 28.6815 57.9854 28.673C57.6188 28.6644 57.2521 28.7412 56.8855 28.7369C56.5188 28.7369 56.1479 28.7497 55.7472 28.7071L55.7344 28.6559C56.0797 28.4044 56.4719 28.2722 56.8684 28.1955C57.2692 28.1145 57.6657 28.1827 58.0536 28.2381C58.4416 28.2935 58.821 28.3958 59.1749 28.5408C59.5245 28.6943 59.8613 28.8819 60.1384 29.1291L60.1043 29.176Z" fill="#3F1751"/>
<path d="M50.2539 32.6845C50.2411 32.1687 49.981 31.7764 49.674 31.8063C49.3671 31.8361 49.1283 32.2795 49.1454 32.7954C49.1582 33.3112 49.4182 33.7035 49.7252 33.6736C50.0322 33.6438 50.2709 33.2004 50.2539 32.6845Z" fill="#3F1751"/>
<path d="M58.3814 32.0364C58.3686 31.5205 58.1554 31.124 57.9039 31.1496C57.6523 31.1752 57.4605 31.61 57.4733 32.1259C57.4861 32.6418 57.6992 33.0383 57.9508 33.0127C58.2023 32.9871 58.3941 32.5522 58.3814 32.0364Z" fill="#3F1751"/>
<path d="M52.7972 37.6896C53.5007 38.1799 54.5409 38.1671 55.3083 37.6641C55.2188 38.0606 55.044 38.4485 54.656 38.5892C54.2681 38.7299 53.8418 38.6873 53.4879 38.5253C53.134 38.3632 53.0189 38.0051 52.793 37.6896H52.7972Z" fill="#FE8A8B"/>
<path d="M49.9766 40.7119C51.6734 40.7374 55.7576 40.4262 57.0921 40.2344C56.5677 41.9568 55.1906 43.6536 53.2679 43.6578C51.5369 43.6578 50.3944 42.2381 49.9766 40.7119Z" fill="#C31F2A"/>
<path d="M51.5352 43.0959C52.2088 42.887 52.8994 42.9935 53.1723 43.0788C53.1723 43.0788 54.0718 42.4521 55.3764 42.8614C54.7838 43.3389 54.0761 43.6544 53.2661 43.6544C52.5967 43.6544 52.0212 43.4412 51.5352 43.0916V43.0959Z" fill="#FB8384"/>
<path d="M55.9371 41.6752C54.219 42.2123 52.3388 42.0546 50.723 41.4748C50.7102 41.219 50.6932 40.9632 50.6719 40.7074C52.3516 40.6733 55.0674 40.4686 56.5212 40.3066C56.3975 40.7841 56.2057 41.2488 55.9371 41.6752Z" fill="white"/>
<path d="M42.7657 28.4077C45.5369 28.2883 48.2867 27.6787 50.8447 26.6129C51.3308 25.4873 51.3478 24.4855 51.4203 23.2619C52.1152 24.5409 52.5288 25.9691 52.6012 27.4229C54.2128 27.3163 55.8371 27.231 57.4486 27.1287C57.9005 25.8497 57.956 24.5324 57.8835 23.1809C58.4292 24.4514 58.7021 26.0544 58.8896 27.4272C59.8617 27.0818 61.098 27.5849 62.117 27.7682C63.3789 24.9587 63.2937 19.8725 60.6291 17.7409C58.0327 15.6647 53.5178 15.1019 50.3459 15.5623C43.5928 16.5386 38.285 22.1449 38.7028 29.1325C38.9415 33.1187 40.941 36.8875 43.806 39.6629C42.1006 36.2608 41.7638 32.0827 42.7657 28.412V28.4077Z" fill="#372D5B"/>
</g>
<path d="M127.139 52.4822C129.614 42.9612 123.902 33.2367 114.381 30.762C104.86 28.2873 95.1353 33.9994 92.6606 43.5204C90.1858 53.0415 95.898 62.7659 105.419 65.2406C114.94 67.7154 124.665 62.0032 127.139 52.4822Z" fill="url(#paint10_linear_453_6441)"/>
<path d="M114.289 31.1158C123.614 33.5397 129.209 43.0646 126.785 52.3902C124.362 61.7158 114.837 67.3107 105.511 64.8868C96.1854 62.4629 90.5905 52.938 93.0144 43.6124C95.4383 34.2868 104.963 28.6919 114.289 31.1158Z" stroke="url(#paint11_linear_453_6441)" stroke-opacity="0.5" stroke-width="0.731211"/>
<path d="M101.113 54.9746H118.686C119.494 54.9746 120.148 54.3199 120.148 53.5123V42.4916C120.148 41.684 119.494 41.0293 118.686 41.0293H101.113C100.305 41.0293 99.6503 41.684 99.6503 42.4916V53.5123C99.6503 54.3199 100.305 54.9746 101.113 54.9746Z" fill="#DBE9FF"/>
<path d="M101.11 54.9749H118.688C119.494 54.9749 120.15 54.3226 120.15 53.5125L109.901 47.0664L99.6523 53.5125C99.6523 54.3183 100.305 54.9749 101.115 54.9749H101.11Z" fill="#CDDCF4"/>
<path d="M101.11 41.0293H118.688C119.494 41.0293 120.15 41.6816 120.15 42.4916L109.901 48.9378L99.6523 42.4916C99.6523 41.6859 100.305 41.0293 101.115 41.0293H101.11Z" fill="#D0A2F7"/>
<path d="M240.207 91.0109C249.791 88.7913 255.761 79.2228 253.541 69.6391C251.322 60.0554 241.753 54.0856 232.169 56.3052C222.586 58.5249 216.616 68.0933 218.835 77.677C221.055 87.2607 230.624 93.2305 240.207 91.0109Z" fill="url(#paint12_linear_453_6441)"/>
<path d="M253.185 69.7216C255.359 79.1086 249.512 88.4807 240.125 90.6547C230.738 92.8288 221.366 86.9815 219.192 77.5946C217.018 68.2076 222.865 58.8355 232.252 56.6614C241.639 54.4874 251.011 60.3346 253.185 69.7216Z" stroke="url(#paint13_linear_453_6441)" stroke-opacity="0.5" stroke-width="0.731211"/>
<path d="M241.184 70.1504H239.394C239.232 69.4427 238.955 68.7819 238.58 68.1893L239.846 66.9231C240.021 66.7483 240.021 66.4712 239.846 66.2964L238.439 64.8895C238.264 64.7147 237.987 64.7147 237.812 64.8895L236.546 66.1557C235.949 65.7805 235.288 65.5034 234.585 65.3414V63.5508C234.585 63.3078 234.389 63.1074 234.141 63.1074H232.15C231.907 63.1074 231.707 63.3035 231.707 63.5508V65.3414C230.999 65.5034 230.339 65.7805 229.746 66.1557L228.48 64.8895C228.305 64.7147 228.028 64.7147 227.853 64.8895L226.446 66.2964C226.271 66.4712 226.271 66.7483 226.446 66.9231L227.712 68.1893C227.337 68.7862 227.06 69.447 226.898 70.1504H225.107C224.864 70.1504 224.664 70.3465 224.664 70.5938V72.5848C224.664 72.8278 224.86 73.0282 225.107 73.0282H226.898C227.06 73.7359 227.337 74.3967 227.712 74.9893L226.446 76.2555C226.271 76.4303 226.271 76.7074 226.446 76.8822L227.853 78.2891C228.028 78.4639 228.305 78.4639 228.48 78.2891L229.746 77.0229C230.343 77.3981 231.004 77.6752 231.707 77.8372V79.6278C231.707 79.8708 231.903 80.0712 232.15 80.0712H234.141C234.384 80.0712 234.585 79.8751 234.585 79.6278V77.8372C235.293 77.6752 235.953 77.3981 236.546 77.0229L237.812 78.2891C237.987 78.4639 238.264 78.4639 238.439 78.2891L239.846 76.8822C240.021 76.7074 240.021 76.4303 239.846 76.2555L238.58 74.9893C238.955 74.3924 239.232 73.7316 239.394 73.0282H241.184C241.427 73.0282 241.628 72.8321 241.628 72.5848V70.5938C241.628 70.3508 241.432 70.1504 241.184 70.1504ZM233.144 74.337C231.626 74.337 230.394 73.1049 230.394 71.5872C230.394 70.0694 231.626 68.8373 233.144 68.8373C234.662 68.8373 235.894 70.0694 235.894 71.5872C235.894 73.1049 234.662 74.337 233.144 74.337Z" fill="#DBE9FF"/>
<path d="M233.145 67.7637C231.03 67.7637 229.32 69.4775 229.32 71.5879C229.32 73.6982 231.034 75.4121 233.145 75.4121C235.255 75.4121 236.969 73.6982 236.969 71.5879C236.969 69.4775 235.255 67.7637 233.145 67.7637ZM233.145 73.9242C231.853 73.9242 230.808 72.8797 230.808 71.5879C230.808 70.2961 231.853 69.2516 233.145 69.2516C234.436 69.2516 235.481 70.2961 235.481 71.5879C235.481 72.8797 234.436 73.9242 233.145 73.9242Z" fill="#D0A2F7"/>
<path d="M248.833 77.997H247.916C247.835 77.6347 247.69 77.2978 247.498 76.9952L248.146 76.3471C248.236 76.2576 248.236 76.1169 248.146 76.0274L247.426 75.3069C247.336 75.2174 247.196 75.2174 247.106 75.3069L246.458 75.9549C246.155 75.7631 245.814 75.6224 245.456 75.5371V74.6205C245.456 74.4969 245.354 74.3945 245.23 74.3945H244.211C244.088 74.3945 243.985 74.4969 243.985 74.6205V75.5371C243.623 75.6181 243.286 75.7631 242.983 75.9549L242.335 75.3069C242.246 75.2174 242.105 75.2174 242.016 75.3069L241.295 76.0274C241.206 76.1169 241.206 76.2576 241.295 76.3471L241.943 76.9952C241.751 77.2978 241.611 77.6389 241.525 77.997H240.609C240.485 77.997 240.383 78.0994 240.383 78.223V79.2419C240.383 79.3656 240.485 79.4679 240.609 79.4679H241.525C241.606 79.8303 241.751 80.1671 241.943 80.4698L241.295 81.1178C241.206 81.2073 241.206 81.348 241.295 81.4375L242.016 82.158C242.105 82.2476 242.246 82.2476 242.335 82.158L242.983 81.51C243.286 81.7019 243.627 81.8425 243.985 81.9278V82.8444C243.985 82.9681 244.088 83.0704 244.211 83.0704H245.23C245.354 83.0704 245.456 82.9681 245.456 82.8444V81.9278C245.819 81.8468 246.155 81.7019 246.458 81.51L247.106 82.158C247.196 82.2476 247.336 82.2476 247.426 82.158L248.146 81.4375C248.236 81.348 248.236 81.2073 248.146 81.1178L247.498 80.4698C247.69 80.1671 247.831 79.826 247.916 79.4679H248.833C248.956 79.4679 249.059 79.3656 249.059 79.2419V78.223C249.059 78.0994 248.956 77.997 248.833 77.997ZM244.723 80.1372C243.947 80.1372 243.32 79.5105 243.32 78.7346C243.32 77.9587 243.947 77.332 244.723 77.332C245.499 77.332 246.126 77.9587 246.126 78.7346C246.126 79.5105 245.499 80.1372 244.723 80.1372Z" fill="#DBE9FF"/>
<path d="M244.726 76.7773C243.647 76.7773 242.773 77.6513 242.773 78.7299C242.773 79.8086 243.647 80.6825 244.726 80.6825C245.805 80.6825 246.679 79.8086 246.679 78.7299C246.679 77.6513 245.805 76.7773 244.726 76.7773ZM244.726 79.9237C244.065 79.9237 243.532 79.3908 243.532 78.7299C243.532 78.0691 244.065 77.5362 244.726 77.5362C245.387 77.5362 245.92 78.0691 245.92 78.7299C245.92 79.3908 245.387 79.9237 244.726 79.9237Z" fill="#D0A2F7"/>
<path d="M162.471 39.6976C171.598 36.0268 176.021 25.6522 172.35 16.5254C168.679 7.39853 158.305 2.97555 149.178 6.64637C140.051 10.3172 135.628 20.6917 139.299 29.8186C142.97 38.9454 153.344 43.3684 162.471 39.6976Z" fill="url(#paint14_linear_453_6441)"/>
<path d="M172.011 16.6618C175.607 25.6013 171.274 35.7629 162.335 39.3584C153.395 42.9538 143.234 38.6216 139.638 29.6821C136.043 20.7426 140.375 10.581 149.314 6.98557C158.254 3.3901 168.416 7.72229 172.011 16.6618Z" stroke="url(#paint15_linear_453_6441)" stroke-opacity="0.5" stroke-width="0.731211"/>
<path d="M164.667 32.3359H146.987C146.211 32.3359 145.58 31.705 145.58 30.929V16.2206C145.58 15.4447 146.211 14.8137 146.987 14.8137L164.667 14.8137C165.443 14.8137 166.074 15.4447 166.074 16.2206V30.929C166.074 31.705 165.443 32.3359 164.667 32.3359Z" fill="white"/>
<path d="M145.574 18.4751H166.072V16.2155C166.072 15.4396 165.441 14.8086 164.665 14.8086H146.985C146.209 14.8086 145.578 15.4396 145.578 16.2155V18.4751H145.574Z" fill="#D0A2F7"/>
<path d="M161.179 15.59C161.409 15.59 161.593 15.4024 161.593 15.1722V14.4389C161.593 14.2087 161.405 14.0254 161.179 14.0254C160.949 14.0254 160.766 14.213 160.766 14.4389V15.1722C160.766 15.4024 160.953 15.59 161.179 15.59Z" fill="white"/>
<path d="M162.367 15.59C162.597 15.59 162.78 15.4024 162.78 15.1722V14.4389C162.78 14.2087 162.593 14.0254 162.367 14.0254C162.136 14.0254 161.953 14.213 161.953 14.4389V15.1722C161.953 15.4024 162.141 15.59 162.367 15.59Z" fill="white"/>
<path d="M149.285 15.59C149.515 15.59 149.698 15.4024 149.698 15.1722V14.4389C149.698 14.2087 149.511 14.0254 149.285 14.0254C149.054 14.0254 148.871 14.213 148.871 14.4389V15.1722C148.871 15.4024 149.059 15.59 149.285 15.59Z" fill="white"/>
<path d="M150.472 15.59C150.702 15.59 150.886 15.4024 150.886 15.1722V14.4389C150.886 14.2087 150.698 14.0254 150.472 14.0254C150.242 14.0254 150.059 14.213 150.059 14.4389V15.1722C150.059 15.4024 150.246 15.59 150.472 15.59Z" fill="white"/>
<path d="M158.222 20.6543H157.118C156.932 20.6543 156.781 20.8051 156.781 20.9911V22.0953C156.781 22.2813 156.932 22.4321 157.118 22.4321H158.222C158.408 22.4321 158.559 22.2813 158.559 22.0953V20.9911C158.559 20.8051 158.408 20.6543 158.222 20.6543Z" fill="#DBE9FF"/>
<path d="M153.996 20.6543H152.891C152.705 20.6543 152.555 20.8051 152.555 20.9911V22.0953C152.555 22.2813 152.705 22.4321 152.891 22.4321H153.996C154.182 22.4321 154.332 22.2813 154.332 22.0953V20.9911C154.332 20.8051 154.182 20.6543 153.996 20.6543Z" fill="#DBE9FF"/>
<path d="M149.769 20.6543H148.665C148.479 20.6543 148.328 20.8051 148.328 20.9911V22.0953C148.328 22.2813 148.479 22.4321 148.665 22.4321H149.769C149.955 22.4321 150.106 22.2813 150.106 22.0953V20.9911C150.106 20.8051 149.955 20.6543 149.769 20.6543Z" fill="#DBE9FF"/>
<path d="M162.445 24.2949H161.345C161.159 24.2949 161.008 24.4457 161.008 24.6317V25.7359C161.008 25.9219 161.159 26.0727 161.345 26.0727H162.445C162.631 26.0727 162.781 25.9219 162.781 25.7359V24.6317C162.781 24.4457 162.631 24.2949 162.445 24.2949Z" fill="#DBE9FF"/>
<path d="M158.222 24.2949H157.118C156.932 24.2949 156.781 24.4457 156.781 24.6317V25.7359C156.781 25.9219 156.932 26.0727 157.118 26.0727H158.222C158.408 26.0727 158.559 25.9219 158.559 25.7359V24.6317C158.559 24.4457 158.408 24.2949 158.222 24.2949Z" fill="#DBE9FF"/>
<path d="M153.996 24.2949H152.891C152.705 24.2949 152.555 24.4457 152.555 24.6317V25.7359C152.555 25.9219 152.705 26.0727 152.891 26.0727H153.996C154.182 26.0727 154.332 25.9219 154.332 25.7359V24.6317C154.332 24.4457 154.182 24.2949 153.996 24.2949Z" fill="#DBE9FF"/>
<path d="M149.769 24.2949H148.665C148.479 24.2949 148.328 24.4457 148.328 24.6317V25.7359C148.328 25.9219 148.479 26.0727 148.665 26.0727H149.769C149.955 26.0727 150.106 25.9219 150.106 25.7359V24.6317C150.106 24.4457 149.955 24.2949 149.769 24.2949Z" fill="#DBE9FF"/>
<path d="M162.445 27.9316H161.345C161.159 27.9316 161.008 28.0824 161.008 28.2684V29.3726C161.008 29.5587 161.159 29.7094 161.345 29.7094H162.445C162.631 29.7094 162.781 29.5587 162.781 29.3726V28.2684C162.781 28.0824 162.631 27.9316 162.445 27.9316Z" fill="#DBE9FF"/>
<path d="M158.222 27.9316H157.118C156.932 27.9316 156.781 28.0824 156.781 28.2684V29.3726C156.781 29.5587 156.932 29.7094 157.118 29.7094H158.222C158.408 29.7094 158.559 29.5587 158.559 29.3726V28.2684C158.559 28.0824 158.408 27.9316 158.222 27.9316Z" fill="#DBE9FF"/>
<path d="M153.996 27.9316H152.891C152.705 27.9316 152.555 28.0824 152.555 28.2684V29.3726C152.555 29.5587 152.705 29.7094 152.891 29.7094H153.996C154.182 29.7094 154.332 29.5587 154.332 29.3726V28.2684C154.332 28.0824 154.182 27.9316 153.996 27.9316Z" fill="#DBE9FF"/>
<path d="M219.41 44.9291C226.366 37.973 226.366 26.695 219.41 19.7389C212.454 12.7828 201.176 12.7828 194.22 19.7389C187.264 26.695 187.264 37.973 194.22 44.9291C201.176 51.8852 212.454 51.8852 219.41 44.9291Z" fill="url(#paint16_linear_453_6441)"/>
<path d="M219.152 19.9974C225.965 26.8107 225.965 37.8573 219.152 44.6706C212.339 51.4839 201.292 51.4839 194.479 44.6706C187.665 37.8573 187.665 26.8107 194.479 19.9974C201.292 13.1841 212.339 13.1841 219.152 19.9974Z" stroke="url(#paint17_linear_453_6441)" stroke-opacity="0.5" stroke-width="0.731211"/>
<path d="M215.442 40.9657C220.207 36.2007 220.207 28.4751 215.442 23.71C210.677 18.945 202.952 18.945 198.186 23.71C193.421 28.4751 193.421 36.2007 198.186 40.9657C202.952 45.7308 210.677 45.7308 215.442 40.9657Z" fill="white"/>
<path d="M206.815 20.1367C200.075 20.1367 194.613 25.598 194.613 32.3383C194.613 39.0786 200.075 44.54 206.815 44.54C213.555 44.54 219.017 39.0786 219.017 32.3383C219.017 25.598 213.555 20.1367 206.815 20.1367ZM207.838 42.7323V41.0654C207.838 40.7541 207.587 40.5026 207.275 40.5026H206.35C206.039 40.5026 205.787 40.7541 205.787 41.0654V42.7323C200.838 42.2506 196.898 38.3113 196.417 33.3615H198.084C198.395 33.3615 198.646 33.11 198.646 32.7988V31.8736C198.646 31.5624 198.395 31.3109 198.084 31.3109H196.417C196.898 26.3612 200.838 22.4219 205.787 21.9401V23.6071C205.787 23.9183 206.039 24.1698 206.35 24.1698H207.275C207.587 24.1698 207.838 23.9183 207.838 23.6071V21.9401C212.788 22.4219 216.727 26.3612 217.209 31.3109H215.542C215.231 31.3109 214.979 31.5624 214.979 31.8736V32.7988C214.979 33.11 215.231 33.3615 215.542 33.3615H217.209C216.727 38.3113 212.788 42.2506 207.838 42.7323Z" fill="#D0A2F7"/>
<path d="M200.215 39.127V38.5661L202.322 36.2603C202.569 35.9902 202.772 35.7555 202.932 35.5561C203.092 35.3546 203.211 35.1655 203.288 34.989C203.367 34.8103 203.406 34.6234 203.406 34.4281C203.406 34.2037 203.352 34.0095 203.244 33.8454C203.138 33.6813 202.993 33.5546 202.808 33.4653C202.623 33.3759 202.415 33.3313 202.185 33.3313C201.939 33.3313 201.725 33.3822 201.543 33.484C201.362 33.5837 201.222 33.7239 201.122 33.9046C201.024 34.0853 200.976 34.2972 200.976 34.5403H200.24C200.24 34.1664 200.326 33.8381 200.499 33.5556C200.671 33.2731 200.906 33.0529 201.203 32.895C201.502 32.7372 201.838 32.6582 202.209 32.6582C202.583 32.6582 202.915 32.7372 203.203 32.895C203.492 33.0529 203.719 33.2658 203.883 33.5338C204.047 33.8018 204.129 34.0999 204.129 34.4281C204.129 34.6628 204.086 34.8924 204.001 35.1167C203.918 35.339 203.773 35.5872 203.565 35.8614C203.359 36.1336 203.074 36.4659 202.708 36.8585L201.275 38.3916V38.4414H204.241V39.127H200.215ZM205.241 37.8183V37.1826L208.046 32.7455H208.507V33.7301H208.195L206.076 37.0829V37.1327H209.853V37.8183H205.241ZM208.245 39.127V37.6251V37.329V32.7455H208.98V39.127H208.245ZM202.484 43.4463L200.427 51.0867H199.754L201.811 43.4463H202.484ZM203.542 50.127L206.397 44.4808V44.431H203.106V43.7455H207.194V44.4684L204.352 50.127H203.542Z" fill="#D1C8D9"/>
<defs>
<linearGradient id="paint0_linear_453_6441" x1="-0.31875" y1="24.3565" x2="58.8913" y2="133.934" gradientUnits="userSpaceOnUse">
<stop stop-color="white" stop-opacity="0.5"/>
<stop offset="1" stop-color="white" stop-opacity="0.1"/>
</linearGradient>
<linearGradient id="paint1_linear_453_6441" x1="-0.31875" y1="24.3565" x2="58.8913" y2="133.934" gradientUnits="userSpaceOnUse">
<stop stop-color="white" stop-opacity="0.5"/>
<stop offset="1" stop-color="white" stop-opacity="0.1"/>
</linearGradient>
<linearGradient id="paint2_linear_453_6441" x1="176.79" y1="134.419" x2="188.668" y2="161.481" gradientUnits="userSpaceOnUse">
<stop stop-color="white" stop-opacity="0.5"/>
<stop offset="1" stop-color="white" stop-opacity="0.1"/>
</linearGradient>
<linearGradient id="paint3_linear_453_6441" x1="176.79" y1="134.419" x2="188.668" y2="161.481" gradientUnits="userSpaceOnUse">
<stop stop-color="white" stop-opacity="0.5"/>
<stop offset="1" stop-color="white" stop-opacity="0.1"/>
</linearGradient>
<linearGradient id="paint4_linear_453_6441" x1="168.691" y1="89.5023" x2="206.017" y2="131.131" gradientUnits="userSpaceOnUse">
<stop stop-color="white" stop-opacity="0.5"/>
<stop offset="1" stop-color="white" stop-opacity="0.1"/>
</linearGradient>
<linearGradient id="paint5_linear_453_6441" x1="168.691" y1="89.5023" x2="206.017" y2="131.131" gradientUnits="userSpaceOnUse">
<stop stop-color="white" stop-opacity="0.5"/>
<stop offset="1" stop-color="white" stop-opacity="0.1"/>
</linearGradient>
<linearGradient id="paint6_linear_453_6441" x1="20.6021" y1="132.13" x2="33.3182" y2="159.66" gradientUnits="userSpaceOnUse">
<stop stop-color="white" stop-opacity="0.5"/>
<stop offset="1" stop-color="white" stop-opacity="0.1"/>
</linearGradient>
<linearGradient id="paint7_linear_453_6441" x1="20.6021" y1="132.13" x2="33.3182" y2="159.66" gradientUnits="userSpaceOnUse">
<stop stop-color="white" stop-opacity="0.5"/>
<stop offset="1" stop-color="white" stop-opacity="0.1"/>
</linearGradient>
<linearGradient id="paint8_linear_453_6441" x1="32.2072" y1="87.2708" x2="70.5309" y2="124.728" gradientUnits="userSpaceOnUse">
<stop stop-color="white" stop-opacity="0.5"/>
<stop offset="1" stop-color="white" stop-opacity="0.1"/>
</linearGradient>
<linearGradient id="paint9_linear_453_6441" x1="32.2072" y1="87.2708" x2="70.5309" y2="124.728" gradientUnits="userSpaceOnUse">
<stop stop-color="white" stop-opacity="0.5"/>
<stop offset="1" stop-color="white" stop-opacity="0.1"/>
</linearGradient>
<linearGradient id="paint10_linear_453_6441" x1="88.2594" y1="60.8955" x2="109.98" y2="48.137" gradientUnits="userSpaceOnUse">
<stop stop-color="white" stop-opacity="0.5"/>
<stop offset="1" stop-color="white" stop-opacity="0.1"/>
</linearGradient>
<linearGradient id="paint11_linear_453_6441" x1="88.2594" y1="60.8955" x2="109.98" y2="48.137" gradientUnits="userSpaceOnUse">
<stop stop-color="white" stop-opacity="0.5"/>
<stop offset="1" stop-color="white" stop-opacity="0.1"/>
</linearGradient>
<linearGradient id="paint12_linear_453_6441" x1="214.733" y1="60.4578" x2="236.105" y2="73.7917" gradientUnits="userSpaceOnUse">
<stop stop-color="white" stop-opacity="0.5"/>
<stop offset="1" stop-color="white" stop-opacity="0.1"/>
</linearGradient>
<linearGradient id="paint13_linear_453_6441" x1="214.733" y1="60.4578" x2="236.105" y2="73.7917" gradientUnits="userSpaceOnUse">
<stop stop-color="white" stop-opacity="0.5"/>
<stop offset="1" stop-color="white" stop-opacity="0.1"/>
</linearGradient>
<linearGradient id="paint14_linear_453_6441" x1="132.591" y1="13.4378" x2="155.763" y2="23.3168" gradientUnits="userSpaceOnUse">
<stop stop-color="white" stop-opacity="0.5"/>
<stop offset="1" stop-color="white" stop-opacity="0.1"/>
</linearGradient>
<linearGradient id="paint15_linear_453_6441" x1="132.591" y1="13.4378" x2="155.763" y2="23.3168" gradientUnits="userSpaceOnUse">
<stop stop-color="white" stop-opacity="0.5"/>
<stop offset="1" stop-color="white" stop-opacity="0.1"/>
</linearGradient>
<linearGradient id="paint16_linear_453_6441" x1="181.625" y1="32.4914" x2="206.815" y2="32.4914" gradientUnits="userSpaceOnUse">
<stop stop-color="white" stop-opacity="0.5"/>
<stop offset="1" stop-color="white" stop-opacity="0.1"/>
</linearGradient>
<linearGradient id="paint17_linear_453_6441" x1="181.625" y1="32.4914" x2="206.815" y2="32.4914" gradientUnits="userSpaceOnUse">
<stop stop-color="white" stop-opacity="0.5"/>
<stop offset="1" stop-color="white" stop-opacity="0.1"/>
</linearGradient>
</defs>
</svg>
