<svg width="24" height="24" viewBox="0 0 24 24" fill="none" xmlns="http://www.w3.org/2000/svg">
<path d="M10.8008 18.3008C10.8008 17.903 10.9588 17.5214 11.2401 17.2401C11.5214 16.9588 11.903 16.8008 12.3008 16.8008C12.6986 16.8008 13.0801 16.9588 13.3614 17.2401C13.6427 17.5214 13.8008 17.903 13.8008 18.3008C13.8008 18.6986 13.6427 19.0801 13.3614 19.3614C13.0801 19.6427 12.6986 19.8008 12.3008 19.8008C11.903 19.8008 11.5214 19.6427 11.2401 19.3614C10.9588 19.0801 10.8008 18.6986 10.8008 18.3008ZM10.8008 12.3008C10.8008 11.903 10.9588 11.5214 11.2401 11.2401C11.5214 10.9588 11.903 10.8008 12.3008 10.8008C12.6986 10.8008 13.0801 10.9588 13.3614 11.2401C13.6427 11.5214 13.8008 11.903 13.8008 12.3008C13.8008 12.6986 13.6427 13.0801 13.3614 13.3614C13.0801 13.6427 12.6986 13.8008 12.3008 13.8008C11.903 13.8008 11.5214 13.6427 11.2401 13.3614C10.9588 13.0801 10.8008 12.6986 10.8008 12.3008ZM10.8008 6.30078C10.8008 5.90296 10.9588 5.52143 11.2401 5.24012C11.5214 4.95882 11.903 4.80078 12.3008 4.80078C12.6986 4.80078 13.0801 4.95882 13.3614 5.24012C13.6427 5.52143 13.8008 5.90296 13.8008 6.30078C13.8008 6.69861 13.6427 7.08014 13.3614 7.36144C13.0801 7.64275 12.6986 7.80078 12.3008 7.80078C11.903 7.80078 11.5214 7.64275 11.2401 7.36144C10.9588 7.08014 10.8008 6.69861 10.8008 6.30078Z" fill="#F5EDFD"/>
</svg>
