<svg width="56" height="56" viewBox="0 0 56 56" fill="none" xmlns="http://www.w3.org/2000/svg">
<g filter="url(#filter0_b_495_4545)">
<circle cx="28" cy="28" r="28" fill="#151515"/>
<circle cx="28" cy="28" r="27.3636" stroke="#474747" stroke-width="1.27273" stroke-linecap="round"/>
</g>
<circle cx="23.5927" cy="25.5322" r="10.7177" fill="#D0A2F7"/>
<circle cx="36.3528" cy="25.7004" r="1.02074" fill="#D0A2F7"/>
<circle cx="33.2903" cy="17.5364" r="1.02074" fill="#D0A2F7"/>
<circle cx="23.7629" cy="12.7727" r="1.02074" fill="#D0A2F7"/>
<circle cx="13.552" cy="17.5364" r="1.02074" fill="#D0A2F7"/>
<circle cx="10.8332" cy="25.7004" r="1.02074" fill="#D0A2F7"/>
<circle cx="13.552" cy="33.1868" r="1.02074" fill="#D0A2F7"/>
<circle cx="33.2903" cy="33.1868" r="1.02074" fill="#D0A2F7"/>
<g filter="url(#filter1_b_495_4545)">
<mask id="path-11-inside-1_495_4545" fill="white">
<path fill-rule="evenodd" clip-rule="evenodd" d="M44.445 40.6985C46.4907 40.6985 47.8594 38.5932 47.029 36.7235L38.9739 18.586C37.9792 16.3463 34.8006 16.3463 33.8059 18.586L28.6172 30.2692C27.7199 32.2896 24.9553 32.5449 23.7032 30.7231L20.388 25.8998C19.2646 24.2653 16.8513 24.2653 15.7278 25.8998L8.69748 36.1284C7.40807 38.0044 8.75115 40.5573 11.0275 40.5573H23.9708C24.0072 40.5573 24.0315 40.5947 24.0167 40.6279C24.002 40.6611 24.0263 40.6985 24.0626 40.6985H44.445Z"/>
</mask>
<path fill-rule="evenodd" clip-rule="evenodd" d="M44.445 40.6985C46.4907 40.6985 47.8594 38.5932 47.029 36.7235L38.9739 18.586C37.9792 16.3463 34.8006 16.3463 33.8059 18.586L28.6172 30.2692C27.7199 32.2896 24.9553 32.5449 23.7032 30.7231L20.388 25.8998C19.2646 24.2653 16.8513 24.2653 15.7278 25.8998L8.69748 36.1284C7.40807 38.0044 8.75115 40.5573 11.0275 40.5573H23.9708C24.0072 40.5573 24.0315 40.5947 24.0167 40.6279C24.002 40.6611 24.0263 40.6985 24.0626 40.6985H44.445Z" fill="#D4D4D4" fill-opacity="0.1"/>
<path d="M28.6172 30.2692L27.7559 29.8867L28.6172 30.2692ZM23.7032 30.7231L22.9265 31.2569L23.7032 30.7231ZM47.029 36.7235L46.1677 37.1061L47.029 36.7235ZM38.1125 18.9686L46.1677 37.1061L47.8904 36.341L39.8352 18.2035L38.1125 18.9686ZM29.4785 30.6517L34.6672 18.9686L32.9446 18.2035L27.7559 29.8867L29.4785 30.6517ZM19.6113 26.4336L22.9265 31.2569L24.4798 30.1893L21.1647 25.3659L19.6113 26.4336ZM9.47416 36.6622L16.5045 26.4336L14.9512 25.3659L7.92079 35.5946L9.47416 36.6622ZM23.9708 39.6148H11.0275V41.4997H23.9708V39.6148ZM44.445 39.756H24.0626V41.641H44.445V39.756ZM23.1554 40.2454C22.8639 40.9018 23.3444 41.641 24.0626 41.641V39.756C24.7082 39.756 25.1401 40.4204 24.8781 41.0104L23.1554 40.2454ZM23.9708 41.4997C23.3253 41.4997 22.8934 40.8354 23.1554 40.2454L24.8781 41.0104C25.1696 40.354 24.6891 39.6148 23.9708 39.6148V41.4997ZM7.92079 35.5946C6.20158 38.0959 7.99236 41.4997 11.0275 41.4997V39.6148C9.50995 39.6148 8.61456 37.9129 9.47416 36.6622L7.92079 35.5946ZM21.1647 25.3659C19.6668 23.1866 16.449 23.1866 14.9512 25.3659L16.5045 26.4336C17.2535 25.3439 18.8623 25.3439 19.6113 26.4336L21.1647 25.3659ZM27.7559 29.8867C27.1577 31.2336 25.3146 31.4038 24.4798 30.1893L22.9265 31.2569C24.5961 33.6861 28.2822 33.3456 29.4785 30.6517L27.7559 29.8867ZM46.1677 37.1061C46.7212 38.3525 45.8088 39.756 44.445 39.756V41.641C47.1726 41.641 48.9975 38.8338 47.8904 36.341L46.1677 37.1061ZM39.8352 18.2035C38.509 15.2172 34.2708 15.2172 32.9446 18.2035L34.6672 18.9686C35.3303 17.4754 37.4494 17.4754 38.1125 18.9686L39.8352 18.2035Z" fill="url(#paint0_linear_495_4545)" fill-opacity="0.52" mask="url(#path-11-inside-1_495_4545)"/>
</g>
<defs>
<filter id="filter0_b_495_4545" x="-12.3426" y="-12.3426" width="80.6853" height="80.6853" filterUnits="userSpaceOnUse" color-interpolation-filters="sRGB">
<feFlood flood-opacity="0" result="BackgroundImageFix"/>
<feGaussianBlur in="BackgroundImageFix" stdDeviation="6.17131"/>
<feComposite in2="SourceAlpha" operator="in" result="effect1_backgroundBlur_495_4545"/>
<feBlend mode="normal" in="SourceGraphic" in2="effect1_backgroundBlur_495_4545" result="shape"/>
</filter>
<filter id="filter1_b_495_4545" x="-4.99908" y="3.71186" width="65.4708" height="50.1817" filterUnits="userSpaceOnUse" color-interpolation-filters="sRGB">
<feFlood flood-opacity="0" result="BackgroundImageFix"/>
<feGaussianBlur in="BackgroundImageFix" stdDeviation="6.59719"/>
<feComposite in2="SourceAlpha" operator="in" result="effect1_backgroundBlur_495_4545"/>
<feBlend mode="normal" in="SourceGraphic" in2="effect1_backgroundBlur_495_4545" result="shape"/>
</filter>
<linearGradient id="paint0_linear_495_4545" x1="8.07319" y1="16.9806" x2="24.1159" y2="51.3659" gradientUnits="userSpaceOnUse">
<stop stop-color="white" stop-opacity="0.5"/>
<stop offset="1" stop-color="white" stop-opacity="0.1"/>
</linearGradient>
</defs>
</svg>
