<svg width="28" height="29" viewBox="0 0 28 29" fill="none" xmlns="http://www.w3.org/2000/svg">
<path d="M23.625 8.375H6.125C5.89294 8.375 5.67038 8.28281 5.50628 8.11872C5.34219 7.95462 5.25 7.73206 5.25 7.5C5.25 7.26794 5.34219 7.04538 5.50628 6.88128C5.67038 6.71719 5.89294 6.625 6.125 6.625H21C21.2321 6.625 21.4546 6.53281 21.6187 6.36872C21.7828 6.20462 21.875 5.98206 21.875 5.75C21.875 5.51794 21.7828 5.29538 21.6187 5.13128C21.4546 4.96719 21.2321 4.875 21 4.875H6.125C5.42881 4.875 4.76113 5.15156 4.26884 5.64384C3.77656 6.13613 3.5 6.80381 3.5 7.5V21.5C3.5 22.1962 3.77656 22.8639 4.26884 23.3562C4.76113 23.8484 5.42881 24.125 6.125 24.125H23.625C24.0891 24.125 24.5342 23.9406 24.8624 23.6124C25.1906 23.2842 25.375 22.8391 25.375 22.375V10.125C25.375 9.66087 25.1906 9.21575 24.8624 8.88756C24.5342 8.55937 24.0891 8.375 23.625 8.375ZM19.6875 17.125C19.4279 17.125 19.1742 17.048 18.9583 16.9038C18.7425 16.7596 18.5742 16.5546 18.4749 16.3148C18.3756 16.0749 18.3496 15.811 18.4002 15.5564C18.4509 15.3018 18.5759 15.068 18.7594 14.8844C18.943 14.7009 19.1768 14.5759 19.4314 14.5252C19.686 14.4746 19.9499 14.5006 20.1898 14.5999C20.4296 14.6992 20.6346 14.8675 20.7788 15.0833C20.923 15.2992 21 15.5529 21 15.8125C21 16.1606 20.8617 16.4944 20.6156 16.7406C20.3694 16.9867 20.0356 17.125 19.6875 17.125Z" fill="#F5EDFD"/>
</svg>
