<svg width="48" height="48" viewBox="0 0 48 48" fill="none" xmlns="http://www.w3.org/2000/svg">
<path fill-rule="evenodd" clip-rule="evenodd" d="M41.1001 7.65214C36.686 3.2324 30.8154 0.797164 24.5602 0.794922C11.671 0.794922 1.18116 11.2837 1.17668 24.1763C1.17443 28.2977 2.2519 32.3206 4.29808 35.8659L0.980469 47.9837L13.3764 44.7322C16.7915 46.5957 20.6372 47.5767 24.5502 47.5779H24.5602C37.4472 47.5779 47.9383 37.0879 47.9428 24.1953C47.945 17.947 45.5153 12.073 41.1001 7.65326V7.65214ZM24.5602 43.629H24.5524C21.0655 43.6279 17.6448 42.6905 14.6602 40.9202L13.9504 40.4987L6.59429 42.4282L8.5575 35.2559L8.09556 34.5204C6.15029 31.426 5.12215 27.8493 5.1244 24.1775C5.12888 13.4622 13.8473 4.74376 24.5682 4.74376C29.7592 4.746 34.6387 6.76977 38.3083 10.4439C41.978 14.117 43.9973 19.0009 43.9951 24.1931C43.9905 34.9095 35.2722 43.6279 24.5602 43.6279V43.629ZM35.2206 29.0737C34.6364 28.7811 31.764 27.3683 31.228 27.1733C30.6921 26.9781 30.3031 26.8807 29.9139 27.4659C29.5249 28.0512 28.4049 29.3674 28.064 29.7564C27.7232 30.1466 27.3823 30.1949 26.7981 29.9022C26.2141 29.6096 24.3316 28.9929 22.0993 27.0028C20.3626 25.4533 19.1897 23.5406 18.849 22.9553C18.5081 22.3701 18.8131 22.0538 19.1045 21.7635C19.3669 21.5011 19.6887 21.0807 19.9813 20.7398C20.274 20.3989 20.3704 20.1546 20.5654 19.7655C20.7606 19.3753 20.663 19.0346 20.5173 18.7418C20.3715 18.4492 19.2033 15.5733 18.7155 14.4039C18.2412 13.2648 17.7592 13.4196 17.4015 13.4005C17.0606 13.3837 16.6716 13.3803 16.2814 13.3803C15.8913 13.3803 15.2588 13.5261 14.7229 14.1113C14.1871 14.6965 12.6779 16.1104 12.6779 18.9851C12.6779 21.8599 14.7712 24.6394 15.0638 25.0296C15.3564 25.4197 19.1841 31.3206 25.0446 33.8522C26.4383 34.4542 27.527 34.8142 28.3757 35.0833C29.775 35.5284 31.0486 35.4656 32.0554 35.3153C33.1778 35.1472 35.5121 33.9015 35.9987 32.537C36.4853 31.1725 36.4853 30.002 36.3396 29.7587C36.1939 29.5154 35.8037 29.3685 35.2195 29.0759L35.2206 29.0737Z" fill="#25D366"/>
</svg>
